<svg id="Logo" xmlns="http://www.w3.org/2000/svg" xmlns:xlink="http://www.w3.org/1999/xlink" width="800" height="317" viewBox="0 0 800 317"><defs><style>.cls-1{fill:url(#linear-gradient);}.cls-2{fill:url(#linear-gradient-2);}.cls-3{fill:url(#linear-gradient-3);}.cls-4{fill:url(#linear-gradient-4);}</style><linearGradient id="linear-gradient" x1="266.42919" y1="10.95315" x2="266.42919" y2="88.2086" gradientTransform="matrix(1, 0, 0, -1, 0, 317.76636)" gradientUnits="userSpaceOnUse"><stop offset="0" stop-color="#093b7c"/><stop offset="0.25" stop-color="#0a4289"/><stop offset="0.5" stop-color="#0c4b9e"/><stop offset="0.75" stop-color="#2d65ae"/><stop offset="1" stop-color="#5582be"/></linearGradient><linearGradient id="linear-gradient-2" x1="265.58783" y1="93.30486" x2="265.58783" y2="287.20129" gradientTransform="matrix(1, 0, 0, -1, 0, 317.76636)" gradientUnits="userSpaceOnUse"><stop offset="0" stop-color="#005499"/><stop offset="0.2" stop-color="#0063b6"/><stop offset="0.4" stop-color="#007ce5"/><stop offset="0.7" stop-color="#2199ff"/><stop offset="1" stop-color="#5fb5ff"/></linearGradient><linearGradient id="linear-gradient-3" x1="680.92608" y1="0.76636" x2="680.92608" y2="264.63055" gradientTransform="matrix(1, 0, 0, -1, 0, 317.76636)" gradientUnits="userSpaceOnUse"><stop offset="0" stop-color="#00447f"/><stop offset="0.25" stop-color="#0066bd"/><stop offset="0.5" stop-color="#0088fd"/><stop offset="0.75" stop-color="#40a7ff"/><stop offset="1" stop-color="#80c4ff"/></linearGradient><linearGradient id="linear-gradient-4" x1="671.77991" y1="192.70568" x2="671.77991" y2="317.76636" gradientTransform="matrix(1, 0, 0, -1, 0, 317.76636)" gradientUnits="userSpaceOnUse"><stop offset="0" stop-color="#5583be"/><stop offset="0.25" stop-color="#366cb2"/><stop offset="0.5" stop-color="#1554a5"/><stop offset="0.75" stop-color="#0b4591"/><stop offset="1" stop-color="#093b7b"/></linearGradient></defs><g id="Icon"><path id="Gradient" class="cls-1" d="M11.6693,250.119q.22295,3.1245.5481,8.91069a17.12525,17.12525,0,0,1,2.7322-3.801,18.91916,18.91916,0,0,1,14.45728-5.96121q9.59775,0,15.06486,5.83957a16.571,16.571,0,0,1,2.74715,4.0223,17.21727,17.21727,0,0,1,2.96292-3.90066q6.196-5.96118,16.27964-5.96121,9.59775,0,15.06485,5.83957t5.46713,18.37109v32.11862h-12.149V273.47809q0-7.66515-3.2803-10.94965a11.1913,11.1913,0,0,0-8.2613-3.28495,14.63106,14.63106,0,0,0-9.11178,3.28495q-4.25221,3.28452-4.25211,10.94965v32.11862H37.78986V273.47809q0-7.66515-3.2803-10.94965a11.04321,11.04321,0,0,0-8.13982-3.28495,14.793,14.793,0,0,0-9.23342,3.28495q-4.13063,3.28452-4.13063,10.94965v32.11862H.85658V250.119Zm134.00189,55.47768q-.10413-2.815-.47595-8.13261a16.97315,16.97315,0,0,1-2.5614,3.14459q-6.31726,5.96119-16.52258,5.96122-10.32666,0-16.52283-5.83956t-6.196-18.49269V250.119h12.1492v32.11863q0,7.66443,4.13066,11.07129a14.97483,14.97483,0,0,0,9.59775,3.28492,19.084,19.084,0,0,0,10.4481-3.28492q5.1027-3.40661,5.10267-11.07129V250.119h12.02751v55.47768Zm40.81937-76.03884v45.93679q10.30859-10.4415,25.14864-25.37563h14.94317q-7.03707,6.97075-22.79156,22.71884,6.64066,8.25739,25.95037,32.75884H215.40531q-5.41546-6.82938-19.52327-24.85-4.42666,4.42857-9.39148,9.39934v15.45067H174.34135V229.55784Zm64.02381,7.543h4.3736V250.119h13.97156v9.12449H254.888V285.036q0,6.56967,1.94407,8.75954t6.07449,2.19008a35.51973,35.51973,0,0,0,5.46688-.36541l2.30852-.2433v9.61152l-2.30852.4866a26.82858,26.82858,0,0,1-5.4669.4866q-9.59773,0-14.94337-4.37979-5.22424-4.38-5.22416-16.54591V259.24342h-8.99016V250.119H242.739V237.10089Zm37.66113,17.39788q6.5607-5.23134,18.83109-5.23133,12.14913,0,18.83106,5.23133,6.682,5.35275,6.68179,17.51911v21.4127a35.60232,35.60232,0,0,0,.72907,8.51624l.85033,2.67672v.97317h-12.149q-.36444-1.33833-.972-4.25812a23.71748,23.71748,0,0,1-.41108-2.84568,22.556,22.556,0,0,1-1.65427,2.11578q-5.34552,6.20472-17.859,6.20452-10.20507,0-16.03668-4.62305a15.75027,15.75027,0,0,1-5.71006-12.7744q0-8.15146,6.56042-12.16612,6.56043-4.015,19.56-4.01485h14.94339v-3.40658q0-6.32677-4.13066-8.51628a19.861,19.861,0,0,0-9.23343-2.06844,20.1076,20.1076,0,0,0-9.11178,1.94681,6.3947,6.3947,0,0,0-4.00916,6.08286H281.49352q.00009-7.421,6.682-12.77438Zm17.25169,26.76566q-6.80331.12142-10.20516,2.18967a7.22894,7.22894,0,0,0-3.52328,6.56987,6.88573,6.88573,0,0,0,3.15882,5.96163q3.15863,2.1897,9.3548,2.18967a17.95286,17.95286,0,0,0,11.54161-3.77152q4.58821-3.74853,4.61635-13.02556Q315.40422,281.35517,305.42719,281.26443ZM360.704,250.119q.223,3.1245.54811,8.91069a17.12593,17.12593,0,0,1,2.73221-3.801,18.91926,18.91926,0,0,1,14.45726-5.96121q9.59807,0,15.06466,5.83957a16.57778,16.57778,0,0,1,2.74753,4.0223,17.2097,17.2097,0,0,1,2.96275-3.90066q6.19594-5.96118,16.27964-5.96121,9.59775,0,15.06486,5.83957t5.46691,18.37109v32.11862h-12.149V273.47809q0-7.66515-3.28029-10.94965a11.19074,11.19074,0,0,0-8.26132-3.28495,14.63169,14.63169,0,0,0-9.11162,3.28495q-4.25178,3.28452-4.25212,10.94965v32.11862h-12.149V273.47809q0-7.66515-3.28033-10.94965a11.04321,11.04321,0,0,0-8.13982-3.28495,14.7931,14.7931,0,0,0-9.23343,3.28495q-4.13063,3.28452-4.13066,10.94965v32.11862H349.89118V250.119Zm96.21806,6.93483q7.77561-8.15152,20.77519-8.15175,12.63445,0,20.53177,8.15175,7.89691,8.15088,7.89686,20.804v1.70308a12.07176,12.07176,0,0,0-.12146,1.70348H461.734a18.736,18.736,0,0,0,4.4217,10.46264q4.49507,5.10987,12.27048,5.1101a14.558,14.558,0,0,0,7.77537-1.94679,16.10776,16.10776,0,0,0,5.224-5.23132h13.72863a26.57783,26.57783,0,0,1-9.9624,12.53109q-6.9249,4.62345-16.76555,4.62306-13.60711,0-21.38255-8.15131-7.89685-8.15152-7.89686-20.804,0-12.65292,7.77543-20.804Zm36.46853,16.18093a18.45931,18.45931,0,0,0-3.90884-9.1249q-4.13063-5.23136-11.78456-5.23132-7.6543,0-11.906,5.23132a18.45712,18.45712,0,0,0-3.90927,9.1249Zm38.61121-43.677v76.03885h-12.149V229.55784Z"/><path id="Gradient-2" class="cls-2" d="M2.20179,132.63957H26.58067a2.20334,2.20334,0,0,1,2.20176,2.20489v53.75965q0,4.52634,2.26374,5.51949a2.11085,2.11085,0,0,0,.84882.16684H59.94273a2.07522,2.07522,0,0,0,.86877-.17581q2.18292-1.00514,2.18282-5.51049V54.10258a2.2033,2.2033,0,0,1,2.20173-2.20489H89.4264a2.20332,2.20332,0,0,1,2.20179,2.20484V161.566A2.20334,2.20334,0,0,0,93.83,163.77085h4.59561a2.20331,2.20331,0,0,1,2.20179,2.20484v25.76163a2.20332,2.20332,0,0,1-2.20174,2.20489h-4.5957a2.20331,2.20331,0,0,0-2.20179,2.20484v0h0a69.06383,69.06383,0,0,1-.74388,10.792,26.357,26.357,0,0,1-2.417,7.89075,14.59283,14.59283,0,0,1-4.388,5.22186,19.94514,19.94514,0,0,1-6.58212,3.01745,64.46709,64.46709,0,0,1-14.80036,1.39232H21.27223A21.28726,21.28726,0,0,1,0,203.15933V134.84448a2.20334,2.20334,0,0,1,2.20178-2.20491Zm149.81787,61.30266q-12.64467,0-15.99026-8.9353-2.23128,6.50008-11.00723,8.23894a19.83648,19.83648,0,0,1-4.75994.58016q-3.27375.117-8.3299.11621H96.76874v-30.176h11.07293a3.44447,3.44447,0,0,0,1.33877-.22753q2.90046-1.04422,2.90048-5.6861V130.93041a61.909,61.909,0,0,1,.85534-10.9661,24.90118,24.90118,0,0,1,2.71464-7.94907,14.977,14.977,0,0,1,4.75994-5.164,19.42269,19.42269,0,0,1,6.91676-2.727,38.98135,38.98135,0,0,1,5.83818-.87025q3.4584-.28856,7.92085-.29009h33.91442q3.94106,0,7.13986.29009a46.07667,46.07667,0,0,1,5.80116.87024,21.45527,21.45527,0,0,1,7.32578,2.66906,14.87933,14.87933,0,0,1,4.94564,5.04781,23.7239,23.7239,0,0,1,2.82629,7.8911,60.89621,60.89621,0,0,1,.89244,11.19828v32.84033h8.85042v30.17138Zm23.42429-32.4688V135.25254a2.61892,2.61892,0,0,0-2.6094-2.6131H143.25581a2.61892,2.61892,0,0,0-2.6094,2.6131v26.22073a2.619,2.619,0,0,0,2.6094,2.61309h29.57865a2.619,2.619,0,0,0,2.6094-2.61309Zm85.45829-3.38882c0,3.24922,1.07563,4.99468,2.91064,5.69092l18.28568-.00391v30.17061h-10.0404q-12.64465,0-15.99026-8.9353-2.231,6.50008-11.00723,8.23894a19.83366,19.83366,0,0,1-4.75995.58016q-3.27348.117-8.32969.11621h-20.6015l1.27726-30.172s14.51437-.11556,15.30795-.11556a3.0565,3.0565,0,0,0,1.2644-.116q2.90044-1.04421,2.90049-5.68609V102.96394h28.78262ZM250.131,68.08777V91.80192a2.59729,2.59729,0,0,0,2.58784,2.59149h23.68065a2.59729,2.59729,0,0,0,2.58784-2.59149V68.08777a2.59728,2.59728,0,0,0-2.58784-2.59149H252.71888A2.59729,2.59729,0,0,0,250.131,68.08777Zm-34.79746,0V91.80192a2.5973,2.5973,0,0,0,2.58785,2.59149h23.68073A2.59728,2.59728,0,0,0,244.19,91.80192V68.08777a2.59727,2.59727,0,0,0-2.58784-2.59149H217.92143A2.59729,2.59729,0,0,0,215.33358,68.08777Zm175.20184,85.239q0-5.22186-2.67753-7.1946a4.47761,4.47761,0,0,0-2.23122-.75447,32.1294,32.1294,0,0,0-3.64437-.17389H291.24682V114.91629h.07421l89.012-61.74378,8.12229,21.67283-57.86494,40.071h59.79628q4.38739,0,7.77189.29009a38.88157,38.88157,0,0,1,5.76408.87045,20.56183,20.56183,0,0,1,7.02846,2.66906,14.34041,14.34041,0,0,1,4.79682,5.10591,24.97818,24.97818,0,0,1,2.71483,7.94886,62.8523,62.8523,0,0,1,.85536,11.08231v20.88789h8.47847v30.17137H280.76006V163.77085l109.77532.116Zm88.7275,40.61542q-12.645,0-15.99012-8.9353-2.23164,6.50008-11.00765,8.23894a19.83022,19.83022,0,0,1-4.76.58016q-3.27349.117-8.32971.11621H426.82973V163.77871c.59468,0,7.2131-.01251,8.25522-.01251a3.44353,3.44353,0,0,0,1.33893-.22753q2.90052-1.04422,2.90049-5.6861V130.93041a61.906,61.906,0,0,1,.85536-10.9661,24.898,24.898,0,0,1,2.71483-7.94907,14.97333,14.97333,0,0,1,4.75952-5.164,19.4266,19.4266,0,0,1,6.917-2.727,38.992,38.992,0,0,1,5.83818-.87025q3.45872-.28856,7.92068-.29009h33.91434q3.94166,0,7.13984.29009a46.08712,46.08712,0,0,1,5.80138.87024,21.45666,21.45666,0,0,1,7.3256,2.66906,14.88041,14.88041,0,0,1,4.946,5.0478,23.73148,23.73148,0,0,1,2.8259,7.8911,60.87074,60.87074,0,0,1,.89267,11.19828v34.929a62.438,62.438,0,0,1-.85539,11.14041,24.93131,24.93131,0,0,1-2.71439,7.89078,14.96966,14.96966,0,0,1-4.76,5.16381,22.88672,22.88672,0,0,1-6.99112,2.95948,30.13612,30.13612,0,0,1-5.72689.75412q-3.422.17432-7.88379.1743Zm23.36171-32.4688V135.25254a2.61891,2.61891,0,0,0-2.60939-2.6131H470.43659a2.61894,2.61894,0,0,0-2.60926,2.6131v26.22073a2.619,2.619,0,0,0,2.60938,2.61309h29.57863a2.619,2.619,0,0,0,2.60929-2.61309ZM484.55514,57.25593a24.52,24.52,0,0,1-2.14015,6.40941,40.1515,40.1515,0,0,1-11.10908,14.09771,21.1665,21.1665,0,0,1-8.09054,4.12889q-2.9618.69312-4.8421,1.15907-1.88217.47091-2.912.67548c-.6868.1397-1.11986.218-1.29541.23411q-.26672.02766-.09657-.13432,5.33265-4.37645,9.23113-7.54852,3.8966-3.16981,6.79668-6.03255a44.49038,44.49038,0,0,0,5.03754-5.8767,38.899,38.899,0,0,0,3.92915-7.17843q-5.0406.34308-7.94415-1.285a9.28635,9.28635,0,0,1-4.11468-4.32463,11.57294,11.57294,0,0,1-.86461-6.03483,20.11994,20.11994,0,0,1,1.75838-6.40252,18.05954,18.05954,0,0,1,3.76972-5.377,11.72113,11.72113,0,0,1,5.18623-3.07267,3.42746,3.42746,0,0,1,2.88362.48357,7.13342,7.13342,0,0,1,2.14015,2.52079,16.96522,16.96522,0,0,1,1.44643,3.82878q.55876,2.18649.92287,4.264a34.62281,34.62281,0,0,1,.46987,3.85484,24.13138,24.13138,0,0,1,.05212,2.66895l4.79837-.05066.555,8.59629ZM476.6234,40.29744a2.52135,2.52135,0,0,0-1.44565-.43216,4.73718,4.73718,0,0,0-1.26167.16811,3.16559,3.16559,0,0,0-2.43905,1.681,4.04143,4.04143,0,0,0-.348,2.79176,3.74718,3.74718,0,0,0,3.135,3.09111,43.02671,43.02671,0,0,0,5.80634.73611q-.41391-2.06331-.9658-3.86715A20.471,20.471,0,0,0,478.03,41.67375a2.76561,2.76561,0,0,0-1.46789-1.57666Z"/><path class="cls-3" d="M680.75787,317l99.3839-131.72295s44.681-62.30723,0-132.14123l-149.911,154.72242L565.92356,89.51638S549.638,136.7694,582.20915,185.277Z"/><path class="cls-4" d="M777.63626,49.3722S746.73537.02833,680.75787.02833c0,0-88.10922-4.18169-114.83431,89.06989l56.79079-15.89041,22.9669,51.85288Z"/></g></svg>