<svg id="Layer_1" data-name="Layer 1" xmlns="http://www.w3.org/2000/svg" xmlns:xlink="http://www.w3.org/1999/xlink" width="532.00184" height="276.24816" viewBox="0 0 532.00184 276.24816"><defs><style>.cls-1{fill:url(#linear-gradient);}.cls-2{fill:url(#linear-gradient-2);}</style><linearGradient id="linear-gradient" x1="266.42921" y1="470.4818" x2="266.42921" y2="393.22634" gradientTransform="translate(0 -194.23364)" gradientUnits="userSpaceOnUse"><stop offset="0" stop-color="#093b7c"/><stop offset="0.25" stop-color="#0a4289"/><stop offset="0.5" stop-color="#0c4b9e"/><stop offset="0.75" stop-color="#2d65ae"/><stop offset="1" stop-color="#5582be"/></linearGradient><linearGradient id="linear-gradient-2" x1="265.59048" y1="388.14523" x2="265.59048" y2="194.23364" gradientTransform="translate(0 -194.23364)" gradientUnits="userSpaceOnUse"><stop offset="0" stop-color="#005499"/><stop offset="0.2" stop-color="#0063b6"/><stop offset="0.4" stop-color="#007ce5"/><stop offset="0.7" stop-color="#2199ff"/><stop offset="1" stop-color="#5fb5ff"/></linearGradient></defs><path id="Gradient" class="cls-1" d="M11.66931,219.55393q.22295,3.1245.54809,8.91069a17.12579,17.12579,0,0,1,2.7322-3.801,18.91912,18.91912,0,0,1,14.45728-5.96121q9.59775,0,15.06487,5.83957a16.57085,16.57085,0,0,1,2.74715,4.02231,17.21725,17.21725,0,0,1,2.96292-3.90067q6.196-5.96118,16.27964-5.96121,9.59775,0,15.06485,5.83957t5.46713,18.37109v32.11862h-12.149V242.913q0-7.66517-3.28029-10.94964a11.1914,11.1914,0,0,0-8.2613-3.285,14.631,14.631,0,0,0-9.11178,3.285Q49.93886,235.24786,49.939,242.913v32.11862H37.78987V242.913q0-7.66517-3.28031-10.94964a11.04321,11.04321,0,0,0-8.13982-3.285,14.79305,14.79305,0,0,0-9.23342,3.285q-4.13063,3.28449-4.13063,10.94964v32.11862H.85659v-55.4777ZM145.67119,275.0316q-.10413-2.815-.47595-8.1326a16.97292,16.97292,0,0,1-2.5614,3.1446q-6.31728,5.96118-16.52258,5.96121-10.32668,0-16.52283-5.83957t-6.196-18.49268V219.55393h12.1492v32.11863q0,7.66443,4.13066,11.07129a14.97482,14.97482,0,0,0,9.59775,3.28491,19.08386,19.08386,0,0,0,10.4481-3.28491q5.10271-3.40663,5.10268-11.07129V219.55393h12.02751V275.0316Zm40.81937-76.03885v45.9368q10.30862-10.4415,25.14864-25.37562h14.94317q-7.03706,6.97075-22.79156,22.71882,6.64064,8.25738,25.95038,32.75885H215.40531q-5.41546-6.82937-19.52327-24.85-4.42666,4.42858-9.39148,9.39935v15.45068h-12.1492V198.99277Zm64.02382,7.543h4.3736v13.01818h13.97155v9.12449H254.888v25.79251q0,6.56968,1.94406,8.75956t6.07449,2.19009a35.51954,35.51954,0,0,0,5.46689-.36542l2.30853-.24328v9.61151l-2.30853.4866a26.82856,26.82856,0,0,1-5.46689.4866q-9.59775,0-14.94337-4.37979-5.22426-4.38-5.22417-16.5459V228.67833h-8.99016v-9.1244H242.739V206.53581Zm37.66113,17.39789q6.56072-5.23134,18.83109-5.23132,12.14913,0,18.83105,5.23132,6.682,5.35277,6.68179,17.51911v21.41268a35.60268,35.60268,0,0,0,.72907,8.51624l.85034,2.67673v.97317h-12.149q-.36443-1.33831-.972-4.25812a23.71241,23.71241,0,0,1-.41107-2.84567,22.55809,22.55809,0,0,1-1.65427,2.11579q-5.34553,6.20471-17.859,6.20452-10.20506,0-16.03668-4.623a15.75026,15.75026,0,0,1-5.71-12.77442q0-8.15144,6.56042-12.1661,6.56045-4.015,19.56-4.01487h14.94339v-3.40658q0-6.32676-4.13065-8.51627a19.861,19.861,0,0,0-9.23342-2.06845,20.10772,20.10772,0,0,0-9.11179,1.94681,6.39474,6.39474,0,0,0-4.00916,6.08285h-12.392q.00009-7.421,6.682-12.77438Zm17.25168,26.76566q-6.80332.12144-10.20517,2.18966a7.229,7.229,0,0,0-3.52328,6.56989,6.88574,6.88574,0,0,0,3.15881,5.96164q3.15861,2.18967,9.3548,2.18966a17.95292,17.95292,0,0,0,11.54159-3.77151q4.58821-3.74853,4.61637-13.02557-4.9661-.023-14.94312-.11371ZM360.704,219.55393q.223,3.1245.54809,8.91069a17.12685,17.12685,0,0,1,2.73221-3.801,18.91926,18.91926,0,0,1,14.45727-5.96121q9.59812,0,15.06467,5.83957a16.5777,16.5777,0,0,1,2.74753,4.02231,17.209,17.209,0,0,1,2.96274-3.90067q6.196-5.96118,16.27963-5.96121,9.59775,0,15.06485,5.83957t5.46692,18.37109v32.11862h-12.149V242.913q0-7.66517-3.2803-10.94964a11.19065,11.19065,0,0,0-8.26132-3.285,14.63166,14.63166,0,0,0-9.11164,3.285q-4.2518,3.28449-4.2521,10.94964v32.11862h-12.149V242.913q0-7.66517-3.28033-10.94964a11.04329,11.04329,0,0,0-8.13984-3.285,14.79305,14.79305,0,0,0-9.23342,3.285q-4.13064,3.28449-4.13065,10.94964v32.11862H349.89118v-55.4777Zm96.218,6.93483q7.77563-8.15153,20.77518-8.15175,12.63445,0,20.53177,8.15175,7.89693,8.15089,7.89685,20.804v1.7031a12.06913,12.06913,0,0,0-.12146,1.70349H461.734a18.736,18.736,0,0,0,4.4217,10.46264q4.49509,5.10989,12.27047,5.11011a14.55788,14.55788,0,0,0,7.77536-1.94678,16.10751,16.10751,0,0,0,5.224-5.23132h13.72864a26.57793,26.57793,0,0,1-9.9624,12.5311q-6.92487,4.62345-16.76557,4.623-13.60707,0-21.38253-8.15131-7.89688-8.15154-7.89685-20.804,0-12.65291,7.77542-20.804Zm36.46854,16.18093a18.45933,18.45933,0,0,0-3.90884-9.1249q-4.1306-5.23137-11.78455-5.23133-7.6543,0-11.906,5.23133a18.45729,18.45729,0,0,0-3.90927,9.1249Zm38.61124-43.677v76.03885h-12.149V198.99277Z"/><path id="Gradient-2" class="cls-2" d="M2.2018,102.0745H26.58067a2.20332,2.20332,0,0,1,2.20176,2.20489v53.75966q0,4.52634,2.26374,5.51948a2.11065,2.11065,0,0,0,.84882.16684H59.94274a2.075,2.075,0,0,0,.86877-.17581q2.18292-1.00515,2.18282-5.51048V23.5375a2.20329,2.20329,0,0,1,2.2017-2.20489H89.4264a2.20332,2.20332,0,0,1,2.20179,2.20484V131.00092A2.20335,2.20335,0,0,0,93.83,133.20577h4.59561a2.2033,2.2033,0,0,1,2.20179,2.20483h0v25.76163a2.20331,2.20331,0,0,1-2.20174,2.20489H93.83a2.20331,2.20331,0,0,0-2.20179,2.20484h0a69.06412,69.06412,0,0,1-.74388,10.792,26.35721,26.35721,0,0,1-2.417,7.89075,14.59279,14.59279,0,0,1-4.388,5.22186,19.9449,19.9449,0,0,1-6.58213,3.01745,64.467,64.467,0,0,1-14.80036,1.39232H21.27224A21.28726,21.28726,0,0,1,0,172.59426V104.27941a2.20332,2.20332,0,0,1,2.20176-2.20491h0Zm149.81787,61.30265q-12.64467,0-15.99026-8.9353-2.23128,6.50009-11.00723,8.23894a19.83741,19.83741,0,0,1-4.75994.58015q-3.27375.117-8.32991.11621H96.76874v-30.176h11.07293a3.44442,3.44442,0,0,0,1.33877-.22753q2.90046-1.0442,2.90048-5.68609V100.36533a61.9096,61.9096,0,0,1,.85534-10.9661,24.90113,24.90113,0,0,1,2.71464-7.94908,14.977,14.977,0,0,1,4.75994-5.164,19.42288,19.42288,0,0,1,6.91676-2.727,38.9805,38.9805,0,0,1,5.83818-.87024q3.4584-.28857,7.92085-.2901H175.001q3.94107,0,7.13986.2901a46.07535,46.07535,0,0,1,5.80117.87023,21.45537,21.45537,0,0,1,7.32577,2.66906,14.87951,14.87951,0,0,1,4.94564,5.04782,23.724,23.724,0,0,1,2.82629,7.8911,60.89609,60.89609,0,0,1,.89244,11.19828v32.84034h8.85042v30.17138ZM175.444,130.90836v-26.2209a2.61892,2.61892,0,0,0-2.60941-2.6131H143.25582a2.61892,2.61892,0,0,0-2.60941,2.6131v26.22073a2.619,2.619,0,0,0,2.60941,2.61308h29.57864a2.619,2.619,0,0,0,2.60941-2.61308Zm85.4583-3.38883c0,3.24922,1.07562,4.99468,2.91064,5.69092l18.28568-.00391v30.17061H272.05817q-12.64467,0-15.99026-8.9353-2.231,6.50009-11.00724,8.23894a19.83383,19.83383,0,0,1-4.75994.58015q-3.27348.117-8.3297.11621h-20.6015l1.27726-30.172s14.51438-.11556,15.308-.11556a3.05672,3.05672,0,0,0,1.2644-.116q2.90044-1.0442,2.9005-5.68609V72.39887h28.78261ZM250.131,37.52269V61.23684a2.59729,2.59729,0,0,0,2.58785,2.59149h23.68066a2.59727,2.59727,0,0,0,2.58783-2.59149V37.52269a2.59727,2.59727,0,0,0-2.58783-2.59149H252.71889A2.59728,2.59728,0,0,0,250.131,37.52269Zm-34.79745,0V61.23684a2.59729,2.59729,0,0,0,2.58784,2.59149h23.68073A2.59728,2.59728,0,0,0,244.19,61.23684V37.52269a2.59728,2.59728,0,0,0-2.58785-2.59149H217.92144a2.59728,2.59728,0,0,0-2.58786,2.59149Zm175.20186,85.239q0-5.22187-2.67753-7.1946a4.47763,4.47763,0,0,0-2.23123-.75447,32.13157,32.13157,0,0,0-3.64438-.17389H291.24683V84.35121h.07422l89.012-61.74377,8.12229,21.67283-57.86493,40.071h59.79626q4.38744,0,7.77188.29009a38.88319,38.88319,0,0,1,5.76407.87045,20.56187,20.56187,0,0,1,7.02848,2.66906,14.34053,14.34053,0,0,1,4.79681,5.10591,24.978,24.978,0,0,1,2.71484,7.94886,62.85276,62.85276,0,0,1,.85535,11.08231v20.88789h8.47849v30.17137H280.76008V133.20577l109.77533.116Zm88.7275,40.61542q-12.645,0-15.99011-8.93531-2.23164,6.50009-11.00766,8.23894a19.82981,19.82981,0,0,1-4.76.58016q-3.27351.117-8.32971.11621H426.82975V133.21364c.59466,0,7.2131-.01251,8.25522-.01251a3.44362,3.44362,0,0,0,1.33892-.22753q2.90054-1.04423,2.90049-5.68609V100.36533a61.90678,61.90678,0,0,1,.85534-10.9661,24.89761,24.89761,0,0,1,2.71485-7.94908,14.9733,14.9733,0,0,1,4.75952-5.164,19.42654,19.42654,0,0,1,6.917-2.727,38.99216,38.99216,0,0,1,5.83817-.87024q3.45872-.28857,7.92068-.2901h33.91434q3.94167,0,7.13983.2901a46.08579,46.08579,0,0,1,5.80139.87023,21.45645,21.45645,0,0,1,7.32562,2.66906,14.88074,14.88074,0,0,1,4.946,5.0478,23.73135,23.73135,0,0,1,2.82593,7.8911,60.87069,60.87069,0,0,1,.8927,11.19827v34.929a62.4406,62.4406,0,0,1-.85541,11.14042,24.93153,24.93153,0,0,1-2.71442,7.89077,14.96951,14.96951,0,0,1-4.76,5.16381,22.88679,22.88679,0,0,1-6.99115,2.95947,30.13779,30.13779,0,0,1-5.7269.75412q-3.422.17429-7.88379.1743Zm23.36173-32.4688V104.68746a2.61889,2.61889,0,0,0-2.60938-2.6131H470.43659a2.61893,2.61893,0,0,0-2.60925,2.6131v26.22073a2.619,2.619,0,0,0,2.60937,2.61308h29.57865a2.619,2.619,0,0,0,2.60928-2.61308ZM484.55515,26.69085a24.519,24.519,0,0,1-2.14014,6.40941A40.1514,40.1514,0,0,1,471.30594,47.198a21.16645,21.16645,0,0,1-8.09054,4.12889q-2.96178.69312-4.8421,1.15907-1.88218.47093-2.912.67549c-.6868.1397-1.11987.218-1.29541.2341q-.26675.02768-.09656-.13432,5.33263-4.37645,9.23114-7.54852,3.89658-3.16982,6.79669-6.03255a44.49,44.49,0,0,0,5.03754-5.8767,38.89855,38.89855,0,0,0,3.92914-7.17843q-5.04057.34308-7.94415-1.285a9.28644,9.28644,0,0,1-4.11469-4.32463,11.57286,11.57286,0,0,1-.86462-6.03483A20.1197,20.1197,0,0,1,467.89878,8.578a18.05982,18.05982,0,0,1,3.76971-5.377A11.72136,11.72136,0,0,1,476.85471.12835a3.42745,3.42745,0,0,1,2.88361.48357,7.13363,7.13363,0,0,1,2.14013,2.52079,16.96573,16.96573,0,0,1,1.44645,3.82878q.55873,2.18649.92288,4.264a34.62663,34.62663,0,0,1,.46988,3.85484,24.12654,24.12654,0,0,1,.05212,2.66895l4.79837-.05066.555,8.59629ZM476.62342,9.73236a2.52139,2.52139,0,0,0-1.44565-.43216,4.73754,4.73754,0,0,0-1.26166.16811,3.1656,3.1656,0,0,0-2.43905,1.681,4.04137,4.04137,0,0,0-.348,2.79176,3.7472,3.7472,0,0,0,3.135,3.09111,43.02508,43.02508,0,0,0,5.80634.73611q-.41391-2.06331-.96579-3.86715A20.47058,20.47058,0,0,0,478.03,11.10867,2.76567,2.76567,0,0,0,476.56211,9.532Z"/></svg>