<svg xmlns="http://www.w3.org/2000/svg" xmlns:xlink="http://www.w3.org/1999/xlink" width="930" height="181.99341" viewBox="0 0 930 181.99341"><defs><style>.cls-1{opacity:0.2;}.cls-2{fill:url(#linear-gradient);}</style><linearGradient id="linear-gradient" x1="465" y1="186.52929" x2="465" y2="4.53588" gradientUnits="userSpaceOnUse"><stop offset="0" stop-color="#0a4ea7"/><stop offset="1" stop-color="#0089ff"/></linearGradient></defs><g id="Layer_21" data-name="Layer 21" class="cls-1"><path class="cls-2" d="M869.29456,182.69079c-7.21814-5.08252-43.02216-30.19928-53.13092-35.48047,8.85015-4.82941,18.02624-9.64624,18.11071-9.8996-9.03546.52307-18.2677,4.12622-24.0487,6.83142-5.25891-2.46087-13.37281-5.6607-21.59851-6.61334v-1.61139a12.54661,12.54661,0,0,0-.35-23.55536V102.058a.52874.52874,0,0,0-.52875-.52875h-.43384V97.2517a.50627.50627,0,0,0-.50622-.50622h-1.419v-.46094a.47244.47244,0,0,0-.47247-.47247h-2.03027a.4725.4725,0,0,0-.47254.47247v.46094h-1.33142a.50625.50625,0,0,0-.50623.50628v4.27753h-.40472a.52879.52879,0,0,0-.52875.52875V112.476a12.54594,12.54594,0,0,0,0,23.45568v27.05188c-4.95227,3.35529-9.95343,6.79407-14.40655,9.878V83.29827l4.92-7.90491-10.76752,5.43042-3.97937-4.0794-4.31573,4.42425L746.778,76.74438l-4.42273,4.53387-11.6687-5.88489,4.92005,7.90491v96.91138q-6.25809-.07507-12.66938-.14661V139.33312h.86744a2.06253,2.06253,0,0,0,2.0625-2.0625V122.82311h1.35333a.25.25,0,0,0,.16864-.43451l-4.84735-4.43017V100.82275h.981a.4958.4958,0,0,0,.49578-.49579V77.34881a.489.489,0,0,0,.05292-.689l-5.43518-6.277v-11.249a1.07377,1.07377,0,0,0-1.07379-1.07373h-1.85278V55.0985a1.85522,1.85522,0,0,0,0-3.56671V49.686a3.838,3.838,0,0,0,1.12268-7.32013,3.16862,3.16862,0,1,1-3.15247.00976,3.82511,3.82511,0,0,0,.9989,7.27881v1.87262a1.85581,1.85581,0,0,0,0,3.57611v2.95691h-1.73614a1.07377,1.07377,0,0,0-1.07379,1.07373V70.17321l-5.6167,6.48657a.489.489,0,0,0,.05291.689V100.327a.49582.49582,0,0,0,.49585.49579h.981v17.13568l-4.84735,4.43017a.25.25,0,0,0,.16864.43451h1.35339v3.20868H662.34216v-3.20868h1.3534a.25.25,0,0,0,.16864-.43451l-4.84735-4.43017V100.82275h.981a.49582.49582,0,0,0,.49585-.49579V77.34881a.48891.48891,0,0,0,.05286-.689l-5.43518-6.277v-11.249a1.07372,1.07372,0,0,0-1.07373-1.07373h-1.85285V55.0985a1.85521,1.85521,0,0,0,0-3.56671v-1.8454a3.83818,3.83818,0,0,0,1.12677-7.31866,3.16856,3.16856,0,1,1-3.1524.00616,3.82516,3.82516,0,0,0,.99475,7.28064v1.87256a1.8558,1.8558,0,0,0,0,3.57611v2.95691h-1.73615a1.07372,1.07372,0,0,0-1.07373,1.07373V70.17315l-5.6167,6.48663a.489.489,0,0,0,.05292.689V100.327a.49581.49581,0,0,0,.49579.49579h.981v17.13568l-4.84735,4.43017a.25.25,0,0,0,.16864.43451h1.35333v14.44751a2.058,2.058,0,0,0,1.73077,2.02906v40.04583q-6.37179-.04413-12.83465-.08526V118.64477h2.71509a.53248.53248,0,0,0,.53247-.53247v-1.935a.5325.5325,0,0,0-.53247-.53253h-2.71509V101.50536c11.65967-1.43322,11.66785-8.45471,11.66785-8.45471s-.00818-7.02142-11.66785-8.45465V81.52715a1.35,1.35,0,0,0-1.35-1.35h-2.0094v-26.174h-2.178v26.174h-1.86353a1.35,1.35,0,0,0-1.35,1.35v3.066c-11.463,1.42713-11.78454,8.45746-11.78454,8.45746s-.01587,7.07288,11.78454,8.471v14.12311h-2.69561a.53251.53251,0,0,0-.53254.53253v1.935a.5325.5325,0,0,0,.53254.53247h2.69561V179.2066q-6.772-.04038-13.63842-.07733V51.72747a2.3336,2.3336,0,0,0-2.33356-2.33356H573.835a2.3336,2.3336,0,0,0-2.33356,2.33356V178.96252q-3.37518-.01328-6.76733-.0257V138.16631h4.91345V134.666H538.37781v-6.68958h.97821l-7.94385-5.56945-7.611,5.33606h-.33289V105.72973h4.12268V97.95117h-4.12268V91.65051h2.78089V87.06115h1.06951V76.21008H522.5932V53.65746h-.00531V46.56738a.19852.19852,0,0,0,.01715-.22944L520.308,42.589a.205.205,0,0,0-.34954,0l-2.29706,3.749a.20217.20217,0,0,0,.05523.26911v7.05041H515.1452V42.5678h-3.33661V30.8742a1.07376,1.07376,0,0,0-1.07373-1.07379h-2.30212V16.01727A6.18271,6.18271,0,0,0,508.911,4.53588a5.10147,5.10147,0,1,1-5.07538.01,6.17173,6.17173,0,0,0,.61957,11.51257v13.742H501.987a1.07376,1.07376,0,0,0-1.07373,1.07379V42.5678h-3.30872V53.65746H495.0155V46.56732a.19853.19853,0,0,0,.01709-.22938l-2.297-3.749a.205.205,0,0,0-.34955,0l-2.29706,3.749a.20221.20221,0,0,0,.05518.26905v7.598h.01239V76.21008h-4.72547V87.06115h1.06958v4.58936h2.78082v6.30066h-4.12262v7.77856h4.12262V127.743H488.959l-7.62078-5.3429-7.62085,5.3429h-1.30176v6.923H441.14575v3.5003h4.91345v40.59754q-1.93413.00128-3.86407.00287l.01367-.00928C439.65112,103.7188,426.84009,59.86181,424.64,52.82732c-.19793-.633-.30664-.95764-.31756-.99017v-.01282l-.00214.00641-.00213-.00641v.01282c-.01093.03253-.11957.35712-.31751.99017-2.04425,6.536-13.24377,44.87879-16.87311,110.46747V57.95886h-.00335V48.78014h-6.76947v9.17872h-4.97284V29.80041H392.426V57.95886h-4.82276V29.80041h-2.95581V57.95886h-4.66717V48.78014h-6.76947V58.82507l-.29615,120.085q-3.9527.01327-7.8822.02759V77.93108l-8.7865,5.64917H334.92621l-8.7865-5.64917v101.1792q-5.11332.02666-10.177.05524V137.58538a2.61549,2.61549,0,0,0,.03894-.39136c0-6.184,5.8728-5.8728,5.8728-5.8728s-.1167-14.1181,0-14.2348c-5.91174,0-5.91174-4.12262-5.91174-4.12262v-8.40088h-37.6482v8.40088s0,4.12262-5.91174,4.12262c.1167.1167,0,14.2348,0,14.2348s5.8728-.31116,5.8728,5.8728a2.61549,2.61549,0,0,0,.03894.39136v41.82434q-4.61562.034-9.17871.0694V93.71185L246.42236,62.092l-5.13385-35.937V87.29455l-4.20044,7.77856v48.53821h-7.53546l-6.884-6.884h-.01947v-6.68195c.00708-.19342.02917-.38287.02917-.578s-.02209-.38458-.02917-.578v-.17395h-.00879A15.68016,15.68016,0,0,0,206.98505,113.774c-.13459,0-.26484.01679-.39862.02014V103.70733h-.4181v10.10791a15.66758,15.66758,0,0,0-14.83856,14.90015h-.09631v8.1383l-6.75763,6.75763h-2.81V130.72845h1.97663l-4.97138-3.84485V107.55767h1.03064v-15.722h1.4585l-5.39533-4.68378V76.92364a1.07371,1.07371,0,0,0-1.07373-1.07373h-1.85284V72.8883a1.85522,1.85522,0,0,0,0-3.56671v-1.8454a3.83818,3.83818,0,0,0,1.12677-7.31866,3.16853,3.16853,0,1,1-3.15247.00616,3.82516,3.82516,0,0,0,.99481,7.28064v1.87256a1.85581,1.85581,0,0,0,0,3.57611v2.95691h-1.73614a1.07371,1.07371,0,0,0-1.07373,1.07373V87.16692l-5.378,4.66871h1.45849v15.722h1.03064V126.8836l-4.97137,3.84485H163.114V148.1618h1.089V180.604q-2.76654.03936-5.49365.07928l-7.80768-39.32178h3.34479v-11.985h-3.7337v3.61963h-2.95582v-3.61963h-3.57812v3.29791h-2.10022v-3.29791h-3.9671v3.29791h-2.178v-3.29791h-3.73364v3.37836h-2.95588v-3.37836H125.699v12.46759h2.64477l-1.16681,7.9632H91.55121l-1.16681-7.9632h2.64477V129.37652H89.68433v3.37836H86.72845v-3.37836h-3.7337v3.29791h-2.178v-3.29791h-3.9671v3.29791H74.74945v-3.29791H71.17133v3.61963H68.21552v-3.61963H64.48181v11.985H67.8266L59.614,182.723C21.72028,183.84789.07007,185.14629,0,186.52929H930C929.92926,185.13311,907.86292,183.82311,869.29456,182.69079ZM589.35553,53.75152l.02374-.00244c.03028,0,.06043.001.09076.0011s.06043-.0011.09076-.0011l.02374.00244a77.7184,77.7184,0,0,1,13.01831,1.31995c0,31.42309-9.8706,37.0335-12.96429,38.021v.09918c-.05139-.0133-.11115-.03125-.16852-.04791-.05737.01666-.11712.03461-.16858.04791v-.09918c-3.09363-.98755-12.96423-6.598-12.96423-38.021A77.71856,77.71856,0,0,1,589.35553,53.75152ZM506.37488,56.4746a9.04258,9.04258,0,1,1-9.04254,9.04254A9.04261,9.04261,0,0,1,506.37488,56.4746ZM820.32477,156.71819c.03723.03724,29.09643,23.41968,31.68744,25.50452-14.01789-.35126-29.69336-.68243-46.84986-.99023l-16.53521-11.40992V165.977c6.23443-5.01757,11.48358-9.243,11.49932-9.25885.99451-.9945,5.08326-3.41986,10.09919-6.22979C815.24158,153.29833,819.33026,155.72369,820.32477,156.71819Zm-31.69763-17.97534c3.32757,1.82721,9.56378,5.14063,15.66046,8.46747-3.209,1.67645-9.00812,5.35254-15.66046,9.75208Zm-247.2287-.57654v40.69562c-1.005-.00281-2.01355-.00543-3.02063-.008V138.16631Zm-68.98285,0v40.59223q-1.50906-.00047-3.02069-.00067V138.16631ZM424.80646,79.97619h4.14734c.34137,1.84271.65838,3.67334.94342,5.39838a6.69952,6.69952,0,0,0-5.09076-2.95594Zm0-.97229V73.49407h2.83172c.397,1.76728.7768,3.63385,1.13263,5.50983Zm0-6.48218V64.31793a38.22268,38.22268,0,0,1,2.60907,8.20379Zm-.97229,0H421.225a38.21707,38.21707,0,0,1,2.60919-8.204Zm0,.97235V79.0039h-3.96448c.35583-1.876.7356-3.74255,1.13263-5.50983Zm0,6.48212v2.44244a6.69942,6.69942,0,0,0-5.09088,2.95618c.285-1.72516.60205-3.55579.94342-5.39862Zm2.06445,15.64142a6.71092,6.71092,0,0,0,4.87116-4.68341c.42089,2.82257.66571,4.68341.66571,4.68341ZM417.87073,90.934a6.71077,6.71077,0,0,0,4.87127,4.68366h-5.537S417.44977,93.75671,417.87073,90.934ZM400.049,63.326v11.0456h-4.66711V63.326Zm-7.62292,0v11.0456h-4.82276V63.326Zm-7.77857,0v11.0456h-4.66717V63.326Z" transform="translate(0 -4.53588)"/></g></svg>