<?xml version="1.0" standalone="no"?>
<!DOCTYPE svg PUBLIC "-//W3C//DTD SVG 1.1//EN" "http://www.w3.org/Graphics/SVG/1.1/DTD/svg11.dtd" >
<svg xmlns="http://www.w3.org/2000/svg">
<metadata>Generated by IcoMoon</metadata>
<defs>
<font id="icomoon" horiz-adv-x="1024">
<font-face units-per-em="1024" ascent="960" descent="-64" />
<missing-glyph horiz-adv-x="1024" />
<glyph unicode="&#x20;" horiz-adv-x="512" d="" />
<glyph unicode="&#xe900;" glyph-name="align-left" d="M987.429 779.294h-950.857c-20.433 1.030-36.61 17.847-36.61 38.443 0 0.603 0.014 1.202 0.041 1.798l-0.003-0.084v100.392c-0.024 0.512-0.038 1.111-0.038 1.714 0 20.596 16.177 37.413 36.518 38.439l0.092 0.004h950.857c20.433-1.030 36.61-17.847 36.61-38.443 0-0.603-0.014-1.202-0.041-1.799l0.003 0.085v-100.392c0.024-0.512 0.038-1.111 0.038-1.714 0-20.596-16.177-37.413-36.518-38.439l-0.092-0.004zM0 638.745v-100.391c-0.024-0.512-0.038-1.111-0.038-1.714 0-20.596 16.177-37.413 36.518-38.44l0.092-0.004h644.938c20.433 1.030 36.609 17.848 36.609 38.444 0 0.603-0.014 1.203-0.041 1.799l0.003-0.085v100.391c0.024 0.512 0.038 1.111 0.038 1.714 0 20.596-16.177 37.413-36.518 38.44l-0.092 0.004h-644.938c-20.433-1.030-36.609-17.848-36.609-38.444 0-0.603 0.014-1.203 0.041-1.799l-0.003 0.085zM1024 257.255v100.392c0.024 0.512 0.038 1.111 0.038 1.714 0 20.596-16.177 37.413-36.518 38.439l-0.092 0.004h-950.857c-20.433-1.030-36.61-17.847-36.61-38.443 0-0.603 0.014-1.202 0.041-1.798l-0.003 0.084v-100.392c-0.024-0.512-0.038-1.111-0.038-1.714 0-20.596 16.177-37.413 36.518-38.439l0.092-0.004h950.857c20.433 1.030 36.61 17.847 36.61 38.443 0 0.603-0.014 1.202-0.041 1.799l0.003-0.084zM0 76.549v-100.391c-0.024-0.512-0.038-1.111-0.038-1.714 0-20.596 16.177-37.413 36.518-38.44l0.092-0.004h644.938c20.433 1.030 36.609 17.848 36.609 38.444 0 0.603-0.014 1.203-0.041 1.799l0.003-0.085v100.391c0.024 0.512 0.038 1.111 0.038 1.714 0 20.596-16.177 37.413-36.518 38.44l-0.092 0.004h-644.938c-20.433-1.030-36.609-17.848-36.609-38.444 0-0.603 0.014-1.203 0.041-1.799l-0.003 0.085z" />
<glyph unicode="&#xe901;" glyph-name="align-right" d="M0 819.451v100.392c-0.024 0.512-0.038 1.111-0.038 1.714 0 20.596 16.177 37.413 36.518 38.439l0.092 0.004h950.857c20.433-1.030 36.61-17.847 36.61-38.443 0-0.603-0.014-1.202-0.041-1.798l0.003 0.084v-100.392c0.024-0.512 0.038-1.111 0.038-1.714 0-20.596-16.177-37.413-36.518-38.439l-0.092-0.004h-950.857c-20.433 1.030-36.61 17.847-36.61 38.443 0 0.603 0.014 1.202 0.041 1.799l-0.003-0.084zM987.429 678.903h-644.938c-20.433-1.030-36.609-17.848-36.609-38.444 0-0.603 0.014-1.203 0.041-1.799l-0.003 0.085v-100.391c-0.024-0.512-0.038-1.111-0.038-1.714 0-20.596 16.177-37.413 36.518-38.44l0.092-0.004h644.938c20.433 1.030 36.609 17.848 36.609 38.444 0 0.603-0.014 1.203-0.041 1.799l0.003-0.085v100.391c0.024 0.512 0.038 1.111 0.038 1.714 0 20.596-16.177 37.413-36.518 38.44l-0.092 0.004zM36.571 217.098h950.857c20.433 1.030 36.61 17.847 36.61 38.443 0 0.603-0.014 1.202-0.041 1.798l0.003-0.084v100.392c0.024 0.512 0.038 1.111 0.038 1.714 0 20.596-16.177 37.413-36.518 38.439l-0.092 0.004h-950.857c-20.433-1.030-36.61-17.847-36.61-38.443 0-0.603 0.014-1.202 0.041-1.799l-0.003 0.085v-100.392c-0.024-0.512-0.038-1.111-0.038-1.714 0-20.596 16.177-37.413 36.518-38.439l0.092-0.004zM987.429 116.707h-644.938c-20.433-1.030-36.609-17.848-36.609-38.444 0-0.603 0.014-1.203 0.041-1.799l-0.003 0.085v-100.391c-0.024-0.512-0.038-1.111-0.038-1.714 0-20.596 16.177-37.413 36.518-38.44l0.092-0.004h644.938c20.433 1.030 36.609 17.848 36.609 38.444 0 0.603-0.014 1.203-0.041 1.799l0.003-0.085v100.391c0.024 0.512 0.038 1.111 0.038 1.714 0 20.596-16.177 37.413-36.518 38.44l-0.092 0.004z" />
<glyph unicode="&#xe902;" glyph-name="area" d="M927.278 420.292h95.925v-452.292h-1023.204v904.584h511.602v-96.92h-415.677v-710.744h831.353zM973.165 684.731q-10.070 0-24.7-1.207-14.637-1.219-26.152-2.666 15.363 15.996 30.944 33.923c9.594 10.957 18.819 22.969 27.254 35.555l0.802 1.271c7.381 10.916 14.208 23.42 19.828 36.562l0.562 1.478c4.874 11.066 7.772 23.956 7.915 37.506v0.054c0.006 0.41 0.009 0.895 0.009 1.381 0 14.426-2.824 28.191-7.95 40.775l0.26-0.723c-5.088 12.442-12.404 23.020-21.539 31.703l-0.038 0.036c-9.267 8.633-20.273 15.542-32.418 20.131l-0.682 0.226c-12.138 4.605-26.173 7.272-40.83 7.272-0.482 0-0.964-0.003-1.444-0.009l0.073 0.001c-0.34 0.003-0.741 0.004-1.143 0.004-10.544 0-20.841-1.058-30.791-3.074l0.99 0.167c-10.154-2.1-19.134-5.195-27.55-9.272l0.696 0.304c-9.234-4.486-17.192-9.654-24.426-15.664l0.195 0.157c-8.496-7.080-16.162-14.289-23.379-21.926l-0.119-0.127 44.121-44.579c6.987 7.080 14.425 13.667 22.284 19.734l0.51 0.379c7.238 5.593 16.44 8.965 26.43 8.965 0.231 0 0.462-0.002 0.693-0.005h-0.035c0.495 0.023 1.076 0.037 1.66 0.037 9.835 0 18.785-3.79 25.468-9.989l-0.024 0.022c6.483-7.225 10.447-16.825 10.447-27.351 0-1.206-0.052-2.399-0.154-3.578l0.011 0.153c-0.428-12.315-4.024-23.707-9.992-33.493l0.172 0.303c-8.198-14.119-17.164-26.336-27.27-37.502l0.166 0.187q-17.26-19.628-40.531-41.921-23.255-22.29-50.117-47.49v-47.49h220.626v69.779zM380.907 567.683c-19.832-13.056-37.101-27.292-52.713-43.164l-0.042-0.043h-3.2l-7.994 51.686h-95.926v-400.598h117.502v270.567q36.768 38.77 67.151 38.766c1.091 0.099 2.36 0.156 3.642 0.156 13.569 0 25.657-6.34 33.464-16.219l0.068-0.090c7.583-14.496 12.032-31.665 12.032-49.873 0-3.482-0.163-6.926-0.481-10.324l0.033 0.435v-233.418h117.518v270.567q38.361 38.77 67.947 38.766c1.089 0.099 2.354 0.155 3.634 0.155 13.571 0 25.662-6.34 33.472-16.219l0.068-0.090c7.583-14.496 12.032-31.665 12.032-49.873 0-3.482-0.163-6.926-0.481-10.325l0.033 0.435v-233.418h117.502v248.759c0.194 3.336 0.305 7.238 0.305 11.165 0 39.652-11.271 76.671-30.785 108.029l0.503-0.868q-29.977 43.195-93.927 43.207c-0.897 0.024-1.953 0.038-3.012 0.038-24.617 0-47.506-7.402-66.561-20.103l0.44 0.276c-20.812-14.338-38.998-29.882-55.436-47.108l-0.13-0.137c-9.191 20.402-23.267 37.207-40.783 49.419l-0.388 0.256c-17.866 10.985-39.508 17.493-62.669 17.493-1.994 0-3.976-0.048-5.946-0.144l0.278 0.011c-1.020 0.031-2.221 0.049-3.425 0.049-23.607 0-45.629-6.786-64.222-18.514l0.498 0.293z" />
<glyph unicode="&#xe903;" glyph-name="arrows-swap" d="M0 623.976v31.996c0.001 26.507 21.49 47.996 47.997 47.996 0.001 0 0.002 0 0.003 0h720v95.989c0.052 26.491 21.539 47.946 48.037 47.946 13.234 0 25.218-5.352 33.906-14.009l159.999-159.982c8.686-8.685 14.058-20.684 14.058-33.937s-5.372-25.252-14.058-33.937l-160-159.983c-8.687-8.659-20.672-14.012-33.908-14.012-26.498 0-47.985 21.457-48.034 47.944v95.995h-720c-0.001 0-0.002 0-0.003 0-26.507 0-47.996 21.488-47.997 47.995v0zM976 320.008h-720v95.99c-0.052 26.491-21.539 47.946-48.037 47.946-13.234 0-25.218-5.352-33.907-14.009l-159.999-159.982c-8.686-8.685-14.058-20.684-14.058-33.937s5.372-25.252 14.058-33.937l160-159.983c8.687-8.659 20.673-14.013 33.909-14.013 26.499 0 47.986 21.458 48.033 47.946v95.995h720c0.001 0 0.002 0 0.003 0 26.507 0 47.996 21.488 47.997 47.994v0 31.997c-0.001 26.507-21.49 47.995-47.997 47.995-0.001 0-0.002 0-0.003 0v0z" />
<glyph unicode="&#xe904;" glyph-name="back" d="M1007.382 580.329l-352.008 303.97c-8.359 7.229-19.335 11.633-31.34 11.633-26.503 0-47.992-21.464-48.034-47.957v-160.11c-321.258-3.678-576-68.064-576-372.516 0-122.882 79.162-244.618 166.666-308.264 5.933-4.575 13.472-7.332 21.655-7.332 19.685 0 35.642 15.958 35.642 35.642 0 3.182-0.417 6.266-1.199 9.201l0.056-0.249c-90.688 290.026 43.014 367.022 353.18 371.484v-175.831c0.037-26.498 21.527-47.965 48.030-47.965 12.007 0 22.984 4.406 31.405 11.688l-0.061-0.051 352.008 304c10.203 8.854 16.618 21.842 16.618 36.328s-6.415 27.474-16.559 36.278l-0.059 0.050z" />
<glyph unicode="&#xe905;" glyph-name="bars" d="M36.571 731.429h950.857c0 0 0.001 0 0.001 0 20.197 0 36.57 16.373 36.57 36.57 0 0 0 0.001 0 0.001v0 91.429c0 0 0 0.001 0 0.001 0 20.197-16.373 36.57-36.57 36.57 0 0-0.001 0-0.001 0h-950.857c0 0-0.001 0-0.001 0-20.197 0-36.57-16.373-36.57-36.57 0 0 0-0.001 0-0.001v0-91.429c0 0 0-0.001 0-0.001 0-20.197 16.373-36.57 36.57-36.57 0 0 0.001 0 0.001 0v0zM36.571 365.714h950.857c0 0 0.001 0 0.001 0 20.197 0 36.57 16.373 36.57 36.57 0 0.001 0 0.001 0 0.002v0 91.428c0 0 0 0.001 0 0.001 0 20.197-16.373 36.57-36.57 36.57 0 0-0.001 0-0.001 0h-950.857c0 0-0.001 0-0.001 0-20.197 0-36.57-16.373-36.57-36.57 0 0 0-0.001 0-0.001v0-91.428c0 0 0-0.001 0-0.001 0-20.197 16.373-36.57 36.57-36.57 0 0 0.001 0 0.001 0v0zM36.571 0h950.857c0 0 0.001 0 0.001 0 20.197 0 36.57 16.373 36.57 36.57 0 0 0 0.001 0 0.001v0 91.429c0 0 0 0.001 0 0.001 0 20.197-16.373 36.57-36.57 36.57 0 0-0.001 0-0.001 0h-950.857c0 0-0.001 0-0.001 0-20.197 0-36.57-16.373-36.57-36.57 0 0 0-0.001 0-0.001v0-91.429c0 0 0-0.001 0-0.001 0-20.197 16.373-36.57 36.57-36.57 0 0 0.001 0 0.001 0v0z" />
<glyph unicode="&#xe906;" glyph-name="bath" d="M999.226 446.113h-21.771v311.997c-0.049 75.025-60.88 135.826-135.911 135.826-36.48 0-69.603-14.372-94.015-37.763l0.049 0.046c-26.387 20.972-60.188 33.648-96.95 33.648-40.19 0-76.842-15.15-104.556-40.051l0.144 0.127-12.295 11.118c-1.416 1.284-3.304 2.070-5.375 2.070-2.349 0-4.462-1.011-5.928-2.621l-0.006-0.006-21.656-23.874c-1.285-1.412-2.071-3.297-2.071-5.366 0-2.348 1.013-4.459 2.626-5.92l0.007-0.006 255.23-230.8c1.416-1.284 3.304-2.070 5.376-2.070 2.349 0 4.462 1.010 5.928 2.62l0.006 0.006 21.656 23.875c1.285 1.412 2.071 3.297 2.071 5.366 0 2.348-1.013 4.459-2.626 5.92l-0.007 0.006-12.294 11.118c18.921 25.513 30.288 57.618 30.288 92.377 0 30.634-8.829 59.205-24.080 83.309l0.378-0.64c14.876 14.778 35.375 23.911 58.007 23.911 45.43 0 82.264-36.801 82.316-82.219v-312.002h-898.991c-13.682 0-24.774-11.092-24.774-24.774v-5.995c0 0 0 0 0 0 0-13.682 11.092-24.774 24.774-24.774 0 0 0 0 0 0h974.451c0 0 0 0 0 0 13.682 0 24.774 11.092 24.774 24.774 0 0 0 0 0 0v0 5.995c0 13.682-11.092 24.774-24.774 24.774v0zM960.939 348.903h-897.877c0 0 0 0 0 0-9.121 0-16.516-7.394-16.516-16.516 0 0 0 0 0-0.001v0-133.688c0-72.973 59.156-132.129 132.129-132.129h36.035v-47.99c0 0 0 0 0 0 0-9.122 7.395-16.516 16.516-16.516h49.548c9.122 0 16.516 7.395 16.516 16.516v0 47.99h429.419v-47.99c0 0 0 0 0 0 0-9.122 7.395-16.516 16.516-16.516h49.548c9.122 0 16.516 7.395 16.516 16.516v0 47.99h36.035c72.973 0 132.129 59.156 132.129 132.129v0 133.688c0 0 0 0 0 0.001 0 9.121-7.394 16.516-16.516 16.516 0 0 0 0-0.001 0v0z" />
<glyph unicode="&#xe907;" glyph-name="bed" d="M181.333 661.333h360.533c11.838-0.255 21.338-9.912 21.338-21.787 0-0.153-0.002-0.306-0.005-0.458v0.023-244.444h358.4v351.111c-0.003 0.129-0.004 0.282-0.004 0.435 0 11.876 9.499 21.533 21.314 21.787h59.757c11.838-0.255 21.338-9.912 21.338-21.787 0-0.153-0.002-0.306-0.005-0.458v0.023-595.556c0.003-0.129 0.004-0.282 0.004-0.435 0-11.876-9.499-21.533-21.314-21.787h-59.757c-11.838 0.255-21.338 9.912-21.338 21.787 0 0.153 0.002 0.306 0.005 0.458v-0.023 84.444h-819.2v-82.222c0.003-0.129 0.004-0.282 0.004-0.435 0-11.876-9.499-21.533-21.314-21.787h-59.757c-11.838 0.255-21.338 9.912-21.338 21.787 0 0.153 0.002 0.306 0.005 0.458v-0.023 320c-0.024 1.102-0.037 2.4-0.037 3.702 0 100.942 80.745 183.025 181.169 185.183l0.201 0.003zM870.4 581.333c0.068 1.56 0.107 3.389 0.107 5.228 0 70.751-57.355 128.107-128.107 128.107s-128.107-57.355-128.107-128.107c0-1.839 0.039-3.668 0.115-5.488l-0.009 0.26c-0.068-1.56-0.107-3.389-0.107-5.228 0-70.751 57.355-128.107 128.107-128.107s128.107 57.355 128.107 128.107c0 1.839-0.039 3.668-0.115 5.488l0.009-0.26z" />
<glyph unicode="&#xe908;" glyph-name="bell" d="M512-64c70.664 0.021 127.94 57.311 127.94 127.978 0 0.008 0 0.016 0 0.024v-0.001h-255.88c0-0.007 0-0.015 0-0.022 0-70.667 57.276-127.956 127.938-127.978h0.002zM942.78 235.42c-38.64 41.52-110.94 103.98-110.94 308.58 0 0.068 0 0.149 0 0.229 0 153.222-109.109 280.96-253.869 309.757l-2.011 0.334v41.68c0 35.324-28.636 63.96-63.96 63.96s-63.96-28.636-63.96-63.96v-41.68c-146.771-29.131-255.88-156.869-255.88-310.091 0-0.081 0-0.161 0-0.242v0.013c0-204.6-72.3-267.060-110.94-308.58-10.661-11.187-17.221-26.366-17.221-43.077 0-0.121 0-0.241 0.001-0.361v0.018c0.032-35.353 28.699-64 64.057-64 0.050 0 0.101 0 0.151 0h767.592c0.046 0 0.101 0 0.156 0 35.355 0 64.019 28.649 64.044 63.998v0.002c0.001 0.106 0.001 0.231 0.001 0.357 0 16.707-6.56 31.881-17.245 43.088l0.024-0.025z" />
<glyph unicode="&#xe909;" glyph-name="bell-slash" d="M207.969 642.734l514.733-514.734h-594.501c-0.043 0-0.093 0-0.144 0-35.358 0-64.024 28.647-64.057 63.997v0.003c-0.001 0.102-0.001 0.223-0.001 0.344 0 16.711 6.56 31.889 17.245 43.102l-0.024-0.025c38.641 41.52 110.94 103.98 110.94 308.58 0.018 35.308 5.801 69.26 16.46 100.972l-0.652-2.237zM512.001-64c70.664 0.022 127.94 57.311 127.94 127.978 0 0.008 0 0.015 0 0.023v-0.001h-255.881c0-0.007 0-0.014 0-0.022 0-70.667 57.276-127.957 127.939-127.978h0.002zM971.519 65.781l-63.472 63.472c29.717 5.922 51.823 31.734 51.955 62.732v0.014c0.001 0.106 0.001 0.231 0.001 0.356 0 16.707-6.56 31.881-17.245 43.089l0.024-0.025c-38.64 41.52-110.94 103.98-110.94 308.58 0 0.068 0 0.148 0 0.229 0 153.222-109.109 280.96-253.869 309.757l-2.011 0.334v41.68c0 35.324-28.636 63.96-63.96 63.96s-63.96-28.636-63.96-63.96v-41.68c-67.643-14.138-125.897-47.668-170.354-94.438l-0.131-0.138-99.774 99.774c-2.896 2.895-6.896 4.686-11.314 4.686s-8.418-1.791-11.314-4.686l-24.021-24.022c-2.896-2.895-4.687-6.895-4.687-11.314s1.791-8.418 4.687-11.314l793.736-793.737c2.895-2.896 6.896-4.687 11.314-4.687s8.418 1.791 11.314 4.686l24.021 24.021c2.896 2.895 4.687 6.896 4.687 11.314s-1.791 8.419-4.687 11.314v0z" />
<glyph unicode="&#xe90a;" glyph-name="briefcase" d="M640 464h384v-288c-0.187-61.781-50.22-111.813-111.982-112h-800.018c-61.781 0.187-111.813 50.22-112 111.982v288.018h384v-48c0-26.51 21.49-48 48-48v0h160c26.51 0 48 21.49 48 48v0zM1024 592v-64h-1024v64c0.187 61.781 50.219 111.813 111.982 112h144.018v111.040c0.135 44.659 36.301 80.825 80.947 80.96h350.093c44.659-0.135 80.825-36.301 80.96-80.947v-111.053h144c61.781-0.187 111.813-50.219 112-111.982v-0.018zM640 784h-256v-80h256z" />
<glyph unicode="&#xe90b;" glyph-name="building" d="M936 0h-40v912c0 26.51-21.49 48-48 48v0h-672c-26.51 0-48-21.49-48-48v0-912h-40c-13.255-0.001-23.999-10.745-24-24v0-40h896v40c-0.001 13.255-10.745 23.999-24 24v0zM320 808c0.001 13.255 10.745 23.999 24 24h80c13.255-0.001 23.999-10.745 24-24v0-80c-0.001-13.255-10.745-23.999-24-24h-80c-13.255 0.001-23.999 10.745-24 24v0zM320 616c0.001 13.255 10.745 23.999 24 24h80c13.255-0.001 23.999-10.745 24-24v0-80c-0.001-13.255-10.745-23.999-24-24h-80c-13.255 0.001-23.999 10.745-24 24v0zM424 320h-80c-13.255 0.001-23.999 10.745-24 24v0 80c0.001 13.255 10.745 23.999 24 24h80c13.255-0.001 23.999-10.745 24-24v0-80c-0.001-13.255-10.745-23.999-24-24v0zM576 0h-128v168c0.001 13.255 10.745 23.999 24 24h80c13.255-0.001 23.999-10.745 24-24v0zM704 344c-0.001-13.255-10.745-23.999-24-24h-80c-13.255 0.001-23.999 10.745-24 24v0 80c0.001 13.255 10.745 23.999 24 24h80c13.255-0.001 23.999-10.745 24-24v0zM704 536c-0.001-13.255-10.745-23.999-24-24h-80c-13.255 0.001-23.999 10.745-24 24v0 80c0.001 13.255 10.745 23.999 24 24h80c13.255-0.001 23.999-10.745 24-24v0zM704 728c-0.001-13.255-10.745-23.999-24-24h-80c-13.255 0.001-23.999 10.745-24 24v0 80c0.001 13.255 10.745 23.999 24 24h80c13.255-0.001 23.999-10.745 24-24v0z" />
<glyph unicode="&#xe90c;" glyph-name="buildings" d="M265.481 218.473v169.535h-14.265c-6.212 0-11.248 5.036-11.249 11.249v0 37.495c0 6.212 5.036 11.248 11.248 11.248 0 0 0.001 0 0.001 0h14.265v29.996h-14.265c-6.212 0-11.248 5.036-11.249 11.248v0 37.495c0.001 6.212 5.037 11.248 11.249 11.249h14.265v29.996h-14.265c-6.212 0.001-11.247 5.036-11.248 11.248v0 37.496c0 6.212 5.036 11.248 11.248 11.248 0 0 0.001 0 0.001 0h14.265v59.992h-212.989c-12.424 0-22.496-10.072-22.496-22.496v0-427.443h-18.749c-6.212-0.001-11.247-5.036-11.248-11.248v0-18.749h246.201c5.389 4.645 11.833 8.231 18.913 10.347l0.367 0.094zM119.984 616.728c0 6.212 5.036 11.248 11.248 11.248 0 0 0.001 0 0.001 0h37.494c0 0 0.001 0 0.001 0 6.212 0 11.248-5.036 11.248-11.248v0-37.496c0-6.213-5.036-11.249-11.249-11.249h-37.495c-6.212 0.001-11.247 5.037-11.248 11.249v0zM119.984 526.74c0 6.212 5.036 11.248 11.249 11.249h37.494c6.213 0 11.249-5.036 11.249-11.249v0-37.495c0-6.212-5.036-11.248-11.248-11.248 0 0-0.001 0-0.001 0h-37.495c0 0-0.001 0-0.001 0-6.212 0-11.248 5.036-11.248 11.248v0zM168.727 388.008h-37.495c-6.212 0.001-11.248 5.036-11.249 11.249v0 37.495c0 6.212 5.036 11.248 11.248 11.248 0 0 0.001 0 0.001 0h37.494c0 0 0.001 0 0.001 0 6.212 0 11.248-5.036 11.248-11.248v-37.495c0-6.212-5.036-11.248-11.248-11.248v0zM239.968 238.029h-59.992v78.739c0 6.212 5.036 11.248 11.248 11.248v0h37.494c0 0 0.001 0 0.001 0 6.212 0 11.248-5.036 11.248-11.248v0zM1012.752 238.029h-18.748v427.442c0 12.424-10.072 22.496-22.496 22.496h-212.989v-59.992h14.265c0 0 0.001 0 0.001 0 6.212 0 11.248-5.036 11.248-11.248v0-37.495c-0.001-6.212-5.037-11.248-11.249-11.249h-14.265v-29.995h14.265c6.212-0.001 11.248-5.037 11.249-11.249v0-37.495c-0.001-6.212-5.037-11.248-11.249-11.248h-14.265v-29.996h14.265c0 0 0.001 0 0.001 0 6.212 0 11.248-5.036 11.248-11.248v0-37.495c-0.001-6.212-5.037-11.248-11.249-11.249h-14.265v-169.534c7.447-2.21 13.891-5.796 19.348-10.498l-0.068 0.057h246.201v18.748c-0.001 6.212-5.036 11.248-11.248 11.249v0zM844.025 238.029h-59.993v78.739c0 6.212 5.036 11.248 11.248 11.248 0 0 0.001 0 0.001 0h37.494c6.212 0 11.248-5.036 11.248-11.248v0zM904.016 399.257c-0.001-6.212-5.036-11.248-11.248-11.249h-37.495c-6.212 0.001-11.248 5.037-11.248 11.249v0 37.495c0 6.212 5.036 11.248 11.248 11.248v0h37.495c6.212 0 11.248-5.036 11.248-11.248v0zM904.016 489.244c0-6.212-5.036-11.248-11.248-11.248v0h-37.495c-6.212 0-11.248 5.036-11.248 11.248v0 37.495c0 6.212 5.036 11.248 11.248 11.249h37.495c6.212-0.001 11.248-5.037 11.248-11.249v0zM904.016 579.233c-0.001-6.212-5.036-11.248-11.248-11.249h-37.495c-6.212 0.001-11.248 5.037-11.248 11.249v0 37.495c0 6.212 5.036 11.248 11.248 11.248v0h37.495c6.212 0 11.248-5.036 11.248-11.248v0zM763.259 182.519h-23.704v540.444c0 0 0 0.001 0 0.001 0 15.709-12.735 28.444-28.444 28.444 0 0 0 0-0.001 0h-398.222c0 0 0 0 0 0-15.709 0-28.444-12.735-28.444-28.444 0 0 0 0 0 0v0-540.445h-23.704c-7.855 0-14.222-6.368-14.222-14.222v0-23.704h530.963v23.704c0 7.855-6.368 14.222-14.222 14.222v0zM398.222 661.333c0 7.855 6.368 14.222 14.222 14.222h47.408c7.855 0 14.222-6.368 14.222-14.222v0-47.408c0-7.855-6.368-14.222-14.222-14.222h-47.408c-7.855 0-14.222 6.368-14.222 14.222v0zM398.222 547.556c0 7.855 6.368 14.222 14.222 14.222h47.408c7.855 0 14.222-6.368 14.222-14.222v0-47.408c0-7.855-6.368-14.222-14.222-14.222h-47.408c-7.855 0-14.222 6.368-14.222 14.222v0zM459.852 372.148h-47.408c-7.855 0-14.222 6.368-14.222 14.222v0 47.408c0 7.855 6.368 14.222 14.223 14.222h47.408c7.855 0 14.222-6.368 14.222-14.222v0-47.408c-0.001-7.855-6.368-14.222-14.223-14.222v0zM549.926 182.518h-75.852v99.556c0 7.855 6.368 14.222 14.222 14.222h47.408c7.855 0 14.222-6.368 14.222-14.222v0zM625.778 386.37c0-7.855-6.368-14.222-14.222-14.222h-47.408c-7.855 0-14.222 6.368-14.222 14.222v0 47.408c0 7.855 6.368 14.222 14.223 14.222h47.408c7.855 0 14.222-6.368 14.222-14.222v0zM625.778 500.148c0-7.855-6.368-14.222-14.222-14.222h-47.408c-7.855 0-14.222 6.368-14.222 14.222v0 47.408c0 7.855 6.368 14.222 14.222 14.222h47.408c7.855 0 14.222-6.368 14.222-14.222v0zM625.778 613.925c0-7.855-6.368-14.222-14.222-14.222h-47.408c-7.855 0-14.222 6.368-14.222 14.222v0 47.408c0 7.855 6.368 14.222 14.222 14.222h47.408c7.855 0 14.222-6.368 14.222-14.222v0z" />
<glyph unicode="&#xe90d;" glyph-name="calendar" d="M552 384h-80c-13.239 0.040-23.96 10.761-24 23.996v80.004c0.040 13.239 10.761 23.96 23.996 24h80.004c13.239-0.040 23.96-10.761 24-23.996v-80.004c-0.040-13.239-10.761-23.96-23.996-24h-0.004zM576 184v80c-0.040 13.239-10.761 23.96-23.996 24h-80.004c-13.239-0.040-23.96-10.761-24-23.996v-80.004c0.040-13.239 10.761-23.96 23.996-24h80.004c13.239 0.040 23.96 10.761 24 23.996v0.004zM800 408v80c-0.040 13.239-10.761 23.96-23.996 24h-80.004c-13.239-0.040-23.96-10.761-24-23.996v-80.004c0.040-13.239 10.761-23.96 23.996-24h80.004c13.239 0.040 23.96 10.761 24 23.996v0.004zM800 184v80c-0.040 13.239-10.761 23.96-23.996 24h-80.004c-13.239-0.040-23.96-10.761-24-23.996v-80.004c0.040-13.239 10.761-23.96 23.996-24h80.004c13.239 0.040 23.96 10.761 24 23.996v0.004zM352 408v80c-0.040 13.239-10.761 23.96-23.996 24h-80.004c-13.239-0.040-23.96-10.761-24-23.996v-80.004c0.040-13.239 10.761-23.96 23.996-24h80.004c13.239 0.040 23.96 10.761 24 23.996v0.004zM352 184v80c-0.040 13.239-10.761 23.96-23.996 24h-80.004c-13.239-0.040-23.96-10.761-24-23.996v-80.004c0.040-13.239 10.761-23.96 23.996-24h80.004c13.239 0.040 23.96 10.761 24 23.996v0.004zM960 736v-704c-0.014-53.014-42.986-95.986-95.999-96h-704.001c-53.014 0.014-95.986 42.986-96 95.999v704.001c0.014 53.014 42.986 95.986 95.999 96h96.001v104c0.040 13.239 10.761 23.96 23.996 24h80.004c13.239-0.040 23.96-10.761 24-23.996v-104.004h256v104c0.040 13.239 10.761 23.96 23.996 24h80.004c13.239-0.040 23.96-10.761 24-23.996v-104.004h96c53.014-0.014 95.986-42.986 96-95.999v-0.001zM864 640h-704v-596c0.020-6.619 5.381-11.98 11.998-12h680.002c6.619 0.020 11.98 5.381 12 11.998v0.002z" />
<glyph unicode="&#xe90e;" glyph-name="camera" d="M657 387.088c-0.558-79.659-65.263-144.020-145-144.020-80.083 0-145.003 64.92-145.003 145.003s64.92 145.003 145.003 145.003c0 0 0 0 0 0v0c80.142-0.281 145.001-65.314 145.001-145.495 0-0.173 0-0.346-0.001-0.519v0.027zM1024 595.497v-416.816c0-0.014 0-0.030 0-0.046 0-55.356-44.694-100.274-99.966-100.635h-824.034c-55.306 0.361-100 45.279-100 100.635 0 0.016 0 0.032 0 0.048v-0.002 416.816c0 0.013 0 0.029 0 0.045 0 55.356 44.694 100.273 99.966 100.634h24.034v24.205c0 17.673 14.327 32 32 32v0h48c17.673 0 32-14.327 32-32v0-24.205h57.3l50.133 95.142c9.236 15.272 25.333 25.589 43.91 26.675l0.149 0.007h249.018c18.725-1.093 34.822-11.41 43.921-26.436l0.138-0.245 50.133-95.142h193.3c55.306-0.361 100-45.278 100-100.634 0-0.016 0-0.032 0-0.048v0.003zM737 387.088c-0.865 123.609-101.269 223.48-225 223.48-124.267 0-225.005-100.738-225.005-225.005s100.738-225.005 225.005-225.005v0c124.358 0.437 225.001 101.349 225.001 225.768 0 0.268 0 0.536-0.001 0.804v-0.041zM966 606.571c0 0.030 0 0.066 0 0.102 0 16.589-13.419 30.044-29.995 30.102h-90.006c-16.592-0.118-29.996-13.596-29.996-30.204s13.405-30.086 29.985-30.204h90.011c16.581 0.058 30 13.514 30 30.103 0 0.036 0 0.071 0 0.107v-0.006z" />
<glyph unicode="&#xe90f;" glyph-name="check" d="M1016.832 730.827l-93.239 93.949c-4.414 4.461-10.538 7.223-17.307 7.223s-12.892-2.762-17.304-7.221l-0.002-0.002-509.444-513.332-244.516 246.381c-4.414 4.461-10.538 7.223-17.307 7.223s-12.892-2.762-17.304-7.221l-0.002-0.002-93.239-93.95c-4.431-4.477-7.169-10.638-7.169-17.439s2.738-12.961 7.171-17.441l-0.002 0.002 355.066-357.776c4.414-4.461 10.538-7.223 17.306-7.223s12.892 2.762 17.304 7.221l0.002 0.002 619.984 624.726c4.432 4.478 7.17 10.639 7.17 17.44s-2.737 12.961-7.17 17.44l0.002-0.002z" />
<glyph unicode="&#xe910;" glyph-name="chevron-down" d="M992.793 727.744l-8.216 8.389c-19.103 19.664-45.796 31.866-75.339 31.866s-56.236-12.202-75.315-31.841l-0.024-0.025-321.899-328.696-321.899 328.697c-19.103 19.664-45.796 31.866-75.339 31.866s-56.236-12.202-75.315-31.841l-0.024-0.025-8.216-8.389c-19.304-19.862-31.207-47.006-31.207-76.931s11.903-57.069 31.232-76.957l-0.025 0.026 405.454-414.017c19.103-19.664 45.796-31.866 75.339-31.866s56.236 12.202 75.315 31.841l0.024 0.025 405.453 414.017c19.304 19.862 31.207 47.006 31.207 76.93s-11.903 57.068-31.232 76.956l0.025-0.026z" />
<glyph unicode="&#xe911;" glyph-name="chevron-down-light" d="M1014.626 678.206l-50.254 48.71c-5.866 5.623-13.842 9.084-22.626 9.084s-16.76-3.462-22.638-9.095l0.012 0.011-407.119-394.609-407.119 394.609c-5.866 5.623-13.842 9.084-22.626 9.084s-16.76-3.462-22.638-9.095l0.012 0.011-50.254-48.71c-5.781-5.536-9.374-13.316-9.374-21.936s3.593-16.4 9.363-21.926l0.011-0.010 480-465.25c5.866-5.623 13.842-9.084 22.626-9.084s16.76 3.462 22.638 9.095l-0.012-0.011 479.999 465.251c5.781 5.536 9.374 13.316 9.374 21.936s-3.593 16.4-9.363 21.925l-0.011 0.010z" />
<glyph unicode="&#xe912;" glyph-name="chevron-left" d="M791.744 928.793l8.389-8.216c19.664-19.103 31.866-45.796 31.866-75.339s-12.202-56.236-31.841-75.315l-0.025-0.024-328.696-321.899 328.697-321.899c19.664-19.103 31.866-45.796 31.866-75.339s-12.202-56.236-31.841-75.315l-0.025-0.024-8.389-8.216c-19.862-19.304-47.006-31.207-76.931-31.207s-57.069 11.903-76.957 31.232l0.026-0.025-414.017 405.455c-19.664 19.103-31.866 45.796-31.866 75.339s12.202 56.236 31.841 75.315l0.025 0.024 414.017 405.453c19.862 19.304 47.006 31.207 76.93 31.207s57.068-11.903 76.956-31.232l-0.026 0.025z" />
<glyph unicode="&#xe913;" glyph-name="chevron-left-light" d="M742.206 950.626l48.71-50.254c5.623-5.866 9.084-13.842 9.084-22.626s-3.462-16.76-9.095-22.638l0.011 0.012-394.609-407.119 394.61-407.119c5.623-5.866 9.084-13.842 9.084-22.626s-3.462-16.76-9.095-22.638l0.011 0.012-48.71-50.254c-5.536-5.781-13.316-9.374-21.936-9.374s-16.4 3.593-21.926 9.363l-0.010 0.011-465.251 480c-5.623 5.866-9.084 13.842-9.084 22.626s3.462 16.76 9.095 22.638l-0.011-0.012 465.251 479.999c5.536 5.781 13.316 9.374 21.936 9.374s16.4-3.593 21.925-9.363l0.010-0.011z" />
<glyph unicode="&#xe914;" glyph-name="chevron-right" d="M232.256 928.793l-8.389-8.216c-19.664-19.103-31.866-45.796-31.866-75.339s12.202-56.236 31.841-75.315l0.025-0.024 328.696-321.899-328.697-321.899c-19.664-19.103-31.866-45.796-31.866-75.339s12.202-56.236 31.841-75.315l0.025-0.024 8.389-8.216c19.862-19.304 47.006-31.207 76.931-31.207s57.069 11.903 76.957 31.232l-0.026-0.025 414.017 405.454c19.664 19.103 31.866 45.796 31.866 75.339s-12.202 56.236-31.841 75.315l-0.025 0.024-414.017 405.453c-19.862 19.304-47.006 31.207-76.93 31.207s-57.068-11.903-76.956-31.232l0.026 0.025z" />
<glyph unicode="&#xe915;" glyph-name="chevron-right-light" d="M281.794 950.626l-48.71-50.254c-5.623-5.866-9.084-13.842-9.084-22.626s3.462-16.76 9.095-22.638l-0.011 0.012 394.609-407.119-394.609-407.119c-5.623-5.866-9.084-13.842-9.084-22.626s3.462-16.76 9.095-22.638l-0.011 0.012 48.71-50.254c5.536-5.781 13.316-9.374 21.936-9.374s16.4 3.593 21.926 9.363l0.010 0.011 465.25 480c5.623 5.866 9.084 13.842 9.084 22.626s-3.462 16.76-9.095 22.638l0.011-0.012-465.251 479.999c-5.536 5.781-13.316 9.374-21.936 9.374s-16.4-3.593-21.925-9.363l-0.010-0.011z" />
<glyph unicode="&#xe916;" glyph-name="chevron-up" d="M992.793 168.256l-8.216-8.389c-19.103-19.664-45.796-31.866-75.339-31.866s-56.236 12.202-75.315 31.841l-0.024 0.025-321.899 328.696-321.899-328.697c-19.103-19.664-45.796-31.866-75.339-31.866s-56.236 12.202-75.315 31.841l-0.024 0.025-8.216 8.389c-19.304 19.862-31.207 47.006-31.207 76.931s11.903 57.069 31.232 76.957l-0.025-0.026 405.454 414.017c19.103 19.664 45.796 31.866 75.339 31.866s56.236-12.202 75.315-31.841l0.024-0.025 405.453-414.017c19.304-19.862 31.207-47.006 31.207-76.93s-11.903-57.068-31.232-76.956l0.025 0.026z" />
<glyph unicode="&#xe917;" glyph-name="chevron-up-light" d="M1014.626 217.794l-50.254-48.71c-5.866-5.623-13.842-9.084-22.626-9.084s-16.76 3.462-22.638 9.095l0.012-0.011-407.119 394.609-407.119-394.609c-5.866-5.623-13.842-9.084-22.626-9.084s-16.76 3.462-22.638 9.095l0.012-0.011-50.254 48.71c-5.781 5.536-9.374 13.316-9.374 21.936s3.593 16.4 9.363 21.926l0.011 0.010 480 465.25c5.866 5.623 13.842 9.084 22.626 9.084s16.76-3.462 22.638-9.095l-0.012 0.011 479.999-465.251c5.781-5.536 9.374-13.316 9.374-21.936s-3.593-16.4-9.363-21.925l-0.011-0.010z" />
<glyph unicode="&#xe918;" glyph-name="circle" d="M1024 448c0-282.77-229.23-512-512-512s-512 229.23-512 512c0 282.77 229.23 512 512 512v0c282.77 0 512-229.23 512-512v0z" />
<glyph unicode="&#xe919;" glyph-name="credit-card" d="M912 768h-800c-61.856 0-112-50.144-112-112v0-416c0-61.856 50.144-112 112-112v0h800c61.856 0 112 50.144 112 112v0 416c0 61.856-50.144 112-112 112v0zM112 704h800c26.497-0.031 47.97-21.503 48-47.997v-104.003h-896v104c0.031 26.497 21.503 47.969 47.997 48h0.003zM912 192h-800c-26.497 0.031-47.969 21.503-48 47.997v232.003h896v-232c-0.031-26.497-21.503-47.969-47.997-48h-0.003z" />
<glyph unicode="&#xe91a;" glyph-name="draw-boundary" d="M528.215 943.785c-251.148-0.041-458.653-186.84-491.204-429.078l-0.28-2.546c-22.098-12.804-36.723-36.341-36.723-63.294 0-40.265 32.641-72.906 72.906-72.906s72.906 32.641 72.906 72.906c0 23.658-11.269 44.684-28.732 58.004l-0.177 0.13c29.844 202.77 202.626 356.659 411.351 356.659 114.767 0 218.667-46.525 293.868-121.744l0.001-0.001c75.22-75.22 121.744-179.135 121.744-293.916 0-229.563-186.097-415.66-415.66-415.66 0 0-0.001 0-0.001 0v0l-0.234 0.006v-80.124l0.234-0.006c273.815 0 495.785 221.971 495.785 495.785s-221.971 495.785-495.785 495.785v0zM556.040 143.534l4.326-5.163q117.284 45.113 234.59 90.236c3.499 19.99-19.251 42.762-19.845 67.732-0.522 21.912 6.637 49.648 4.713 75.128-4.509 59.737-45.229 253.709-124.448 193.62-11.076 14.929-28.645 24.499-48.45 24.499-17.809 0-33.81-7.738-44.825-20.036l-0.050-0.057c-23.838 9.815-52.657 21.459-82.691-5.138l-1.982-0.781c-27.557 72.929-56.952 199.519-130.867 175.063-13.7-15.178-26.066-23.682-25.924-44.57q48.755-141.032 97.52-282.091c-40.784 9.191-72.632 50.845-121.372 11.661-5.212-34.314 25.105-60.551 44.293-83.275 25.552-31.895 61.716-49.663 92.592-77.781 35.318-22.513 61.962-52.835 100.899-70.292q10.759-24.374 21.52-48.755z" />
<glyph unicode="&#xe91b;" glyph-name="edit" d="M715.733 755.289l160.356-160.356c3.131-3.143 5.067-7.479 5.067-12.267s-1.936-9.124-5.067-12.267l-388.266-388.266-164.978-18.311c-1.159-0.138-2.501-0.216-3.862-0.216-19.096 0-34.577 15.481-34.577 34.577 0 1.361 0.079 2.703 0.231 4.022l-0.015-0.161 18.311 164.978 388.267 388.267c3.143 3.131 7.479 5.067 12.267 5.067s9.124-1.936 12.267-5.067l-0.001 0.001zM1003.733 796l-86.756 86.756c-12.572 12.524-29.915 20.267-49.067 20.267s-36.494-7.743-49.069-20.269l-62.931-62.931c-3.131-3.143-5.067-7.479-5.067-12.267s1.936-9.124 5.067-12.267l160.355-160.355c3.143-3.131 7.479-5.067 12.267-5.067s9.124 1.936 12.267 5.067l62.932 62.932c12.524 12.572 20.267 29.915 20.267 49.067s-7.743 36.494-20.269 49.069l0.002-0.002zM682.667 287.733v-180.978h-568.889v568.889h408.533c5.887 0.045 11.213 2.411 15.115 6.226l71.107 71.107c3.876 3.863 6.274 9.207 6.274 15.111 0 11.782-9.551 21.334-21.334 21.334-0.018 0-0.036 0-0.055 0h-508.086c-47.123-0.013-85.321-38.21-85.333-85.332v-625.779c0.013-47.123 38.21-85.321 85.332-85.333h625.779c47.123 0.013 85.321 38.21 85.333 85.332v280.534c-0.023 11.786-9.583 21.331-21.372 21.331-5.882 0-11.209-2.376-15.074-6.221l-71.11-71.11c-3.811-3.899-6.177-9.224-6.222-15.102v-0.009z" />
<glyph unicode="&#xe91c;" glyph-name="eng-helmet" d="M960 384c-0.036 159.532-97.348 296.327-235.846 354.299l-2.534 0.941-81.62-163.24v224c0 17.673-14.327 32-32 32v0h-192c-17.673 0-32-14.327-32-32v0-224l-81.62 163.24c-141.032-58.913-238.344-195.708-238.38-355.235v-128.005h896zM992 192h-960c-17.673 0-32-14.327-32-32v0-64c0-17.673 14.327-32 32-32v0h960c17.673 0 32 14.327 32 32v0 64c0 17.673-14.327 32-32 32v0z" />
<glyph unicode="&#xe91d;" glyph-name="envelope" d="M512 392.661l-512 432h1024zM512 330.4l-103.266 87.131-408.734-344.87h1024l-408.734 344.87zM653.759 448l370.242-308.082-0.001 616.165zM0 756.083v-616.165l370.241 308.082z" />
<glyph unicode="&#xe91e;" glyph-name="eye" d="M512 664c168.698 0 322.083-137.625 395.744-215.996-73.71-78.422-227.075-216.004-395.744-216.004-168.698 0-322.083 137.625-395.744 215.996 73.71 78.422 227.075 216.004 395.744 216.004zM512 752c-282.77 0-512-304-512-304s229.23-304 512-304 512 304 512 304-229.23 304-512 304zM512 592c-0.029 0-0.063 0-0.097 0-15.164 0-29.781-2.345-43.507-6.692l1.020 0.279c25.307-11.508 42.585-36.569 42.585-65.666 0-39.721-32.2-71.921-71.921-71.921-29.097 0-54.158 17.279-65.482 42.135l-0.184 0.45c-4.088-12.74-6.445-27.395-6.445-42.601 0-79.538 64.478-144.016 144.016-144.016s144.016 64.478 144.016 144.016c0 79.532-64.469 144.007-143.999 144.016h-0.001z" />
<glyph unicode="&#xe91f;" glyph-name="eye-slash" d="M584.398 240.412l71.234-71.234c-42.721-15.544-92.034-24.733-143.434-25.176l-0.199-0.001c-282.77 0-512 304-512 304 56.117 69.967 119.316 130.744 189.475 182.651l2.743 1.939 62.945-62.944c-51.796-37.156-97.242-77.126-138.429-121.133l-0.479-0.517c73.662-78.371 227.047-215.996 395.744-215.996 25.76 0.187 50.711 3.243 74.674 8.862l-2.276-0.45zM520.387 304.423l-151.77 151.769c-0.156-2.746-0.617-5.407-0.617-8.192 0-79.529 64.471-144 144-144v0c2.832 0 5.596 0.262 8.387 0.423zM782.112 230.099l126.41-126.41c2.997-2.998 4.85-7.139 4.85-11.712s-1.853-8.715-4.85-11.712l-23.426-23.425c-2.997-2.998-7.138-4.852-11.712-4.852s-8.715 1.854-11.712 4.852l-776.598 776.597c-2.998 2.998-4.852 7.139-4.852 11.713s1.854 8.715 4.852 11.713l23.426 23.425c2.997 2.998 7.138 4.852 11.712 4.852s8.715-1.854 11.712-4.852l177.42-177.421c59.084 29.861 128.622 47.868 202.241 49.129l0.415 0.006c282.77 0 512-304 512-304-68.298-85.139-148.166-157.377-237.996-215.54l-3.892-2.361zM907.744 448.005c-73.662 78.37-227.047 215.995-395.744 215.995-49.148-0.716-95.717-10.937-138.217-28.9l2.42 0.908 133.441-133.443c1.435 5.213 2.29 11.21 2.355 17.397v0.039c-0.029 29.067-17.301 54.092-42.136 65.403l-0.45 0.184c12.792 4.131 27.51 6.512 42.784 6.512 79.42 0 143.802-64.382 143.802-143.802 0-26.71-7.282-51.719-19.969-73.15l0.365 0.667 81.666-81.665c72.484 43.8 134.854 94.771 189.18 153.31l0.501 0.546z" />
<glyph unicode="&#xe920;" glyph-name="facebook" d="M750.28 384l28.44 185.32h-177.82v120.26c0 50.7 24.84 100.12 104.48 100.12h80.84v157.78c-42.656 7.262-92.255 11.787-142.774 12.512l-0.726 0.008c-146.44 0-242.16-88.76-242.16-249.44v-141.24h-162.78v-185.32h162.78v-448h200.34v448z" />
<glyph unicode="&#xe921;" glyph-name="facebook-square" d="M914.286 960h-804.572c-60.594 0-109.714-49.121-109.714-109.714v0-804.572c0-60.594 49.121-109.714 109.714-109.714h313.714v348.137h-144v163.863h144v124.891c0 142.057 84.571 220.526 214.103 220.526 45.317-0.647 89.18-4.646 131.989-11.761l-5.087 0.698v-139.428h-71.474c-70.423 0-92.389-43.703-92.389-88.526v-106.4h157.212l-25.143-163.863h-132.069v-348.137h313.714c60.594 0 109.714 49.121 109.714 109.714v0 804.572c0 60.594-49.121 109.714-109.714 109.714v0z" />
<glyph unicode="&#xe922;" glyph-name="female" d="M512 960c0.003 0 0.007 0 0.011 0 70.692 0 128-57.308 128-128s-57.308-128-128-128c-70.692 0-128 57.308-128 128v0c0 0.002 0 0.003 0 0.005 0 70.688 57.302 127.991 127.988 127.995v0zM750.544 251.642l-95.992 384c-5.391 21.047-24.188 36.357-46.561 36.358h-22.718c-21.503-10.106-46.699-16.004-73.274-16.004s-51.771 5.898-74.353 16.457l1.079-0.453h-22.718c-22.374-0.001-41.171-15.311-46.489-36.025l-0.072-0.333-95.992-384c-0.908-3.49-1.429-7.497-1.429-11.626 0-26.51 21.483-48.002 47.989-48.016h111.992v-208c0-0.001 0-0.002 0-0.003 0-26.508 21.488-47.996 47.996-47.997h63.995c26.508 0.001 47.996 21.49 47.996 47.997 0 0.001 0 0.002 0 0.003v0 208h111.99c26.507 0.016 47.99 21.508 47.99 48.017 0 4.128-0.521 8.135-1.501 11.957l0.072-0.333z" />
<glyph unicode="&#xe923;" glyph-name="female-square" d="M912 960h-800c-61.856 0-112-50.144-112-112v0-800c0-61.856 50.144-112 112-112v0h800c61.856 0 112 50.144 112 112v0 800c0 61.856-50.144 112-112 112v0zM512 832c0.002 0 0.005 0 0.008 0 53.019 0 96-42.981 96-96s-42.981-96-96-96c-53.019 0-96 42.981-96 96v0c0 0.001 0 0.003 0 0.004 0 53.016 42.977 95.994 95.992 95.996v0zM655.987 256h-83.993v-156c0 0 0-0.001 0-0.001 0-19.881-16.116-35.998-35.997-35.999h-47.995c-19.881 0.001-35.997 16.118-35.997 35.999 0 0 0 0.001 0 0.001v0 156h-83.993c-19.88 0.011-35.992 16.13-35.992 36.012 0 3.096 0.391 6.102 1.126 8.969l-0.054-0.249 71.993 288c4.043 15.786 18.142 27.268 34.922 27.268h17.038c16.127-7.579 35.025-12.003 54.956-12.003s38.828 4.424 55.765 12.343l-0.809-0.34h17.038c16.78-0.001 30.879-11.483 34.868-27.019l0.054-0.25 71.993-288c0.681-2.617 1.071-5.622 1.071-8.719 0-19.882-16.112-36.001-35.991-36.013h-0.001z" />
<glyph unicode="&#xe924;" glyph-name="file-excel" d="M867.8 764.038l-167.8 167.767c-17.344 17.381-41.31 28.148-67.791 28.195h-408.209c-53.011-0.179-95.924-43.156-96-96.174v-831.844c0.020-53.008 42.991-95.972 95.999-95.981h576.001c53.009 0.009 95.98 42.974 96 95.979v664.072c-0.045 26.55-10.812 50.576-28.201 67.988l0.001-0.001zM792.2 703.85h-152.2v152.17zM224 31.981v831.837h320v-207.959c0-0.033 0-0.072 0-0.111 0-26.443 21.437-47.88 47.88-47.88 0.042 0 0.084 0 0.126 0h207.994v-575.888zM648 511.888h-57.6c-0.005 0-0.010 0-0.016 0-9.039 0-16.901-5.045-20.922-12.472l-0.062-0.126c-18.625-31.537-37.775-69.443-54.602-108.584l-2.598-6.794c-27.8 58.189-13.8 34.593-57.2 115.377-4.163 7.56-12.078 12.598-21.17 12.598-0.011 0-0.021 0-0.032 0h-57.798c-0.017 0-0.037 0-0.057 0-13.24 0-23.974-10.733-23.974-23.974 0-4.427 1.2-8.573 3.292-12.132l-0.061 0.112 92.6-155.97-92.6-155.97c-2.060-3.46-3.278-7.63-3.278-12.084 0-13.205 10.705-23.91 23.91-23.91 0.059 0 0.118 0 0.178 0.001h57.791c0.005 0 0.010 0 0.016 0 9.039 0 16.901 5.044 20.922 12.472l0.062 0.126c18.651 31.562 37.802 69.469 54.617 108.616l2.583 6.761c29.8-60.388 11.8-31.794 57.2-115.377 4.163-7.56 12.078-12.597 21.17-12.597 0.011 0 0.021 0 0.032 0h57.598c0.017 0 0.037 0 0.057 0 13.24 0 23.974 10.733 23.974 23.974 0 4.427-1.2 8.573-3.292 12.132l0.061-0.112-92.8 155.969c1.4 2.2 60.6 100.98 92.6 155.97 2.070 3.465 3.294 7.642 3.294 12.105 0 13.193-10.695 23.888-23.888 23.888-0.002 0-0.005 0-0.007 0v0z" />
<glyph unicode="&#xe925;" glyph-name="file-pdf" d="M867.8 764.038l-167.8 167.767c-17.344 17.381-41.31 28.148-67.791 28.195h-408.209c-53.011-0.179-95.924-43.156-96-96.174v-831.844c0.020-53.008 42.991-95.972 95.999-95.981h576.001c53.009 0.009 95.98 42.974 96 95.979v664.072c-0.045 26.55-10.812 50.576-28.201 67.988l0.001-0.001zM792.2 703.85h-152.2v152.17zM224 31.981v831.837h320v-207.959c0-0.033 0-0.072 0-0.111 0-26.443 21.437-47.88 47.88-47.88 0.042 0 0.084 0 0.126 0h207.994v-575.888zM724.4 319.325c-24.4 23.995-94 17.397-128.8 12.997-34.286 21.32-60.178 53.358-73.236 91.362l-0.364 1.219c7.8 32.194 20.2 81.184 10.8 111.978-8.4 52.39-75.6 47.191-85.2 11.798-8.8-32.194-0.8-76.985 14-134.174-25.205-60.745-48.934-109.652-74.991-157.1l4.191 8.329c-40-20.596-94-52.39-102-92.382-6.6-31.594 52-110.378 152.2 62.388 37.431 14.625 83.182 28.457 130.192 38.953l6.608 1.239c32.136-18.588 70.14-30.806 110.691-33.937l0.909-0.056c51 0 56 56.389 35 77.385zM328.2 163.756c10.2 27.395 49 58.988 60.8 69.986-38-60.588-60.8-71.386-60.8-69.987zM491.4 544.881c14.8 0 13.4-64.188 3.6-81.584-8.8 27.794-8.6 81.584-3.6 81.584zM442.6 271.735c17.121 30.468 33.764 66.535 47.636 103.947l1.764 5.431c15.274-28.236 35.48-51.887 59.692-70.608l0.508-0.378c-42.474-10.999-78.941-24.124-113.815-40.126l4.215 1.733zM705.8 281.733s-10-11.998-74.6 15.597c70.2 5.198 81.8-10.798 74.6-15.597z" />
<glyph unicode="&#xe926;" glyph-name="filter" d="M975.952 960h-927.896c-26.492-0.050-47.948-21.537-47.948-48.036 0-13.235 5.352-25.219 14.010-33.907l369.883-369.939v-412.118c0.001-16.203 8.028-30.531 20.324-39.223l0.15-0.101 160-111.96c7.666-5.41 17.202-8.647 27.494-8.647 26.506 0 47.998 21.47 48.032 47.968v524.081l369.894 369.94c8.656 8.687 14.008 20.671 14.008 33.905 0 26.499-21.457 47.987-47.945 48.037h-0.005z" />
<glyph unicode="&#xe927;" glyph-name="gear" d="M989.616 324.955l-87.949 50.787c4.235 21.787 6.658 46.843 6.658 72.464s-2.423 50.676-7.052 74.949l0.394-2.485 87.949 50.787c7.496 4.398 12.45 12.417 12.45 21.593 0 2.608-0.4 5.123-1.143 7.487l0.048-0.177c-24.175 75.918-62.898 141.232-113.239 195.642l0.311-0.34c-4.554 4.927-11.049 8.002-18.263 8.002-4.521 0-8.76-1.208-12.411-3.318l0.12 0.064-87.948-50.787c-35.462 30.66-77.164 55.274-122.802 71.614l-2.72 0.85v101.367c0 0 0 0.001 0 0.001 0 11.773-8.225 21.625-19.242 24.122l-0.166 0.032c-33.875 7.875-72.771 12.389-112.722 12.389s-78.848-4.514-116.209-13.060l3.486 0.671c-11.182-2.53-19.406-12.381-19.406-24.153 0-0.001 0-0.001 0-0.002v0-101.574c-48.294-17.481-89.953-42.058-126.076-72.926l0.553 0.462-87.742 50.787c-3.539 2.098-7.801 3.338-12.353 3.338-7.211 0-13.695-3.111-18.183-8.065l-0.019-0.021c-50.118-54.022-88.858-119.355-111.931-191.683l-0.997-3.619c-0.726-2.221-1.144-4.776-1.144-7.43 0-9.154 4.981-17.144 12.38-21.41l0.12-0.064 87.947-50.787c-4.235-21.787-6.658-46.843-6.658-72.464s2.423-50.676 7.052-74.949l-0.394 2.485-87.948-50.787c-7.496-4.398-12.45-12.417-12.45-21.593 0-2.608 0.4-5.123 1.143-7.487l-0.048 0.177c24.175-75.918 62.899-141.233 113.239-195.643l-0.311 0.34c4.554-4.927 11.049-8.002 18.263-8.002 4.521 0 8.76 1.208 12.411 3.318l-0.12-0.064 87.948 50.787c35.462-30.66 77.164-55.274 122.803-71.614l2.72-0.85v-101.574c0 0 0-0.001 0-0.001 0-11.772 8.224-21.624 19.241-24.122l0.166-0.032c33.874-7.875 72.771-12.389 112.722-12.389s78.848 4.514 116.208 13.060l-3.486-0.671c11.182 2.53 19.406 12.381 19.406 24.154 0 0 0 0.001 0 0.001v0 101.574c48.294 17.481 89.954 42.058 126.076 72.926l-0.554-0.462 87.948-50.787c3.539-2.098 7.801-3.337 12.353-3.337 7.211 0 13.695 3.111 18.183 8.065l0.019 0.021c50.118 54.022 88.858 119.355 111.932 191.683l0.997 3.619c0.645 2.135 1.017 4.589 1.017 7.129 0 9.318-4.998 17.468-12.46 21.916l-0.117 0.065zM511.888 283.046c0 0 0 0 0 0-91.216 0-165.161 73.945-165.161 165.161s73.945 165.161 165.161 165.161c91.216 0 165.161-73.945 165.161-165.161v0c-0.125-91.165-73.995-165.036-165.149-165.161h-0.012z" />
<glyph unicode="&#xe928;" glyph-name="globe" d="M694.85 646.194c-29.942 184.361-100.562 313.806-182.747 313.806s-152.805-129.445-182.747-313.806zM313.87 448c0.018-46.561 2.493-92.52 7.301-137.783l-0.487 5.654h382.632c4.322 39.609 6.796 85.568 6.814 132.102v0.027c-0.018 46.561-2.493 92.52-7.301 137.783l0.487-5.654h-382.632c-4.322-39.609-6.796-85.568-6.814-132.102v-0.027zM984.353 646.194c-60.457 140.766-177.964 247.173-322.624 291.38l-3.635 0.956c50.384-69.781 85.075-174.864 103.247-292.336zM365.905 938.53c-148.235-45.172-265.677-151.582-324.777-289.002l-1.275-3.334h223.013c17.965 117.471 52.656 222.555 103.040 292.336zM1006.447 580.13h-236.847c4.336-43.355 6.814-87.742 6.814-132.129s-2.478-88.775-6.814-132.13h236.642c11.191 39.599 17.667 85.088 17.758 132.076v0.053c-0.128 47.039-6.526 92.53-18.401 135.753l0.849-3.624zM247.792 448c0 44.387 2.478 88.774 6.814 132.129h-236.848c-11.275-39.616-17.758-85.116-17.758-132.129s6.483-92.513 18.604-135.652l-0.846 3.523h236.642c-4.13 43.355-6.608 87.742-6.608 132.129zM329.357 249.806c29.941-184.361 100.562-313.806 182.746-313.806s152.805 129.445 182.747 313.806zM658.301-42.53c148.261 45.227 265.744 151.61 324.98 289.002l1.279 3.334h-223.013c-18.171-117.47-52.862-222.555-103.247-292.336zM39.853 249.806c60.458-140.766 177.964-247.172 322.624-291.38l3.635-0.955c-50.384 69.781-85.075 174.864-103.247 292.336z" />
<glyph unicode="&#xe929;" glyph-name="graduation-cap" d="M995.74 619.33l-446.306 142.832c-11.184 3.702-24.059 5.837-37.432 5.837s-26.248-2.135-38.301-6.084l0.869 0.246-446.322-142.832c-16.478-5.069-28.248-20.155-28.248-37.991s11.77-32.923 27.967-37.917l0.281-0.075 77.808-24.9c-16.9-21.382-27.494-48.437-28.601-77.92l-0.007-0.246c-15.808-9.254-26.256-26.152-26.256-45.491 0-17.634 8.688-33.239 22.017-42.767l0.159-0.108-40.848-191.465c-0.447-1.819-0.704-3.907-0.704-6.055 0-14.328 11.412-25.99 25.642-26.394l0.037-0.001h89.776c14.275 0.397 25.695 12.064 25.695 26.398 0 2.147-0.256 4.234-0.74 6.233l0.037-0.18-40.848 191.465c13.487 9.614 22.176 25.202 22.176 42.819 0 18.829-9.927 35.34-24.832 44.585l-0.224 0.129c1.1 25.22 13.804 47.26 32.871 61.040l0.233 0.16 312.913-100.149c11.185-3.698 24.059-5.83 37.432-5.83s26.247 2.133 38.302 6.077l-0.87-0.246 446.322 142.832c16.485 5.067 28.261 20.158 28.261 38s-11.776 32.933-27.98 37.925l-0.281 0.075zM564.458 349.515c-15.678-5.191-33.725-8.185-52.472-8.185s-36.794 2.994-53.69 8.531l1.218-0.345-232.032 74.25-22.688-189.099c0-58.916 137.536-106.666 307.201-106.666s307.2 47.75 307.2 106.666l-22.688 189.116z" />
<glyph unicode="&#xe92a;" glyph-name="heart" d="M808.826 950.903c-21.232 5.553-45.606 8.742-70.725 8.742-91.1 0-172.405-41.938-225.662-107.56l-0.424-0.539c-53.56 66.373-134.901 108.472-226.075 108.472-24.962 0-49.186-3.156-72.297-9.090l2.009 0.438c-131-32.238-215.652-146.376-215.652-290.779 0-187.098 172.102-367.436 390-595.762 30.782-32.26 62.493-65.488 94.739-99.82l27.261-29.005 27.261 29.005c32.188 34.261 63.84 67.426 94.565 99.614 217.985 228.41 390.174 408.821 390.174 595.968 0 144.189-84.464 258.149-215.174 290.316z" />
<glyph unicode="&#xe92b;" glyph-name="heart-light" d="M512-64l-27.261 29.004c-32.246 34.333-63.957 67.561-94.739 99.821-217.899 228.325-390 408.663-390 595.761 0 144.403 84.652 258.541 215.652 290.779 21.102 5.497 45.326 8.652 70.288 8.652 91.174 0 172.514-42.1 225.643-107.921l0.431-0.552c53.681 66.162 134.986 108.099 226.086 108.099 25.119 0 49.494-3.188 72.741-9.183l-2.016 0.441c130.71-32.167 215.174-146.127 215.174-290.316 0-187.148-172.188-367.557-390.174-595.968-30.725-32.188-62.377-65.353-94.565-99.614zM284.652 886.697c-0.092 0-0.202 0-0.311 0-17.983 0-35.447-2.221-52.133-6.403l1.473 0.313c-77.101-18.968-159.478-86.736-159.478-220.020 0-158.236 163.246-329.3 369.913-545.865q33.283-34.884 67.884-71.336 34.435 36.37 67.71 71.136c206.768 216.651 370.087 387.772 370.087 546.064 0 133.035-82.13 200.646-158.986 219.564-15.587 3.97-33.481 6.249-51.907 6.249-84.019 0-156.973-47.375-193.606-116.87l-0.574-1.194-32.725-60.209-32.725 60.217c-37.087 70.843-110.078 118.355-194.166 118.355-0.161 0-0.321 0-0.482-0.001h0.025z" />
<glyph unicode="&#xe92c;" glyph-name="home" d="M498.424 640.459l-327.743-271.191v-292.693c0-0.020 0-0.043 0-0.066 0-15.722 12.726-28.471 28.439-28.509h0.004l199.202 0.518c15.655 0.119 28.3 12.837 28.3 28.509 0 0.023 0 0.046 0 0.069v-0.004 170.93c0 0.020 0 0.043 0 0.066 0 15.721 12.726 28.471 28.439 28.508h113.773c15.716-0.038 28.442-12.787 28.442-28.509 0-0.023 0-0.046 0-0.070v0.004-170.805c0-0.046 0-0.1 0-0.155 0-15.691 12.676-28.421 28.346-28.509h0.097l199.131-0.554c15.716 0.038 28.442 12.787 28.442 28.509 0 0.023 0 0.046 0 0.070v-0.004 292.89l-327.672 270.995c-3.679 3.002-8.427 4.821-13.599 4.821s-9.92-1.819-13.638-4.851l0.039 0.031zM1016.125 456.135l-148.61 123.067v247.367c0 0.015 0 0.032 0 0.049 0 11.791-9.544 21.353-21.329 21.382h-99.551c-11.787-0.028-21.332-9.59-21.332-21.382 0-0.017 0-0.035 0-0.052v0.003-129.675l-159.152 131.55c-14.598 12.153-33.547 19.53-54.218 19.53s-39.619-7.377-54.356-19.642l0.138 0.111-449.974-372.309c-4.745-3.971-7.742-9.896-7.742-16.521 0-5.2 1.846-9.969 4.919-13.687l-0.029 0.036 0.008-0.010 45.33-55.363c3.929-4.788 9.847-7.818 16.473-7.818 5.166 0 9.902 1.842 13.587 4.906v0.001l418.136 346.003c3.679 3.002 8.427 4.821 13.599 4.821s9.92-1.819 13.638-4.852l-0.039 0.031 418.154-346.003c3.658-3.061 8.413-4.92 13.602-4.92 6.603 0 12.503 3.010 16.403 7.732l0.029 0.036 0.008 0.010 45.33 55.363c3.021 3.674 4.852 8.426 4.852 13.605 0 6.646-3.015 12.587-7.753 16.531l-0.035 0.028-0.087 0.071z" />
<glyph unicode="&#xe92d;" glyph-name="h-square" d="M1024 850.286v-804.572c0 0 0-0.001 0-0.001 0-60.593-49.12-109.713-109.713-109.713 0 0-0.001 0-0.001 0h-804.571c0 0-0.001 0-0.001 0-60.593 0-109.713 49.12-109.713 109.713 0 0 0 0.001 0 0.001v0 804.572c0 0 0 0.001 0 0.001 0 60.593 49.12 109.713 109.713 109.713 0 0 0.001 0 0.001 0h804.571c0 0 0.001 0 0.001 0 60.593 0 109.713-49.12 109.713-109.713 0 0 0-0.001 0-0.001v0zM768 740.571h-73.143c0 0-0.001 0-0.001 0-20.197 0-36.57-16.373-36.57-36.57 0 0 0-0.001 0-0.001v0-182.857h-292.572v182.857c0 0 0 0.001 0 0.001 0 20.197-16.373 36.57-36.57 36.57 0 0-0.001 0-0.001 0h-73.143c0 0-0.001 0-0.001 0-20.197 0-36.57-16.373-36.57-36.57 0 0 0-0.001 0-0.001v0-512c0 0 0-0.001 0-0.001 0-20.197 16.373-36.57 36.57-36.57 0 0 0.001 0 0.001 0h73.143c0 0 0.001 0 0.001 0 20.197 0 36.57 16.373 36.57 36.57 0 0 0 0.001 0 0.001v0 182.857h292.572v-182.857c0 0 0-0.001 0-0.001 0-20.197 16.373-36.57 36.57-36.57 0 0 0.001 0 0.001 0h73.143c0 0 0.001 0 0.001 0 20.197 0 36.57 16.373 36.57 36.57 0 0 0 0.001 0 0.001v0 512c0 0 0 0.001 0 0.001 0 20.197-16.373 36.57-36.57 36.57 0 0-0.001 0-0.001 0v0z" />
<glyph unicode="&#xe92e;" glyph-name="id-card" d="M938.667 846.222h-853.333c-47.123-0.013-85.321-38.21-85.333-85.332v-28.445h1024v28.444c-0.013 47.123-38.21 85.321-85.332 85.333h-0.001zM0 135.111c0.013-47.123 38.21-85.321 85.332-85.333h853.335c47.123 0.013 85.321 38.21 85.333 85.332v540.445h-1024zM625.778 547.556c0.024 7.845 6.377 14.199 14.22 14.222h256.002c7.845-0.024 14.199-6.377 14.222-14.22v-28.446c-0.024-7.845-6.377-14.198-14.22-14.222h-256.002c-7.845 0.024-14.198 6.377-14.222 14.22v0.002zM625.778 433.778c0.024 7.845 6.377 14.199 14.22 14.222h256.002c7.845-0.024 14.199-6.377 14.222-14.22v-28.446c-0.024-7.845-6.377-14.198-14.22-14.222h-256.002c-7.845 0.024-14.198 6.377-14.222 14.22v0.002zM625.778 320c0.024 7.845 6.377 14.199 14.22 14.222h256.002c7.845-0.024 14.199-6.377 14.222-14.22v-28.446c-0.024-7.845-6.377-14.199-14.22-14.222h-256.002c-7.845 0.024-14.199 6.377-14.222 14.22v0.002zM312.889 561.778c62.838 0 113.778-50.94 113.778-113.778s-50.94-113.778-113.778-113.778c-62.838 0-113.778 50.94-113.778 113.778 0 0 0 0 0 0v0c0.060 62.814 50.964 113.718 113.772 113.778h0.006zM119.289 198.756c15.345 45.989 58 78.557 108.264 78.578h14.58c20.893-8.993 45.214-14.222 70.756-14.222s49.863 5.23 71.95 14.676l-1.194-0.454h14.578c50.267-0.020 92.921-32.589 108.033-77.774l0.233-0.804c0.6-2.163 0.944-4.646 0.944-7.21 0-15.463-12.535-27.998-27.998-27.998-0.239 0-0.477 0.003-0.714 0.009l0.035-0.001h-331.733c-0.179-0.004-0.389-0.006-0.6-0.006-15.497 0-28.059 12.562-28.059 28.059 0 2.541 0.338 5.003 0.971 7.344l-0.045-0.196z" />
<glyph unicode="&#xe92f;" glyph-name="image" d="M928 832h-832c-53.019 0-96-42.981-96-96v0-576c0-53.019 42.981-96 96-96v0h832c53.019 0 96 42.981 96 96v0 576c0 53.019-42.981 96-96 96v0zM916 160h-808c-6.627 0-12 5.373-12 12v0 552c0 6.627 5.373 12 12 12v0h808c6.627 0 12-5.373 12-12v0-552c0-6.627-5.373-12-12-12v0zM256 656c-44.183 0-80-35.817-80-80s35.817-80 80-80c44.183 0 80 35.817 80 80v0c-0.001 44.183-35.817 79.999-80 80v0zM192 256h640v160l-175.030 175.030c-4.343 4.343-10.343 7.029-16.971 7.029s-12.628-2.686-16.971-7.029l-239.028-239.030-79.030 79.030c-4.343 4.343-10.344 7.029-16.971 7.029s-12.628-2.686-16.971-7.029l-79.028-79.030z" />
<glyph unicode="&#xe930;" glyph-name="images" d="M853.333 162.286v-28.572c0-0.057 0-0.124 0-0.191 0-47.167-38.182-85.415-85.323-85.523h-682.677c-47.152 0.108-85.333 38.357-85.333 85.523 0 0.067 0 0.134 0 0.201v-0.010 457.143c0 0.057 0 0.124 0 0.191 0 47.167 38.182 85.415 85.323 85.523h28.454v-85.714h-17.778c-5.894-0.014-10.667-4.795-10.667-10.691 0-0.008 0-0.017 0-0.025v0.001-435.714c0-0.007 0-0.015 0-0.024 0-5.896 4.773-10.677 10.665-10.691h661.334c5.894 0.014 10.667 4.795 10.667 10.691 0 0.008 0 0.017 0 0.025v-0.001 17.857zM928 762.286h-661.333c-5.894-0.014-10.667-4.795-10.667-10.691 0-0.008 0-0.017 0-0.025v0.001-435.714c0-0.007 0-0.015 0-0.024 0-5.896 4.773-10.677 10.665-10.691h661.334c5.894 0.014 10.667 4.795 10.667 10.691 0 0.008 0 0.017 0 0.025v-0.001 435.714c0 0.007 0 0.015 0 0.024 0 5.896-4.773 10.677-10.665 10.691h-0.001zM938.667 848c47.152-0.108 85.333-38.357 85.333-85.523 0-0.067 0-0.134 0-0.201v0.010-457.143c0-0.057 0-0.124 0-0.191 0-47.167-38.182-85.415-85.323-85.523h-682.677c-47.152 0.108-85.333 38.357-85.333 85.523 0 0.067 0 0.134 0 0.201v-0.010 457.143c0 0.057 0 0.124 0 0.191 0 47.167 38.182 85.415 85.323 85.523h0.010zM469.333 648c-0.18-39.138-31.949-70.795-71.111-70.795-39.274 0-71.112 31.838-71.112 71.112s31.838 71.112 71.112 71.112c0 0 0 0 0 0v0c39.293-0.091 71.111-31.965 71.111-71.271 0-0.055 0-0.111 0-0.166v0.008zM341.333 476.571l70.249 70.563c3.853 3.877 9.189 6.276 15.085 6.276s11.232-2.399 15.084-6.275l0.001-0.001 70.247-70.563 184.027 184.848c3.853 3.877 9.189 6.276 15.085 6.276s11.232-2.399 15.084-6.275l0.001-0.001 127.136-127.705v-142.857h-512z" />
<glyph unicode="&#xe931;" glyph-name="info" d="M360 111.542h40v288.916h-40c-22.091 0-40 17.909-40 40v0 95.542c0 22.091 17.909 40 40 40v0h224c22.091 0 40-17.909 40-40v0-424.458h40c22.091 0 40-17.909 40-40v0-95.542c0-22.091-17.909-40-40-40v0h-304c-22.091 0-40 17.909-40 40v0 95.542c0 22.091 17.909 40 40 40v0zM512 960c-79.529 0-144-64.471-144-144s64.471-144 144-144c79.529 0 144 64.471 144 144v0c0 0 0 0.001 0 0.001 0 79.528-64.47 143.999-143.999 143.999 0 0-0.001 0-0.001 0v0z" />
<glyph unicode="&#xe932;" glyph-name="instagram" d="M512.114 710.541c-0.017 0-0.038 0-0.059 0-144.997 0-262.541-117.543-262.541-262.541s117.543-262.541 262.541-262.541c144.997 0 262.541 117.543 262.541 262.541v0c0 0.132 0 0.288 0 0.445 0 144.752-117.344 262.096-262.096 262.096-0.136 0-0.271 0-0.407 0h0.021zM512.114 277.314c-0.011 0-0.025 0-0.038 0-94.267 0-170.686 76.419-170.686 170.686s76.419 170.686 170.686 170.686c94.267 0 170.686-76.419 170.686-170.686v0c-0.165-94.187-76.463-170.499-170.63-170.686h-0.018zM846.556 721.28c-0.008-33.807-27.415-61.209-61.223-61.209-33.813 0-61.223 27.41-61.223 61.223s27.41 61.223 61.223 61.223v0c0.040 0 0.088 0 0.135 0 33.738 0 61.088-27.35 61.088-61.088 0-0.052 0-0.105 0-0.157v0.008zM1020.402 659.129c-3.884 82.030-22.616 154.691-82.697 214.557-59.852 59.866-132.497 78.602-214.509 82.715-84.524 4.799-337.868 4.799-422.393 0-81.783-3.884-154.428-22.621-214.509-82.487s-78.585-132.527-82.697-214.557c-4.797-84.543-4.797-337.944 0-422.487 3.884-82.030 22.616-154.691 82.697-214.557s132.497-78.602 214.509-82.715c84.524-4.799 337.869-4.799 422.393 0 82.011 3.884 154.656 22.621 214.509 82.715 59.852 59.866 78.585 132.527 82.697 214.557 4.797 84.543 4.797 337.716 0 422.259zM911.206 146.158c-17.943-44.661-52.662-79.387-96.157-96.925l-1.161-0.413c-67.391-26.734-227.302-20.564-301.775-20.564s-234.612-5.941-301.774 20.564c-44.655 17.952-79.374 52.678-96.904 96.178l-0.413 1.161c-26.727 67.406-20.559 227.352-20.559 301.842s-5.94 234.664 20.56 301.842c17.943 44.66 52.662 79.387 96.157 96.925l1.161 0.413c67.391 26.734 227.302 20.564 301.774 20.564s234.612 5.941 301.774-20.564c44.655-17.952 79.374-52.678 96.904-96.178l0.413-1.161c26.728-67.406 20.56-227.352 20.56-301.842s6.169-234.664-20.559-301.842z" />
<glyph unicode="&#xe933;" glyph-name="instagram-square" d="M512 569.92c-67.315-0.026-121.874-54.602-121.874-121.92 0-67.335 54.585-121.92 121.92-121.92s121.92 54.585 121.92 121.92v0c0 67.335-54.585 121.92-121.92 121.92-0.016 0-0.032 0-0.048 0h0.002zM797.051 663.634c-12.821 31.891-37.617 56.688-68.679 69.213l-0.829 0.295c-48 18.948-162.286 14.697-215.543 14.697s-167.429 4.411-215.566-14.697c-31.891-12.821-56.688-37.617-69.213-68.68l-0.295-0.829c-18.926-48-14.697-162.4-14.697-215.611s-4.228-167.474 14.789-215.634c12.821-31.891 37.617-56.688 68.68-69.213l0.829-0.295c48-18.949 162.286-14.697 215.566-14.697s167.406-4.411 215.543 14.697c31.891 12.821 56.688 37.617 69.213 68.68l0.295 0.829c19.086 48 14.697 162.4 14.697 215.611s4.389 167.451-14.697 215.611zM512 260.571c-103.289 0.13-186.971 83.893-186.971 187.2 0 103.388 83.812 187.2 187.2 187.2s187.2-83.812 187.2-187.2c0-103.307-83.682-187.070-186.959-187.2h-0.012q-0.229 0-0.457 0zM707.154 599.543c-0.007 0-0.015 0-0.023 0-24.162 0-43.749 19.587-43.749 43.749s19.587 43.749 43.749 43.749c24.154 0 43.736-19.574 43.749-43.725v-0.024c0-0.054 0-0.119 0-0.183 0-24.047-19.442-43.553-43.464-43.657h-0.17zM914.286 960h-804.572c-60.594 0-109.714-49.121-109.714-109.714v0-804.572c0-60.594 49.121-109.714 109.714-109.714h804.572c60.594 0 109.714 49.121 109.714 109.714v0 804.572c0 60.594-49.121 109.714-109.714 109.714v0zM875.154 297.143c-2.948-58.583-16.32-110.492-59.086-153.143s-94.629-56.297-153.143-59.086c-60.366-3.406-241.349-3.406-301.714 0-58.583 2.949-110.308 16.343-153.143 59.086s-56.297 94.674-59.086 153.143c-3.406 60.389-3.406 241.394 0 301.714 2.948 58.583 16.16 110.492 59.086 153.143s94.788 56.137 153.143 58.926c60.366 3.406 241.349 3.406 301.714 0 58.583-2.949 110.468-16.343 153.143-59.086s56.297-94.674 59.086-153.257c3.406-60.16 3.406-241.006 0-301.44z" />
<glyph unicode="&#xe934;" glyph-name="key" d="M941.456 250.009c-50.91-50.717-121.138-82.073-198.69-82.073-96.048 0-180.863 48.097-231.673 121.519l-0.613 0.936-57.605-3.377c-0.675-0.042-1.464-0.066-2.258-0.066-10.571 0-20.145 4.273-27.087 11.186l0.001-0.001-42.022 41.874-45.157-44.998c-6.945-6.911-16.52-11.183-27.094-11.183s-20.15 4.272-27.096 11.185l0.002-0.002-45.157 44.998-45.157-44.998c-6.945-6.911-16.52-11.183-27.094-11.183s-20.15 4.272-27.096 11.185l0.002-0.002-126.44 125.994c-6.933 6.899-11.223 16.448-11.223 26.999s4.29 20.1 11.221 26.997l0.002 0.002 88.123 87.812c6.942 6.911 16.516 11.184 27.087 11.184 0.002 0 0.005 0 0.007 0h365.324c47.192 92.452 141.722 154.657 250.781 154.657 155 0 280.652-125.652 280.652-280.652 0-77.271-31.228-147.249-81.752-198.001l0.010 0.010zM742.852 448c0-0.097-0.001-0.212-0.001-0.327 0-51.066 41.397-92.463 92.463-92.463s92.463 41.397 92.463 92.463c0 51.066-41.397 92.463-92.463 92.463v0c-0.049 0-0.106 0-0.164 0-50.918 0-92.206-41.231-92.299-92.128v-0.009z" />
<glyph unicode="&#xe935;" glyph-name="ksa-map" d="M554.846 715.469l-88.291 4.328-144.554 109.931-73.576 38.952-57.995 14.715-7.791-8.656-90.022-26.833 52.801-55.398-14.715-8.656-6.059-19.043-34.624-6.925-9.521-19.909-18.177-17.312-52.801 8.656-4.328-21.64v-19.043l-5.193-30.296h23.371l27.699-38.086 32.027-44.146 21.64-40.683 14.715-12.984 14.715-28.564-1.731-12.118 18.177-32.027 25.968-11.253 24.237-21.64 31.161-60.592v-32.893l7.791-38.086 34.624-52.801 21.64-8.656 35.489-38.086 16.447-45.011 27.699-45.876 25.968-19.909 5.193-21.64 15.581-16.446 7.791-24.237 19.909 18.178-6.059 23.371 10.387 26.834 20.775-14.715 12.984 5.194 55.399 1.731 8.656-6.059 46.742-5.194 18.177 2.597 13.849-18.178 21.64 8.656 30.296 57.995 43.28 25.102 135.898 20.774 139.361 55.398 22.505 109.932-25.103 38.952-8.656-11.253-145.421 27.699-22.505 55.398-3.463 12.984-10.387 20.774-12.984-3.462-15.581 10.387-8.656 13.85-7.791 18.178-14.715 15.581-8.656 18.178 3.463 18.178-5.193 23.371-34.624 22.506-10.387 19.909-25.102 12.119-23.371 47.608-32.893-1.731-14.715 26.833-42.414 5.194z" />
<glyph unicode="&#xe936;" glyph-name="layers" d="M24.825 663.949l465.875-211.337c6.249-2.927 13.57-4.635 21.29-4.635s15.040 1.708 21.605 4.767l-0.315-0.132 465.875 211.337c14.83 7.478 24.825 22.586 24.825 40.029s-9.994 32.552-24.569 39.912l-0.256 0.117-465.855 211.357c-6.249 2.927-13.57 4.635-21.29 4.635s-15.040-1.708-21.605-4.767l0.315 0.132-465.895-211.337c-14.831-7.482-24.825-22.594-24.825-40.039s9.994-32.557 24.569-39.922l0.256-0.117zM999.175 487.392l-116.179 52.659-323.277-146.538c-14.013-6.53-30.421-10.34-47.72-10.34s-33.707 3.81-48.432 10.636l0.712-0.296-323.256 146.538-116.199-52.659c-14.829-7.465-24.825-22.565-24.825-39.999s9.996-32.535 24.569-39.882l0.256-0.117 465.875-211.177c6.251-2.918 13.572-4.62 21.29-4.62s15.039 1.702 21.607 4.752l-0.317-0.132 465.895 211.177c14.829 7.465 24.825 22.565 24.825 39.999s-9.996 32.535-24.569 39.882l-0.256 0.117zM999.175 231.796l-115.739 52.459-323.717-146.738c-14.013-6.53-30.421-10.34-47.72-10.34s-33.707 3.81-48.432 10.636l0.713-0.296-323.697 146.738-115.759-52.459c-14.829-7.465-24.825-22.565-24.825-39.999s9.996-32.535 24.569-39.882l0.256-0.117 465.875-211.177c6.251-2.918 13.572-4.62 21.29-4.62s15.039 1.702 21.607 4.752l-0.317-0.132 465.895 211.177c14.829 7.465 24.825 22.565 24.825 39.999s-9.996 32.535-24.569 39.882l-0.256 0.117z" />
<glyph unicode="&#xe937;" glyph-name="linkedin" d="M229.211-64h-212.297v683.684h212.297zM122.949 712.945c-0.172-0.001-0.375-0.001-0.579-0.001-68.223 0-123.529 55.306-123.529 123.529s55.306 123.529 123.529 123.529c68.015 0 123.192-54.969 123.527-122.905v-0.032c0-0.040 0-0.088 0-0.135 0-68.111-54.92-123.395-122.893-123.984h-0.056zM1023.771-64h-211.84v332.813c0 79.317-1.6 181.036-110.377 181.036-110.377 0-127.291-86.175-127.291-175.321v-338.528h-212.069v683.684h203.612v-93.261h2.971c28.343 53.716 97.577 110.404 200.869 110.404 214.857 0 254.354-141.491 254.354-325.27v-375.558z" />
<glyph unicode="&#xe938;" glyph-name="linkedin-square" d="M950.857 960h-877.943c-40.336-0.308-72.915-33.078-72.915-73.457 0-0.131 0-0.261 0.001-0.392v0.020-876.343c-0.001-0.11-0.001-0.241-0.001-0.372 0-40.379 32.579-73.149 72.886-73.457h877.972c40.458 0.289 73.143 33.153 73.143 73.651 0 0.062 0 0.125 0 0.187v-0.010 876.343c0 0.053 0 0.115 0 0.178 0 40.498-32.686 73.362-73.116 73.651h-0.027zM309.486 82.286h-151.772v488.686h152v-488.686zM233.6 637.714c-48.601 0-88 39.399-88 88s39.399 88 88 88c48.601 0 88-39.399 88-88v0c-0.022-48.592-39.408-87.978-87.998-88h-0.002zM878.4 82.286h-151.772v237.714c0 56.686-1.143 129.6-78.857 129.6-79.086 0-91.2-61.714-91.2-125.486v-241.828h-151.771v488.686h145.6v-66.743h2.057c28.279 47.579 79.414 78.966 137.88 78.966 2.072 0 4.135-0.039 6.187-0.118l-0.296 0.009c153.6 0 182.171-101.257 182.171-232.914z" />
<glyph unicode="&#xe939;" glyph-name="list" d="M160 224h-128c-17.673 0-32-14.327-32-32v0-128c0-17.673 14.327-32 32-32v0h128c17.673 0 32 14.327 32 32v0 128c0 17.673-14.327 32-32 32v0zM160 864h-128c-17.673 0-32-14.327-32-32v0-128c0-17.673 14.327-32 32-32v0h128c17.673 0 32 14.327 32 32v0 128c0 17.673-14.327 32-32 32v0zM160 544h-128c-17.673 0-32-14.327-32-32v0-128c0-17.673 14.327-32 32-32v0h128c17.673 0 32 14.327 32 32v0 128c0 17.673-14.327 32-32 32v0zM992 192h-640c-17.673 0-32-14.327-32-32v0-64c0-17.673 14.327-32 32-32v0h640c17.673 0 32 14.327 32 32v0 64c0 17.673-14.327 32-32 32v0zM992 832h-640c-17.673 0-32-14.327-32-32v0-64c0-17.673 14.327-32 32-32v0h640c17.673 0 32 14.327 32 32v0 64c0 17.673-14.327 32-32 32v0zM992 512h-640c-17.673 0-32-14.327-32-32v0-64c0-17.673 14.327-32 32-32v0h640c17.673 0 32 14.327 32 32v0 64c0 17.673-14.327 32-32 32v0z" />
<glyph unicode="&#xe93a;" glyph-name="location-arrow" d="M889.030 952.963l-831.563-383.795c-95.94-44.78-63.96-185.498 38.38-185.498h351.821v-351.816c0-102.339 140.72-134.338 185.501-38.38l383.801 831.549c31.98 76.78-51.18 159.939-127.94 127.939z" />
<glyph unicode="&#xe93b;" glyph-name="location-arrow-slash" d="M212.134 640.553l492.418-492.418-71.383-154.66c-44.78-95.958-185.5-63.959-185.5 38.38v351.815h-351.821c-102.341 0-134.321 140.719-38.381 185.498zM889.030 952.963l-516.441-238.355-192.020 192.020c-4.343 4.343-10.343 7.029-16.971 7.029s-12.627-2.686-16.971-7.029l-24.685-24.687c-4.343-4.343-7.030-10.343-7.030-16.971s2.686-12.628 7.030-16.971l790.059-790.059c4.343-4.343 10.343-7.030 16.971-7.030s12.628 2.686 16.971 7.030l24.685 24.687c4.343 4.343 7.030 10.343 7.030 16.97s-2.686 12.627-7.030 16.97l-192.017 192.018 238.361 516.438c31.98 76.78-51.181 159.939-127.94 127.939z" />
<glyph unicode="&#xe93c;" glyph-name="lock" d="M864 512h-48v144c0 167.895-136.105 304-304 304s-304-136.105-304-304v0-144h-48c-53.014-0.014-95.986-42.986-96-95.999v-384.001c0.014-53.014 42.986-95.986 95.999-96h704.001c53.014 0.014 95.986 42.986 96 95.999v384.001c-0.014 53.014-42.986 95.986-95.999 96h-0.001zM656 512h-288v144c0 79.529 64.471 144 144 144s144-64.471 144-144v0z" />
<glyph unicode="&#xe93d;" glyph-name="login" d="M1024 656.13v-399.61c-0.115-98.808-80.184-178.877-178.981-178.992h-174.84c-2.286 0.031-4.132 1.876-4.163 4.16v83.255c0.031 2.286 1.876 4.132 4.16 4.163h174.832c48.255 0.056 87.358 39.159 87.415 87.409v399.615c-0.056 48.255-39.159 87.358-87.409 87.415h-174.835c-2.286 0.031-4.132 1.876-4.163 4.16v83.255c0.031 2.286 1.876 4.132 4.16 4.163h174.832c98.808-0.115 178.877-80.184 178.992-178.981v-0.011zM732.422 418.962c5.229 5.334 8.456 12.646 8.456 20.713s-3.227 15.38-8.461 20.718l-349.606 349.605c-5.112 5.283-12.267 8.562-20.187 8.562-0.009 0-0.019 0-0.028 0h0.001c-0.135 0.002-0.295 0.004-0.455 0.004-16.090 0-29.134-13.044-29.134-29.134 0-0.034 0-0.068 0-0.102v0.005q0-110.31 0-220.618-151.936 0.004-303.87 0c-16.085-0.019-29.119-13.053-29.138-29.136v-199.807c0.019-16.085 13.053-29.119 29.136-29.138h0.002q151.936 0 303.87 0c0.221 0 0.084-189.786 0-208.13-0.164-1.599-0.258-3.454-0.258-5.332 0-7.957 1.68-15.522 4.704-22.358l-0.14 0.353c5.108-8.572 14.329-14.225 24.871-14.225 3.681 0 7.202 0.689 10.439 1.946l-0.197-0.067c6.776 3.401 12.515 7.868 17.239 13.249l0.054 0.063q162.952 163.57 326.46 326.589z" />
<glyph unicode="&#xe93e;" glyph-name="logout" d="M178.992 851.122h174.829c2.286-0.031 4.132-1.876 4.163-4.16v-83.255c-0.031-2.286-1.876-4.132-4.16-4.163h-174.832c-48.255-0.056-87.358-39.16-87.415-87.409v-399.615c0.056-48.255 39.159-87.358 87.409-87.415h174.835c2.286-0.031 4.132-1.876 4.163-4.16v-83.255c-0.031-2.286-1.876-4.132-4.16-4.163h-174.832c-98.808 0.115-178.877 80.184-178.992 178.981v399.621c0.115 98.808 80.184 178.877 178.981 178.992h0.011zM1015.544 434.962c5.229 5.334 8.457 12.646 8.457 20.713s-3.227 15.38-8.461 20.718l-349.606 349.605c-5.112 5.283-12.267 8.562-20.187 8.562-0.009 0-0.019 0-0.028 0h0.001c-0.135 0.002-0.295 0.004-0.455 0.004-16.090 0-29.134-13.044-29.134-29.134 0-0.034 0-0.068 0-0.101v0.005q0-110.31 0-220.618-151.935 0.004-303.87 0c-16.085-0.019-29.119-13.053-29.138-29.136v-199.807c0.019-16.085 13.053-29.119 29.136-29.138h0.002q151.936 0 303.87 0c0.221 0 0.084-189.786 0-208.13-0.164-1.599-0.258-3.454-0.258-5.332 0-7.957 1.68-15.522 4.704-22.359l-0.14 0.353c5.108-8.572 14.329-14.225 24.871-14.225 3.681 0 7.202 0.689 10.439 1.946l-0.197-0.067c6.776 3.401 12.515 7.868 17.239 13.249l0.054 0.063q162.952 163.57 326.46 326.589z" />
<glyph unicode="&#xe93f;" glyph-name="magnifier" d="M419.786 832c161.171-0.103 291.785-130.782 291.785-291.966 0-64.636-21.003-124.366-56.558-172.738l0.569 0.811-27.18-37.247-37.31-27.156c-47.184-34.805-106.479-55.705-170.656-55.705-0.229 0-0.457 0-0.686 0.001h0.036c-161.267 0-292 130.733-292 292s130.733 292 292 292v0zM419.786 960c-0.071 0-0.156 0-0.24 0-231.96 0-420-188.040-420-420s188.040-420 420-420c92.784 0 178.542 30.087 248.048 81.036l-1.177-0.823 264.116-264.214 92.478 92.525-264.032 264.128c50.358 68.428 80.592 154.373 80.592 247.38 0 231.877-187.922 419.863-419.776 419.967h-0.010z" />
<glyph unicode="&#xe940;" glyph-name="male" d="M512 960c70.692 0 128-57.308 128-128s-57.308-128-128-128c-70.692 0-128 57.308-128 128v0c0 70.692 57.308 128 128 128v0zM608 672h-22.72c-21.505-10.106-46.704-16.004-73.28-16.004s-51.776 5.898-74.359 16.457l1.079-0.453h-22.72c-53.019 0-96-42.981-96-96v0-272c0-26.51 21.49-48 48-48v0h32v-272c0-26.51 21.49-48 48-48v0h128c26.51 0 48 21.49 48 48v0 272h32c26.51 0 48 21.49 48 48v0 272c0 53.019-42.981 96-96 96v0z" />
<glyph unicode="&#xe941;" glyph-name="male-square" d="M912 960h-800c-61.856 0-112-50.144-112-112v0-800c0-61.856 50.144-112 112-112v0h800c61.856 0 112 50.144 112 112v0 800c0 61.856-50.144 112-112 112v0zM512 832c53.019 0 96-42.981 96-96s-42.981-96-96-96c-53.019 0-96 42.981-96 96v0c0 53.019 42.981 96 96 96v0zM656 340c0-19.882-16.118-36-36-36v0h-24v-204c0-19.882-16.118-36-36-36v0h-96c-19.882 0-36 16.118-36 36v0 204h-24c-19.882 0-36 16.118-36 36v0 204c0 39.765 32.235 72 72 72v0h17.040c16.128-7.579 35.028-12.003 54.96-12.003s38.831 4.424 55.769 12.343l-0.809-0.34h17.040c39.765 0 72-32.235 72-72v0z" />
<glyph unicode="&#xe942;" glyph-name="map-marker" d="M512 960c0 0-0.001 0-0.001 0-212.077 0-383.999-171.922-383.999-383.999 0 0 0-0.001 0-0.001v0c0-154.825 53.94-198.062 344.536-619.34 8.786-12.553 23.178-20.66 39.464-20.66s30.678 8.107 39.361 20.506l0.103 0.154c290.595 421.278 344.536 464.515 344.536 619.34 0 0 0 0.001 0 0.001 0 212.077-171.922 383.999-383.999 383.999 0 0-0.001 0-0.001 0v0zM512 376c-110.457 0-200 89.543-200 200s89.543 200 200 200c110.457 0 200-89.543 200-200v0c0-110.457-89.543-200-200-200v0z" />
<glyph unicode="&#xe943;" glyph-name="minus" d="M1024 528v-160c0-26.51-21.49-48-48-48v0h-928c-26.51 0-48 21.49-48 48v0 160c0 26.51 21.49 48 48 48v0h928c26.51 0 48-21.49 48-48v0z" />
<glyph unicode="&#xe944;" glyph-name="mosque" d="M0 89.6c0.004-28.276 22.925-51.196 51.2-51.2h102.4c28.276 0.004 51.196 22.925 51.2 51.2v0 512h-204.8zM926.656 396.8c26.754 23.155 44.154 56.495 46.13 93.925l0.014 0.331c0 84.576-66.864 150.064-140.672 196.64-69.239 42.661-128.342 93.75-178.24 152.862l-0.896 1.090-12.992 15.952-12.992-15.952c-50.786-60.21-109.891-111.3-175.996-152.146l-3.14-1.806c-73.808-46.576-140.672-112.064-140.672-196.64 1.99-37.761 19.39-71.101 45.976-94.114l0.168-0.142zM972.8 345.6h-665.6c-28.276-0.004-51.196-22.925-51.2-51.2v0-204.8c0.004-28.276 22.925-51.196 51.2-51.2h51.2v102.4c0 28.277 22.923 51.2 51.2 51.2s51.2-22.923 51.2-51.2v-102.4h102.4v115.2c0 76.8 76.8 115.2 76.8 115.2s76.8-38.4 76.8-115.2v-115.2h102.4v102.4c0 28.277 22.923 51.2 51.2 51.2s51.2-22.923 51.2-51.2v0-102.4h51.2c28.276 0.004 51.196 22.925 51.2 51.2v0 204.8c-0.004 28.276-22.925 51.196-51.2 51.2v0zM102.4 857.6s-102.4-51.2-102.4-153.6v-51.2h204.8v51.2c0 102.4-102.4 153.6-102.4 153.6z" />
<glyph unicode="&#xe945;" glyph-name="move-left" d="M898.495 843.019v-790.038c0.040-12.842 10.459-23.237 23.307-23.237 0.025 0 0.050 0 0.074 0h46.748c0.021 0 0.045 0 0.069 0 12.847 0 23.267 10.395 23.307 23.233v790.042c-0.040 12.842-10.459 23.237-23.307 23.237-0.024 0-0.049 0-0.073 0h-46.748c-0.021 0-0.046 0-0.071 0-12.847 0-23.267-10.395-23.307-23.233v-0.004zM688.108 866.256h93.505c0.021 0 0.045 0 0.069 0 12.847 0 23.267-10.395 23.307-23.233v-790.043c-0.040-12.842-10.459-23.237-23.307-23.237-0.024 0-0.049 0-0.073 0h-93.501c-0.021 0-0.045 0-0.069 0-12.847 0-23.267 10.395-23.307 23.233v790.042c0.040 12.842 10.459 23.237 23.307 23.237 0.024 0 0.049 0 0.073 0h-0.004zM49.826 494.437l397.302 442.151c12.904 14.341 31.526 23.318 52.245 23.318 38.612 0 69.941-31.178 70.187-69.731v-884.324c-0.246-38.577-31.575-69.755-70.187-69.755-20.719 0-39.341 8.977-52.189 23.254l-0.056 0.064-397.302 442.151c-11.059 12.245-17.826 28.551-17.826 46.437s6.767 34.193 17.88 46.498l-0.054-0.061z" />
<glyph unicode="&#xe946;" glyph-name="move-right" d="M125.505 843.019v-790.038c-0.040-12.842-10.459-23.237-23.307-23.237-0.024 0-0.049 0-0.073 0h-46.749c-0.021 0-0.045 0-0.069 0-12.847 0-23.267 10.395-23.307 23.233v790.042c0.040 12.842 10.459 23.237 23.307 23.237 0.024 0 0.049 0 0.073 0h46.748c0.021 0 0.046 0 0.071 0 12.847 0 23.267-10.395 23.307-23.233v-0.004zM335.892 866.256h-93.505c-0.021 0-0.045 0-0.069 0-12.847 0-23.267-10.395-23.307-23.233v-790.043c0.040-12.842 10.459-23.237 23.307-23.237 0.024 0 0.049 0 0.073 0h93.501c0.021 0 0.045 0 0.069 0 12.847 0 23.267 10.395 23.307 23.233v790.042c-0.040 12.842-10.459 23.237-23.307 23.237-0.024 0-0.049 0-0.073 0h0.004zM974.174 494.437l-397.302 442.151c-12.904 14.341-31.526 23.318-52.245 23.318-38.612 0-69.941-31.178-70.187-69.731v-884.324c0.246-38.577 31.575-69.755 70.187-69.755 20.719 0 39.341 8.977 52.189 23.254l0.056 0.064 397.302 442.151c11.059 12.245 17.826 28.551 17.826 46.437s-6.767 34.193-17.88 46.498l0.054-0.061z" />
<glyph unicode="&#xe947;" glyph-name="panorama" d="M908.539 786.15c-33.045 13.968-349.037 148.998-367.625 155.982-8.833 3.866-19.127 6.115-29.947 6.115s-21.114-2.25-30.44-6.306l0.493 0.191c-20.653-9.312-336.645-144.342-367.625-155.982-32.019-14.913-53.815-46.82-53.815-83.817 0-1.636 0.043-3.261 0.127-4.876l-0.009 0.226v-449.322c-0.010-0.516-0.015-1.125-0.015-1.734 0-35.595 18.839-66.791 47.090-84.16l0.428-0.245c30.979-18.625 344.906-190.904 367.624-204.872 10.717-6.045 23.53-9.607 37.176-9.607s26.458 3.562 37.561 9.806l-0.385-0.199 367.624 207.2c28.647 17.378 47.496 48.393 47.502 83.811v449.323c0.036 0.966 0.057 2.101 0.057 3.241 0 37.909-22.689 70.519-55.227 84.991l-0.592 0.235zM483.086 24.863l-365.56 207.201v416.729l365.56-181.591zM117.526 718.636l394.474 167.623 392.409-167.623-392.409-190.904zM906.474 232.064l-365.56-207.2v442.337l365.56 181.591zM509.612 948.275c11.304-0.162 22.038-2.403 31.903-6.355l-0.601 0.212c18.588-6.984 334.58-142.014 367.625-155.982 33.131-14.707 55.82-47.317 55.82-85.226 0-1.14-0.021-2.275-0.061-3.405l0.005 0.164v-449.323c-0.006-35.419-18.856-66.434-47.069-83.567l-368.059-207.445c-11.569-5.812-25.172-9.333-39.567-9.622l-0.096-0.002c-0.171-0.002-0.372-0.003-0.574-0.003-12.621 0-24.406 3.583-34.392 9.786l0.278-0.161c-22.718 13.968-336.645 186.247-367.624 204.872-28.679 17.614-47.517 48.809-47.517 84.404 0 0.61 0.006 1.219 0.017 1.826l-0.001-0.091v449.323c-0.075 1.389-0.117 3.015-0.117 4.65 0 36.997 21.796 68.904 53.248 83.58l0.567 0.238c30.98 11.64 346.972 146.67 367.625 155.982 8.346 3.879 18.116 6.142 28.415 6.142 0.062 0 0.125 0 0.187 0h-0.010zM512 527.732l392.409 190.904-392.409 167.623-394.474-167.623 394.474-190.904zM540.914 24.863l365.56 207.2v416.729l-365.56-181.591v-442.338zM483.086 24.863v442.338l-365.56 181.591v-416.728l365.56-207.2zM509.612 960c-0.038 0-0.083 0-0.127 0-12.055 0-23.492-2.643-33.764-7.381l0.501 0.207c-16.038-7.232-334.947-143.679-366.932-155.696-36.486-16.572-61.401-52.693-61.401-94.633 0-1.693 0.041-3.377 0.121-5.050l-0.009 0.236v-449.323c-0.007-0.464-0.011-1.011-0.011-1.559 0-39.89 21.084-74.856 52.717-94.361l0.478-0.274c15.898-9.558 104.937-58.829 191.044-106.479 81.373-45.030 165.517-91.593 176.48-98.333 11.429-7.129 25.307-11.356 40.172-11.356 0.222 0 0.444 0.001 0.666 0.003h-0.034c16.293 0.264 31.607 4.197 45.234 11.006l-0.608-0.275 0.392 0.184 368.812 207.914c31.771 19.388 52.657 53.863 52.657 93.217 0 0.111 0 0.221 0 0.331v-0.017 449.323c0.030 0.929 0.046 2.022 0.046 3.119 0 42.766-25.591 79.554-62.294 95.887l-0.668 0.265c-8.629 3.648-36.564 15.555-73.457 31.282-104.963 44.742-280.637 119.627-294.607 124.876-10.483 4.21-22.628 6.724-35.341 6.888l-0.067 0.001zM145.864 717.942l366.124 155.576 364.206-155.576-364.207-177.184-366.123 177.184zM552.612 459.926l342.164 169.97v-390.992l-342.164-193.94v414.963zM129.224 238.903v390.992l342.164-169.969v-414.963l-342.164 193.94z" />
<glyph unicode="&#xe948;" glyph-name="paper-list" d="M867.8 764.038l-167.8 167.767c-17.344 17.381-41.31 28.148-67.791 28.195h-408.209c-53.011-0.179-95.924-43.156-96-96.174v-831.844c0.020-53.008 42.991-95.972 95.999-95.981h576.001c53.009 0.009 95.98 42.974 96 95.979v664.072c-0.045 26.55-10.812 50.576-28.201 67.988l0.001-0.001zM792.2 703.85h-152.2v152.17zM224 31.981v831.837h320v-207.959c0-0.033 0-0.072 0-0.111 0-26.443 21.437-47.88 47.88-47.88 0.042 0 0.084 0 0.126 0h207.994v-575.888zM318.857 445.143h386.286c0 0 0 0 0 0 8.205 0 14.857 6.652 14.857 14.857 0 0 0 0 0 0v0 37.143c0 0 0 0 0 0 0 8.205-6.652 14.857-14.857 14.857 0 0 0 0 0 0h-386.286c0 0 0 0 0 0-8.205 0-14.857-6.652-14.857-14.857 0 0 0 0 0 0v0-37.143c0 0 0 0 0 0 0-8.205 6.652-14.857 14.857-14.857 0 0 0 0 0 0v0zM318.857 296.571h386.286c0 0 0 0 0 0 8.205 0 14.857 6.652 14.857 14.857 0 0 0 0 0 0.001v0 37.143c0 0 0 0 0 0.001 0 8.205-6.652 14.857-14.857 14.857 0 0 0 0 0 0h-386.286c0 0 0 0 0 0-8.205 0-14.857-6.652-14.857-14.857 0 0 0 0 0-0.001v0-37.143c0 0 0 0 0-0.001 0-8.205 6.652-14.857 14.857-14.857 0 0 0 0 0 0v0zM318.857 148h386.286c0 0 0 0 0 0 8.205 0 14.857 6.652 14.857 14.857 0 0 0 0 0 0v0 37.143c0 0 0 0 0 0 0 8.205-6.652 14.857-14.857 14.857 0 0 0 0 0 0h-386.286c0 0 0 0 0 0-8.205 0-14.857-6.652-14.857-14.857 0 0 0 0 0 0v0-37.143c0 0 0 0 0 0 0-8.205 6.652-14.857 14.857-14.857 0 0 0 0 0 0v0z" />
<glyph unicode="&#xe949;" glyph-name="paper-plus" d="M867.8 764.038l-167.8 167.767c-17.344 17.381-41.31 28.148-67.791 28.195h-408.209c-53.011-0.179-95.924-43.156-96-96.174v-831.844c0.020-53.008 42.991-95.972 95.999-95.981h576.001c53.009 0.009 95.98 42.974 96 95.979v664.072c-0.045 26.55-10.812 50.576-28.201 67.988l0.001-0.001zM792.2 703.85h-152.2v152.17zM224 31.981v831.837h320v-207.959c0-0.033 0-0.072 0-0.111 0-26.443 21.437-47.88 47.88-47.88 0.042 0 0.084 0 0.126 0h207.994v-575.888zM507.36 559.968v0c31.52 0 57.072-25.552 57.072-57.072v-342.432c0-31.52-25.552-57.072-57.072-57.072v0c-31.52 0-57.072 25.552-57.072 57.072v342.432c0 31.52 25.552 57.072 57.072 57.072zM279.072 331.68v0c0 31.52 25.552 57.072 57.072 57.072h342.432c31.52 0 57.072-25.552 57.072-57.072v0c0-31.52-25.552-57.072-57.072-57.072h-342.432c-31.52 0-57.072 25.552-57.072 57.072z" />
<glyph unicode="&#xe94a;" glyph-name="pencil" d="M995.799 675.939l-92.204-92.204c-4.349-4.356-10.36-7.050-17.001-7.050s-12.652 2.695-17.001 7.050v0l-222.010 222.009c-4.356 4.349-7.050 10.36-7.050 17.001s2.695 12.652 7.050 17v0l92.204 92.204c17.398 17.334 41.399 28.051 67.903 28.051s50.505-10.717 67.906-28.054l120.203-120.202c17.421-17.358 28.201-41.371 28.201-67.903s-10.78-50.545-28.198-67.9l-0.003-0.003zM568.379 760.542l-525.224-525.221-42.403-243.010c-0.454-2.482-0.714-5.337-0.714-8.254 0-26.544 21.518-48.062 48.062-48.062 2.917 0 5.773 0.26 8.547 0.758l-0.292-0.043 243.011 42.602 525.224 525.221c4.356 4.349 7.050 10.36 7.050 17.001s-2.695 12.652-7.050 17v0l-222.010 222.009c-4.385 4.357-10.429 7.050-17.101 7.050s-12.716-2.693-17.102-7.052l0.001 0.001zM248.164 280.323c-5.096 5.054-8.25 12.059-8.25 19.801s3.155 14.746 8.249 19.799l308.016 308.014c5.067 5.068 12.068 8.202 19.801 8.202 15.465 0 28.003-12.537 28.003-28.003 0-7.733-3.134-14.733-8.202-19.801l-308.014-308.012c-5.055-5.096-12.059-8.25-19.801-8.25s-14.746 3.155-19.799 8.249l-0.002 0.002zM175.961 112.116h96.004v-72.603l-129.005-22.601-62.204 62.203 22.601 129.005h72.603z" />
<glyph unicode="&#xe94b;" glyph-name="phone" d="M884.835 129.61l-3.792 11.251c-8.94 32.938-143.995 96.997-182.274 112.155-4.842 1.98-10.451 3.224-16.324 3.437l-0.087 0.003c-0.596 0.028-1.294 0.044-1.997 0.044-3.118 0-6.162-0.315-9.103-0.914l0.292 0.050c-20.388-4.236-45.645-21.253-90.785-52.969-4.475-3.533-10.197-5.667-16.417-5.667-6.211 0-11.926 2.128-16.454 5.695l0.057-0.043c-57.632 49.107-107.527 104.751-149.3 166.35l-1.847 2.889c-37.146 56.118-67.102 121.107-86.407 190.532l-1.144 4.819c-0.355 1.811-0.559 3.893-0.559 6.022 0 10.424 4.873 19.709 12.465 25.702l0.069 0.053c57.28 41.993 82.26 62.392 87.296 87.547 2.77 14.696-7.31 205.542-34.432 228.207l-8.332 7.541c-18.56 16.406-46.464 40.485-80.664 37.424-8.998-0.901-17.248-3.204-24.837-6.698l0.482 0.199c-40.406-19.984-74.025-48.118-99.808-82.469l-0.512-0.712c-46.14-66.846-66.762-366.082 105.431-616.579 156.266-227.328 390.214-296.516 478.095-317.344l1.010-0.131 3.155 0.664c54.895 13.265 105.484 59.359 125.289 79.358 35.954 35.098 20.407 85.528 11.434 113.588z" />
<glyph unicode="&#xe94c;" glyph-name="plan" d="M912.362 928c-61.905-1.14-111.651-51.591-111.651-113.662 0-0.602 0.005-1.203 0.014-1.803l-0.001 0.091v-60.284h-766.325c-19.073-0.346-34.402-15.889-34.402-35.012 0-0.182 0.001-0.364 0.004-0.545v0.027-713.281c-0.002-0.154-0.004-0.336-0.004-0.518 0-19.123 15.329-34.666 34.37-35.012h852.249c71.309 1.216 129.499 55.786 136.423 125.441l0.047 0.58h0.915v718.604c0.008 0.509 0.013 1.11 0.013 1.712 0 62.070-49.746 112.522-111.544 113.66l-0.107 0.002zM912.362 877.752c34.875-0.684 62.884-29.117 62.884-64.092 0-0.364-0.003-0.727-0.009-1.089l0.001 0.055v-585.858c-18.292 9.485-39.934 15.047-62.876 15.047s-44.584-5.562-63.652-15.411l0.776 0.364v585.858c-0.005 0.308-0.008 0.671-0.008 1.035 0 34.975 28.009 63.407 62.82 64.090l0.064 0.001zM818.026 94.021c-0.007 0.437-0.011 0.954-0.011 1.471 0 52.456 42.033 95.095 94.256 96.072l0.091 0.001c24.349-0.026 46.48-9.505 62.924-24.963l-0.048 0.045v-60.165l-0.206-2.356c-2.268-47.373-40.81-85.029-88.335-85.876l-0.082-0.001h-837.853v683.844h751.962v-608.071zM435.841 264.8h-47.553v-121.402h-85.021l-68.758 70.855-32.487-33.477 83.749-86.347 8.584-0.034h420.674c30.187 0.509 54.462 25.1 54.462 55.36 0 0.266-0.002 0.532-0.006 0.798v-0.040 400.882c0.003 0.225 0.005 0.491 0.005 0.757 0 30.26-24.275 54.851-54.414 55.36l-0.048 0.001h-579.086c-30.187-0.51-54.463-25.101-54.463-55.362 0-0.266 0.002-0.531 0.006-0.796v0.040-400.881c-0.003-0.225-0.005-0.491-0.005-0.757 0-30.261 24.276-54.852 54.415-55.361l0.048-0.001h54.456v49.004h-54.456c-3.826 0.065-6.904 3.182-6.904 7.018 0 0.034 0 0.068 0.001 0.102v-0.005 270.785h107.38v49.004h-107.38v81.092c0 0.029-0.001 0.063-0.001 0.096 0 3.836 3.077 6.953 6.898 7.017h260.019v-88.205h-115.050v-49.004h162.604v137.209h271.518c3.827-0.064 6.904-3.181 6.904-7.018 0-0.034 0-0.067-0.001-0.101v0.005-183.843h-286.092v31.616h-47.553v-112.235h47.554v31.616h286.092v-168.035c0-0.028 0.001-0.062 0.001-0.096 0-3.836-3.078-6.954-6.898-7.018h-279.194v121.401z" />
<glyph unicode="&#xe94d;" glyph-name="plus" d="M976 576h-336v336c0 26.51-21.49 48-48 48v0h-160c-26.51 0-48-21.49-48-48v0-336h-336c-26.51 0-48-21.49-48-48v0-160c0-26.51 21.49-48 48-48v0h336v-336c0-26.51 21.49-48 48-48v0h160c26.51 0 48 21.49 48 48v0 336h336c26.51 0 48 21.49 48 48v0 160c0 26.51-21.49 48-48 48v0z" />
<glyph unicode="&#xe94e;" glyph-name="print" d="M896 576v229.5c-0.001 17.674-7.162 33.674-18.74 45.26v0l-90.52 90.5c-11.582 11.579-27.58 18.74-45.251 18.74-0.003 0-0.007 0-0.010 0h-549.479c-35.344-0.005-63.995-28.656-64-64v0-320c-0.003 0-0.006 0-0.010 0-70.687 0-127.99-57.303-127.99-127.99 0-0.003 0-0.007 0-0.010v0.001-224c0-0.003 0-0.006 0-0.009 0-17.668 14.323-31.991 31.991-31.991 0.003 0 0.006 0 0.009 0h96v-192c0.005-35.344 28.656-63.995 64-64h640c35.344 0.005 63.995 28.656 64 64v0 192h96c0.003 0 0.006 0 0.009 0 17.668 0 31.991 14.323 31.991 31.991 0 0.003 0 0.006 0 0.009v0 224c0 0.003 0 0.006 0 0.010 0 70.687-57.303 127.99-127.99 127.99-0.003 0-0.007 0-0.010 0h0.001zM768 64h-512v192h512zM768 512h-512v320h384v-96c0-0.003 0-0.006 0-0.009 0-17.668 14.323-31.991 31.991-31.991 0.003 0 0.006 0 0.009 0h96zM864 368c-26.51 0-48 21.49-48 48s21.49 48 48 48c26.51 0 48-21.49 48-48v0c-0.007-26.507-21.493-47.993-47.999-48h-0.001z" />
<glyph unicode="&#xe94f;" glyph-name="qr" d="M0 521.143h438.857v438.857h-438.857zM146.286 813.714h146.286v-146.286h-146.286zM585.143 960v-438.857h438.857v438.857zM877.714 667.429h-146.286v146.286h146.286zM0-64h438.857v438.857h-438.857zM146.286 228.571h146.286v-146.286h-146.286zM950.857 374.857h73.143v-292.571h-219.429v73.143h-73.143v-219.429h-146.286v438.857h219.428v-73.143h146.286zM950.857 9.143h73.143v-73.143h-73.143zM804.571 9.143h73.143v-73.143h-73.143z" />
<glyph unicode="&#xe950;" glyph-name="question" d="M615.941 703.858c0 69.642-45.314 117.45-123.286 117.45-61.063 0-111.223-30.102-155.351-76.135l-97.304 86.756c66.632 77.508 164.333 126.689 273.553 128.068l0.239 0.002c157.774 0 270.208-84.391 270.208-244.338 0-187.683-235.128-254.38-213.991-444.428h-152.928c-31.421 215.431 198.861 299.243 198.861 432.624zM382.644 50.505c1.16 61.205 51.048 110.376 112.422 110.376 62.099 0 112.44-50.341 112.44-112.44s-50.341-112.44-112.44-112.44c-0.005 0-0.009 0-0.014 0h0.001c-0.28-0.003-0.61-0.004-0.941-0.004-61.584 0-111.508 49.924-111.508 111.508 0 1.055 0.015 2.107 0.044 3.155l-0.003-0.154z" />
<glyph unicode="&#xe951;" glyph-name="question-circle" d="M512 960c-282.77 0-512-229.23-512-512s229.23-512 512-512c282.77 0 512 229.23 512 512v0c0 282.77-229.23 512-512 512v0zM500.879 112c-0.525-0.013-1.143-0.021-1.762-0.021-41.724 0-75.548 33.824-75.548 75.548s33.824 75.548 75.548 75.548c41.724 0 75.548-33.824 75.548-75.548 0-0.135 0-0.269-0.001-0.404v0.021c0.020-0.645 0.032-1.404 0.032-2.165 0-40.308-32.676-72.984-72.984-72.984-0.293 0-0.585 0.002-0.877 0.005h0.044zM550.068 331.998h-100.359c-20.619 141.376 130.502 196.378 130.502 283.909 0 45.702-29.736 77.076-80.906 77.076-40.972-1.632-77.207-20.613-101.776-49.753l-0.173-0.211-63.856 56.935c43.727 50.864 107.844 83.139 179.52 84.044l0.156 0.002c103.539 0 177.324-55.381 177.324-160.347 0-123.166-154.303-166.937-140.432-291.655z" />
<glyph unicode="&#xe952;" glyph-name="question-circle-light" d="M512 960c-282.77 0-512-229.23-512-512s229.23-512 512-512c282.77 0 512 229.23 512 512v0c0 282.77-229.23 512-512 512v0zM512 32c-229.75 0-416 186.25-416 416s186.25 416 416 416c229.75 0 416-186.25 416-416v0c-0.268-229.642-186.357-415.732-415.974-416h-0.026zM574.664 187.144c-1.172-39.848-33.755-71.704-73.778-71.704-40.763 0-73.808 33.045-73.808 73.808 0 40.76 33.041 73.804 73.8 73.808h0.001c0.254 0.003 0.555 0.005 0.856 0.005 40.31 0 72.988-32.678 72.988-72.988 0-1.030-0.021-2.055-0.064-3.074l0.005 0.146zM690.5 623.653c0-123.166-154.303-166.936-140.432-291.655h-100.359c-20.619 141.376 130.502 196.378 130.502 283.909 0 45.702-29.736 77.076-80.906 77.076-40.972-1.632-77.207-20.614-101.776-49.753l-0.173-0.21-63.856 56.935c43.727 50.864 107.844 83.139 179.52 84.044l0.156 0.002c103.539 0 177.324-55.381 177.324-160.347z" />
<glyph unicode="&#xe953;" glyph-name="remove-boundary" d="M528.215 943.785c-251.147-0.041-458.653-186.839-491.203-429.077l-0.28-2.547c-22.098-12.804-36.723-36.341-36.723-63.294 0-40.265 32.641-72.906 72.906-72.906s72.906 32.641 72.906 72.906c0 23.658-11.269 44.684-28.732 58.004l-0.177 0.13c29.844 202.77 202.626 356.659 411.351 356.659 114.767 0 218.667-46.525 293.868-121.744l0.001-0.001c75.22-75.22 121.744-179.135 121.744-293.916 0-229.563-186.097-415.66-415.66-415.66 0 0-0.001 0-0.001 0v0l-0.234 0.006v-80.124l0.234-0.006c273.815 0 495.785 221.971 495.785 495.785s-221.971 495.785-495.785 495.785v0zM611.245 416l114.928 114.928c8.686 8.686 14.059 20.686 14.059 33.941s-5.373 25.255-14.059 33.941l-31.363 31.364c-8.686 8.686-20.686 14.059-33.94 14.059s-25.255-5.373-33.941-14.060l-114.928-114.928-114.928 114.928c-8.686 8.686-20.686 14.059-33.941 14.059s-25.255-5.373-33.941-14.059l-31.363-31.363c-8.686-8.686-14.059-20.686-14.059-33.941s5.373-25.255 14.059-33.941l114.928-114.928-114.928-114.927c-8.686-8.686-14.059-20.687-14.059-33.941s5.373-25.255 14.059-33.941l31.363-31.363c8.686-8.686 20.686-14.059 33.941-14.059s25.255 5.373 33.941 14.059l114.928 114.928 114.928-114.928c8.686-8.686 20.686-14.059 33.941-14.059s25.255 5.373 33.941 14.059l31.363 31.363c8.686 8.686 14.059 20.687 14.059 33.941s-5.373 25.255-14.059 33.941v0z" />
<glyph unicode="&#xe954;" glyph-name="running" d="M640 767.992c0.001 0 0.002 0 0.004 0 53.021 0 96.004 42.982 96.004 96.004s-42.982 96.004-96.004 96.004c-53.021 0-96.004-42.982-96.004-96.004v0c0-0.001 0-0.002 0-0.003 0-53.020 42.981-96.001 96-96.001v0zM323.38 325.035l-29.6-69.043h-133.78c-35.304-0.058-63.901-28.69-63.901-64.002s28.597-63.945 63.896-64.002h154.906c0.035 0 0.076 0 0.117 0 39.316 0 73.1 23.685 87.863 57.564l0.24 0.618 17.58 41.042-21.34 12.6c-33.356 20.154-59.505 49.276-75.492 84.039l-0.488 1.184zM864 512.003h-88.060l-52.12 106.504c-24.557 49.924-68.741 87.019-122.215 101.572l-1.345 0.312-142.16 42.282c-13.538 3.425-29.080 5.391-45.081 5.391-44.090 0-84.694-14.925-117.035-39.998l0.436 0.325-79.34-60.823c-15.265-11.814-24.999-30.14-24.999-50.74 0-35.343 28.651-63.993 63.993-63.993 14.694 0 28.232 4.953 39.035 13.28l-0.149-0.111 79.38 60.822c10.51 8.37 23.98 13.43 38.631 13.43 4.213 0 8.328-0.418 12.307-1.216l-0.398 0.067 29.4-8.74-74.92-174.786c-6.478-14.824-10.247-32.098-10.247-50.253 0-46.715 24.958-87.601 62.268-110.050l0.579-0.323 169.96-100.344-54.94-175.467c-1.854-5.716-2.923-12.294-2.923-19.121 0-35.343 28.651-63.993 63.993-63.993 28.516 0 52.675 18.651 60.944 44.42l0.126 0.453 63.28 202.128c2.281 7.815 3.594 16.793 3.594 26.077 0 34.953-18.602 65.562-46.446 82.466l-0.428 0.241-122.48 72.282 62.62 156.566 40.54-82.864c16.087-32.016 48.611-53.634 86.2-53.782h108c35.342 0 63.992 28.65 63.992 63.992s-28.65 63.992-63.992 63.992v0z" />
<glyph unicode="&#xe955;" glyph-name="running-square" d="M912 960h-800c-61.856 0-112-50.144-112-112v0-800c0-61.856 50.144-112 112-112v0h800c61.856 0 112 50.144 112 112v0 800c0 61.856-50.144 112-112 112v0zM608.004 832c0 0 0 0 0 0 39.766 0 72.003-32.237 72.003-72.003s-32.237-72.003-72.003-72.003c-39.766 0-72.003 32.237-72.003 72.003 0 0 0 0 0 0v0c0 0 0 0 0 0.001 0 39.766 32.237 72.002 72.002 72.002 0 0 0 0 0.001 0v0zM430.337 251.628c-11.253-25.873-36.592-43.637-66.079-43.637-0.031 0-0.062 0-0.094 0h-116.175c-26.511 0-48.002 21.491-48.002 48.002s21.491 48.002 48.002 48.002h100.339l22.201 51.781c12.358-26.96 31.97-48.802 56.35-63.559l0.638-0.358 16.006-9.45zM776.011 400.014h-80.988c-28.207 0.11-52.602 16.324-64.478 39.92l-0.19 0.416-30.406 62.148-46.967-117.424 91.863-54.213c21.205-12.858 35.157-35.815 35.157-62.030 0-6.963-0.984-13.696-2.821-20.068l0.126 0.51-47.462-151.596c-6.316-19.635-24.42-33.594-45.785-33.594-26.508 0-47.997 21.489-47.997 47.997 0 5.097 0.795 10.009 2.267 14.618l-0.094-0.34 41.206 131.6-127.474 75.259c-28.418 17.078-47.137 47.743-47.137 82.779 0 13.616 2.827 26.572 7.927 38.312l-0.241-0.622 56.192 131.090-22.051 6.556c-2.685 0.548-5.772 0.862-8.931 0.862-10.989 0-21.092-3.795-29.070-10.146l0.095 0.073-59.537-45.616c-7.998-6.182-18.167-9.909-29.206-9.909-26.507 0-47.996 21.488-47.996 47.996 0 15.468 7.317 29.227 18.678 38.004l0.111 0.083 59.507 45.617c23.93 18.561 54.385 29.754 87.454 29.754 12.001 0 23.657-1.474 34.798-4.251l-0.987 0.208 106.624-31.712c41.115-11.148 74.255-38.97 92.298-75.569l0.376-0.844 39.092-79.878h66.048c0.026 0 0.057 0 0.088 0 26.506 0 47.994-21.488 47.994-47.994s-21.488-47.994-47.994-47.994c-0.031 0-0.062 0-0.092 0h0.005z" />
<glyph unicode="&#xe956;" glyph-name="search-map-marker" d="M416 755.444c-88.366 0-160-71.634-160-160v0c0-64.511 22.475-82.526 143.557-258.058 3.661-5.23 9.657-8.608 16.443-8.608s12.782 3.378 16.4 8.544l0.043 0.064c121.082 175.533 143.557 193.548 143.557 258.058 0 88.366-71.634 160-160 160v0zM416 512.111c-46.024 0-83.333 37.31-83.333 83.333s37.31 83.333 83.333 83.333c46.024 0 83.333-37.31 83.333-83.333v0c0-46.024-37.31-83.333-83.333-83.333v0zM420.28 832c161.171-0.103 291.785-130.781 291.785-291.966 0-64.636-21.004-124.366-56.558-172.738l0.569 0.811-27.18-37.247-37.31-27.156c-47.183-34.805-106.479-55.705-170.656-55.705-0.229 0-0.457 0-0.686 0.001h0.035c-161.267 0-292 130.733-292 292s130.733 292 292 292v0zM420.28 960c-0.071 0-0.155 0-0.239 0-231.96 0-420-188.040-420-420s188.040-420 420-420c92.784 0 178.542 30.087 248.048 81.036l-1.177-0.823 264.115-264.214 92.479 92.525-264.032 264.128c50.359 68.428 80.592 154.373 80.592 247.38 0 231.878-187.923 419.863-419.776 419.966h-0.010z" />
<glyph unicode="&#xe957;" glyph-name="share" d="M837.394 960c-85.898-0.524-155.328-70.279-155.328-156.25 0-10.36 1.008-20.484 2.932-30.28l-0.162 0.989-384.145-220.688c-28.127 31.447-68.784 51.184-114.053 51.311h-0.023c-85.813-1.995-154.615-72.032-154.615-158.139s68.802-156.144 154.429-158.135l0.185-0.003c45.999 0.104 87.23 20.425 115.297 52.544l0.154 0.18 380.021-228.42c-0.78-5.615-1.273-12.188-1.364-18.857l-0.001-0.114c2.321-83.615 70.657-150.513 154.619-150.513 85.424 0 154.675 69.25 154.675 154.675s-69.25 154.675-154.675 154.675c-0.001 0-0.003 0-0.004 0v0c-47.538-0.151-89.963-21.911-117.988-55.967l-0.211-0.265-377.266 227.722c0.874 6.312 1.373 13.605 1.373 21.014 0 0.515-0.002 1.029-0.007 1.543l0.001-0.079c-0.018 8.95-0.771 17.71-2.202 26.24l0.129-0.934 384.834 221.385c28.079-31.018 68.449-50.46 113.363-50.594h0.024c85.601 0.955 154.625 70.57 154.625 156.306 0 0.639-0.004 1.276-0.011 1.913l0.001-0.097c0.008 0.572 0.012 1.248 0.012 1.924 0 85.86-68.953 155.615-154.504 156.91l-0.122 0.001z" />
<glyph unicode="&#xe958;" glyph-name="sliders" d="M992 192h-672v32c-0.053 17.652-14.348 31.947-31.995 32h-64.005c-17.652-0.053-31.947-14.348-32-31.995v-32.005h-160c-17.652-0.053-31.947-14.348-32-31.995v-64.005c0.053-17.652 14.348-31.947 31.995-32h160.005v-32c0.053-17.652 14.348-31.947 31.995-32h64.005c17.652 0.053 31.947 14.348 32 31.995v32.005h672c17.652 0.053 31.947 14.348 32 31.995v64.005c-0.053 17.652-14.348 31.947-31.995 32h-0.005zM992 512h-160v32c-0.053 17.652-14.348 31.947-31.995 32h-64.005c-17.652-0.053-31.947-14.348-32-31.995v-32.005h-672c-17.652-0.053-31.947-14.348-32-31.995v-64.005c0.053-17.652 14.348-31.947 31.995-32h672.005v-32c0.053-17.652 14.348-31.947 31.995-32h64.005c17.652 0.053 31.947 14.348 32 31.995v32.005h160c17.652 0.053 31.947 14.348 32 31.995v64.005c-0.053 17.652-14.348 31.947-31.995 32h-0.005zM992 832h-416v32c-0.053 17.652-14.348 31.947-31.995 32h-64.005c-17.652-0.053-31.947-14.348-32-31.995v-32.005h-416c-17.652-0.053-31.947-14.348-32-31.995v-64.005c0.053-17.652 14.348-31.947 31.995-32h416.005v-32c0.053-17.652 14.348-31.947 31.995-32h64.005c17.652 0.053 31.947 14.348 32 31.995v32.005h416c17.652 0.053 31.947 14.348 32 31.995v64.005c-0.053 17.652-14.348 31.947-31.995 32h-0.005z" />
<glyph unicode="&#xe959;" glyph-name="snapchat" d="M1021.692 175.415c-10.422-24.246-54.478-42.061-134.72-54.484-4.687-12.931-9.179-28.946-12.593-45.357l-0.421-2.422c-2.521-10.262-11.642-17.754-22.513-17.754-0.613 0-1.221 0.024-1.823 0.071l0.080-0.005-0.594 0.010c-18.79 0-38.406 8.622-77.704 8.622-53.042 0-71.324-12.052-112.508-41.062-43.664-30.79-85.542-57.368-148.053-54.646-63.292-4.655-116.049 33.722-145.741 54.656-41.428 29.205-59.656 41.050-112.482 41.050-29.463-2.062-56.113-5.406-82.297-10.096l4.593 0.682c-0.538-0.043-1.164-0.068-1.796-0.068-11.105 0-20.428 7.63-23.013 17.934l-0.035 0.164c-3.805 18.919-8.309 35.055-13.841 50.706l0.795-2.58c-41.358 6.4-134.619 22.625-136.995 64.121-0.020 0.342-0.031 0.743-0.031 1.146 0 10.504 7.636 19.225 17.66 20.913l0.125 0.017c139.166 22.846 201.848 165.341 204.454 171.39 0.148 0.351 0.31 0.686 0.474 1.027 4.352 6.825 6.936 15.145 6.936 24.068 0 4.759-0.735 9.346-2.098 13.654l0.087-0.32c-10.1 23.726-53.744 32.238-72.106 39.482-47.43 18.68-54.030 40.144-51.224 54.855 4.874 25.6 43.45 41.355 66.004 30.82 13.68-7.18 29.767-11.729 46.832-12.549l0.262-0.010c0.461-0.019 1.001-0.029 1.544-0.029 6.701 0 13.025 1.611 18.607 4.466l-0.231-0.107c-4.086 71.672-14.202 174.095 11.374 231.293 43.321 96.658 138.688 162.772 249.496 162.772 1.215 0 2.429-0.008 3.64-0.024l-0.184 0.002c1.888 0 18.282 0.177 20.22 0.177 1.539 0.031 3.354 0.049 5.173 0.049 110.506 0 205.543-66.226 247.589-161.154l0.683-1.728c25.554-57.141 15.498-159.14 11.39-231.373 5.001-2.599 10.906-4.165 17.166-4.266h0.032c16.319 1.39 31.31 5.847 44.81 12.794l-0.672-0.314c6.018 2.502 13.008 3.955 20.338 3.955 7.437 0 14.526-1.496 20.98-4.204l-0.358 0.133 0.058-0.020c16.698-4.264 29.187-18.258 31.159-35.45l0.018-0.191c0.368-19.44-17.044-36.229-51.756-49.897-4.236-1.665-9.388-3.301-14.868-5.036-19.594-6.195-49.2-15.567-57.232-34.446-1.277-3.989-2.014-8.578-2.014-13.339 0-8.918 2.583-17.232 7.042-24.236l-0.109 0.183c0.174-0.335 0.332-0.682 0.478-1.027 2.602-6.043 65.23-148.506 204.459-171.39 10.287-1.858 17.989-10.744 17.989-21.429 0-3.733-0.94-7.246-2.596-10.316l0.057 0.116z" />
<glyph unicode="&#xe95a;" glyph-name="snapchat-square" d="M914.286 960h-804.572c-60.587-0.016-109.698-49.127-109.714-109.713v-804.574c0.016-60.587 49.127-109.698 109.713-109.714h804.573c60.587 0.016 109.698 49.127 109.714 109.713v804.574c-0.016 60.587-49.127 109.698-109.713 109.714h-0.002zM899.429 240.229c-8-18.514-41.372-32-102.4-41.6-3.559-9.856-6.953-22.042-9.518-34.53l-0.311-1.813c-1.904-7.823-8.849-13.54-17.13-13.54-0.487 0-0.969 0.020-1.447 0.059l0.063-0.004h-0.457c-14.172 0-29.257 6.629-58.972 6.629-40.228 0-54.171-9.143-85.486-31.314-33.143-23.543-64.914-43.657-112.457-41.6-48-3.657-88.229 25.6-110.857 41.6-31.543 22.172-45.257 31.314-85.486 31.314-22.378-1.56-42.606-4.077-62.486-7.602l3.515 0.516c-0.407-0.033-0.882-0.051-1.361-0.051-8.466 0-15.579 5.798-17.583 13.64l-0.027 0.126c-2.89 14.413-6.284 26.678-10.44 38.584l0.612-2.013c-31.543 4.8-102.4 17.143-104 48.914-0.018 0.288-0.029 0.624-0.029 0.963 0 7.993 5.799 14.631 13.419 15.937l0.096 0.014c105.828 17.371 153.371 125.943 155.428 130.514 0 0.229 0.229 0.457 0.457 0.686 3.301 5.166 5.261 11.465 5.261 18.222 0 3.697-0.587 7.257-1.672 10.591l0.068-0.242c-7.772 18.057-40.914 24.457-54.857 30.172-36.114 14.171-41.143 30.628-38.857 41.828 5.589 15.208 19.948 25.861 36.794 25.861 4.758 0 9.317-0.85 13.534-2.405l-0.271 0.087c10.415-5.52 22.68-9.002 35.698-9.593l0.187-0.007c0.325-0.012 0.706-0.019 1.089-0.019 5.093 0 9.908 1.188 14.184 3.302l-0.187-0.084c-3.2 54.629-10.743 132.572 8.686 176.229 32.945 73.699 105.611 124.126 190.056 124.126 0.764 0 1.527-0.004 2.289-0.012l-0.116 0.001c1.372 0 13.943 0.229 15.314 0.229 1.138 0.023 2.481 0.036 3.826 0.036 84.127 0 156.46-50.496 188.342-122.833l0.518-1.317c19.429-43.657 11.886-121.372 8.686-176.229 3.784-1.994 8.266-3.174 13.020-3.2h0.008c12.431 1.065 23.843 4.494 34.099 9.837l-0.499-0.237c4.601 1.898 9.943 3 15.543 3s10.942-1.102 15.821-3.101l-0.279 0.101c12.708-3.306 22.207-13.96 23.757-27.050l0.014-0.15c0.229-14.857-13.029-27.657-39.314-37.943-3.2-1.371-7.086-2.514-11.2-3.886-14.857-4.8-37.486-11.886-43.429-26.286-0.968-3.060-1.525-6.579-1.525-10.228 0-6.787 1.929-13.124 5.269-18.492l-0.086 0.149c0.229-0.229 0.229-0.457 0.457-0.686 2.057-4.571 49.6-113.143 155.428-130.514 7.546-2.076 12.997-8.876 12.997-16.95 0-2.817-0.664-5.479-1.843-7.838l0.046 0.102z" />
<glyph unicode="&#xe95b;" glyph-name="sort" d="M608 128h-128c-17.673 0-32-14.327-32-32v0-64c0-17.673 14.327-32 32-32v0h128c17.673 0 32 14.327 32 32v0 64c0 17.673-14.327 32-32 32v0zM352 256h-96v608c0 17.673-14.327 32-32 32v0h-64c-17.673 0-32-14.327-32-32v0-608h-96c-17.644-0.047-31.929-14.36-31.929-32.010 0-8.827 3.573-16.819 9.351-22.61l-0.001 0.001 160-192c5.79-5.786 13.787-9.365 22.62-9.365s16.83 3.579 22.62 9.365v0l160 192c5.745 5.791 9.295 13.766 9.295 22.57 0 17.668-14.295 31.996-31.95 32.050h-0.005zM864 640h-384c-17.673 0-32-14.327-32-32v0-64c0-17.673 14.327-32 32-32v0h384c17.673 0 32 14.327 32 32v0 64c0 17.673-14.327 32-32 32v0zM736 384h-256c-17.673 0-32-14.327-32-32v0-64c0-17.673 14.327-32 32-32v0h256c17.673 0 32 14.327 32 32v0 64c0 17.673-14.327 32-32 32v0zM992 896h-511.999c-17.673 0-32-14.327-32-32v0-64c0-17.673 14.327-32 32-32v0h511.999c17.673 0 32 14.327 32 32v0 64c0 17.673-14.327 32-32 32v0z" />
<glyph unicode="&#xe95c;" glyph-name="star" d="M769.063 306.683l60.611-370.683-317.674 175.169-317.674-175.169 60.611 370.683-254.937 260.634 352.497 53.727 159.503 338.957 159.503-338.957 352.497-53.727z" />
<glyph unicode="&#xe95d;" glyph-name="star-light" d="M829.674-64l-317.674 175.168-317.674-175.168 60.612 370.682-254.938 260.634 352.497 53.727 159.503 338.957 159.503-338.957 352.497-53.727-254.938-260.634zM512 189.626l226.918-125.116-43.402 265.321 185.64 189.794-256.363 39.068-112.793 239.698-112.793-239.698-256.363-39.068 185.64-189.794-43.402-265.321z" />
<glyph unicode="&#xe95e;" glyph-name="times" d="M699.435 448l246.008 246.008c8.994 8.994 14.557 21.419 14.557 35.144s-5.563 26.15-14.557 35.144l-117.147 117.146c-8.994 8.994-21.419 14.557-35.144 14.557s-26.15-5.563-35.144-14.557l-246.008-246.007-246.008 246.008c-8.994 8.994-21.419 14.557-35.144 14.557s-26.15-5.563-35.144-14.557l-117.147-117.146c-8.994-8.994-14.557-21.419-14.557-35.144s5.563-26.15 14.557-35.144l246.008-246.009-246.008-246.008c-8.994-8.994-14.557-21.419-14.557-35.144s5.563-26.15 14.557-35.144l117.147-117.147c8.994-8.994 21.419-14.557 35.144-14.557s26.15 5.563 35.144 14.557l246.008 246.008 246.008-246.007c8.994-8.994 21.419-14.557 35.144-14.557s26.15 5.563 35.144 14.557l117.146 117.146c8.994 8.994 14.557 21.419 14.557 35.144s-5.563 26.15-14.557 35.144v0z" />
<glyph unicode="&#xe95f;" glyph-name="trash" d="M928 896h-240l-18.8 37.4c-8.044 15.894-24.255 26.6-42.966 26.6-0.012 0-0.024 0-0.036 0h-228.598c-0.054 0-0.118 0-0.182 0-18.614 0-34.725-10.721-42.493-26.325l-0.124-0.276-18.8-37.4h-240c-17.673 0-32-14.327-32-32v0-64c0-17.673 14.327-32 32-32v0h832c17.673 0 32 14.327 32 32v0 64c0 17.673-14.327 32-32 32v0zM170.4 26c3.25-50.369 44.897-89.993 95.799-90h491.601c50.903 0.007 92.549 39.63 95.785 89.717l0.015 0.283 42.4 678h-768z" />
<glyph unicode="&#xe960;" glyph-name="twitter" d="M918.744 658.708c0.65-9.189 0.65-18.381 0.65-27.57 0-280.286-211.167-603.241-597.118-603.241-0.395-0.001-0.862-0.002-1.329-0.002-119.347 0-230.4 35.514-323.166 96.551l2.22-1.372c14.261-1.678 30.781-2.636 47.524-2.636 1.11 0 2.218 0.004 3.326 0.013l-0.17-0.001c0.248-0.001 0.542-0.001 0.836-0.001 98.548 0 189.124 34.136 260.547 91.229l-0.834-0.644c-91.775 2.028-168.906 62.483-195.808 145.547l-0.417 1.489c11.853-1.996 25.568-3.185 39.542-3.281l0.094-0.001c19.657 0.060 38.674 2.691 56.767 7.573l-1.539-0.354c-96.781 20.733-168.289 105.543-168.289 207.055 0 0.361 0.001 0.722 0.003 1.083v-0.055 2.624c27.312-15.69 59.799-25.498 94.452-26.899l0.41-0.013c-56.795 39.006-93.563 103.595-93.563 176.773 0 39.319 10.615 76.158 29.135 107.809l-0.546-1.010c103.488-128.333 257.43-212.385 431.224-221.802l1.508-0.065c-3.214 14.563-5.102 31.321-5.198 48.503v0.070c-0.002 0.346-0.003 0.754-0.003 1.163 0 116.107 93.843 210.297 209.819 210.857h0.053c0.090 0 0.196 0 0.302 0 60.43 0 114.853-25.724 152.915-66.818l0.124-0.136c50.244 9.98 94.888 27.759 135.007 52.225l-1.809-1.025c-16.149-49.739-48.787-90.345-91.336-116.314l-0.928-0.527c44.802 5.271 85.644 16.838 123.487 33.88l-2.635-1.061c-29.255-42.686-64.12-78.938-104.063-108.766l-1.194-0.853z" />
</font>
</defs>
</svg>
