<svg xmlns="http://www.w3.org/2000/svg" width="77" height="70" viewBox="0 0 512 465.16321"><defs><style>.cls-1{fill:#0089fe;}</style></defs><g id="Layer_9" data-name="Layer 9"><path class="cls-1" d="M512,153.76825v91.42857H466.83975l-5.92963-16.13445h34.95543V169.9027H439.16826l-5.92955-16.13445ZM356.03361,304.35649H512v91.42857H404.437V379.6506h91.42858V320.49094H329.14286V379.6506h21.63058l-1.00729,16.13446H114.01681V320.49094H0V229.06237H114.01681V169.9027H1.07563V78.47413H352.04057l-5.84946,16.13446H203.41039v59.15966H324.743L313.0084,186.1357v-16.233H130.15126v59.15967H297.44558l-5.84947,16.13445H192.45063v59.15967H341.59979V256.327l14.43382-.269ZM188.23529,153.76825V94.60859H16.25072v59.15966ZM114.01681,304.35649h64V245.19682H14.43382v59.15967ZM313.0084,320.49094H130.15126V379.6506H313.0084Zm150.86148-52.04477H386.15126V321.763c15.68619,3.63806,27.42857,18.39227,27.42857,36.05094v70.43028c0,20.38977-15.65119,36.919-34.95792,36.919h-.00013c-19.30672,0-34.95791-16.52922-34.95791-36.919V357.81394c0-17.65867,11.74238-32.41288,27.42857-36.05094V268.44617H293.37382A16.05105,16.05105,0,0,1,278.275,246.949l85.248-236.344a16.05112,16.05112,0,0,1,30.19788,0l85.248,236.344A16.05105,16.05105,0,0,1,463.86988,268.44617Zm-85.248,69.48838c-10.37939,0-18.82359,8.9178-18.82359,19.87939v70.43028c0,10.9616,8.44413,19.8794,18.82346,19.8794s18.8236-8.9178,18.8236-19.8794V357.81394C397.44538,346.85235,389.00125,337.93455,378.62191,337.93455Zm86.1814-85.876L379.55521,15.71448c-.13727-.38064-.23641-.65566-.93336-.65566s-.79609.275-.93337.6556l-85.248,236.344a.99215.99215,0,0,0,.9333,1.32891h77.71862V224.90527a2.83963,2.83963,0,0,1,2.83968-2.83968h9.37946a2.83964,2.83964,0,0,1,2.83968,2.83968v28.48207h77.71862a.99225.99225,0,0,0,.93343-1.32878Z"/></g></svg>
