<svg xmlns="http://www.w3.org/2000/svg" width="77" height="70" viewBox="0 0 512 465"><defs><style>.cls-1{fill:#0089fe;}</style></defs><g id="Layer_8" data-name="Layer 8"><path class="cls-1" d="M360.84891,0H40.0943C17.9869,0,0,15.20367,0,33.89038V249.55627c0,18.68671,17.9869,33.89045,40.0943,33.89045h5.6706V355.6142c0,3.738,2.6639,7.109,6.7502,8.53882a12.66408,12.66408,0,0,0,4.1818.7041,12.03429,12.03429,0,0,0,7.7355-2.70673l93.0132-78.62207v-18.5672h-4.43271a12.03156,12.03156,0,0,0-7.73269,2.7066L67.6345,333.30017V274.20392c0-5.10523-4.895-9.2428-10.9348-9.2428H40.0943c-10.0492,0-18.2246-6.91052-18.2246-15.40485V33.89038c0-8.49426,8.1754-15.40466,18.2246-15.40466H360.84891c10.04919,0,18.22458,6.9104,18.22458,15.40466V77.96021h21.86972V33.89038C400.94321,15.20367,382.957,0,360.84891,0ZM478.074,100.14288H206.66631a33.947,33.947,0,0,0-33.92591,33.89045v215.666a33.94694,33.94694,0,0,0,33.92591,33.89044h83.98838V365.10413H206.66631a15.43024,15.43024,0,0,1-15.4209-15.40485V134.03333a15.43021,15.43021,0,0,1,15.4209-15.40473H478.074a15.4302,15.4302,0,0,1,15.42089,15.40473v215.666A15.43024,15.43024,0,0,1,478.074,365.10413H418.0928a9.24692,9.24692,0,0,0-9.25259,9.24279v59.09626L343.14,367.81073a9.26063,9.26063,0,0,0-6.543-2.7066h-3.75067v18.5672l78.7034,78.622a9.25463,9.25463,0,0,0,15.7956-6.53613V383.58972H478.074A33.94734,33.94734,0,0,0,512,349.69928V134.03333a33.94739,33.94739,0,0,0-33.926-33.89045Zm-47.5943,83.18555H254.2606a7.5,7.5,0,0,0-7.5,7.5v3.48566a7.50005,7.50005,0,0,0,7.5,7.5H430.47971a7.5,7.5,0,0,0,7.5-7.5v-3.48566a7.5,7.5,0,0,0-7.5-7.5Zm0,49.295H254.2606a7.50005,7.50005,0,0,0-7.5,7.5v3.48572a7.50005,7.50005,0,0,0,7.5,7.5H430.47971a7.5,7.5,0,0,0,7.5-7.5v-3.48572a7.5,7.5,0,0,0-7.5-7.5Zm0,49.29511H254.2606a7.5,7.5,0,0,0-7.5,7.5v3.48559a7.5,7.5,0,0,0,7.5,7.5H430.47971a7.49992,7.49992,0,0,0,7.5-7.5v-3.48559a7.5,7.5,0,0,0-7.5-7.5Z"/></g></svg>
