<svg  xmlns="http://www.w3.org/2000/svg" width="512" height="512" viewBox="0 0 512 512"><defs><style>.cls-1{fill:#f0f5f7;}.cls-2{fill:#427297;}.cls-3{fill:#9fd9f1;}.cls-4{fill:#fff;}.cls-5{fill:#d9222f;}</style></defs><g id="Layer_7" data-name="Layer 7"><circle class="cls-1" cx="256" cy="256" r="256"/><g id="Layer_5" data-name="Layer 5"><path class="cls-2" d="M421,219.41505V401.81218a30.00893,30.00893,0,0,1-14.2876,25.82561,23.251,23.251,0,0,1-12.01706,3.52414q-139.4227.00074-278.84541.00161c-16.82366.00015-24.47691-7.57505-24.4786-24.27208-.00589-57.97085.53877-115.95015-.36349-173.907-.24232-15.56584,5.12508-25.89435,16.98634-34.87525,13.51636-10.23406,26.20444-21.56278,38.94767-32.16219.08365-.8346.13632-1.11623.13658-1.39793.01025-10.772-.02893-21.54433.03365-32.316.07035-12.11105,7.82281-19.89658,19.946-19.96447,13.31842-.07459,26.64161.15585,39.95315-.15579a14.86293,14.86293,0,0,0,8.25966-3.03892c9.6761-7.61448,18.98415-15.69457,28.55094-23.45121,7.80008-6.32422,16.72256-6.3949,24.46248-.13,9.57408,7.74949,18.85933,15.8593,28.52031,23.49576a14.83644,14.83644,0,0,0,8.23183,3.12027c13.41445.31786,26.841.07178,40.26235.16512a19.87292,19.87292,0,0,1,19.72691,19.8165c.0316,11.18142.00677,22.363.00677,33.73533,11.59087,9.63008,23.32408,18.98317,34.58938,28.86978C407.83928,201.90712,418.68655,207.02982,421,219.41505Zm-64.71983,30.81756c0-39.65982.04678-78.911-.04318-118.16185-.01616-7.05413-4.23147-10.58476-11.97223-10.58636q-87.97946-.01822-175.95893.00213c-8.78583.00211-12.34712,3.58073-12.35167,12.361q-.02141,41.24113-.00488,82.48229.00008,16.9776,0,33.983c28.72766,23.8553,57.35729,47.42406,85.74262,71.28368,14.97665,12.58882,14.82184,11.57847,28.84293-.1177C299.0119,297.72365,327.57584,274.07277,356.28017,250.23261Zm47.74768,171.3006c-40.51854-33.64555-80.10726-66.519-118.05216-98.02747-10.59375,5.69514-20.64487,17.38262-29.85642,17.38262-9.75642-.02561-19.38614-11.63238-30.103-17.26783C188.113,355.09772,148.55641,387.9479,108.1146,421.53321ZM291.37146,316.02529c39.99983,33.20844,79.43493,65.948,119.50286,99.213V216.78251ZM101.00812,415.48141,219.975,316.67015q-59.99781-49.27471-118.96686-97.7045Zm303.3918-205.184c-13.12315-10.87742-25.831-21.41066-38.96436-32.29653v64.67839C378.70674,231.65,391.38364,221.11472,404.39992,210.29737Zm-296.68667.01513,39.11747,32.44155V177.86561Zm118.42276-98.331h59.96614c-9.19671-7.486-17.27265-14.46232-25.86291-20.73371-1.85923-1.35734-6.41193-1.33712-8.27931.02725C243.36968,97.55133,235.2912,104.52858,226.136,111.98145Z"/><path class="cls-3" d="M356.28017,250.23261c-28.70433,23.84016-57.26827,47.491-85.74532,71.24614-14.02109,11.69617-13.86628,12.70652-28.84293.1177-28.38533-23.85962-57.015-47.42838-85.74262-71.28368q0-17.01925,0-33.983-.00016-41.24115.00488-82.48229c.00455-8.78025,3.56584-12.35887,12.35167-12.361q87.97946-.02112,175.95893-.00213c7.74076.0016,11.95607,3.53223,11.97223,10.58636C356.327,171.32162,356.28017,210.57279,356.28017,250.23261Z"/><path class="cls-4" d="M404.02785,421.53321H108.1146c40.44181-33.58531,79.9984-66.43549,117.90169-97.91268,10.71684,5.63545,20.34656,17.24222,30.103,17.26783,9.56777.02513,19.26267-11.68748,29.85642-17.38262C323.92059,355.01419,363.50931,387.88766,404.02785,421.53321Z"/><path class="cls-4" d="M291.37146,316.02529l119.50286-99.24278V415.23829C370.80639,381.97329,331.37129,349.23373,291.37146,316.02529Z"/><path class="cls-4" d="M101.00812,415.48141V218.96565q59.14346,48.573,118.96686,97.7045Z"/><path class="cls-3" d="M404.39992,210.29737c-13.01628,10.81735-25.69318,21.35265-38.96436,32.38186V178.00084C378.56889,188.88671,391.27677,199.42,404.39992,210.29737Z"/><path class="cls-3" d="M107.71325,210.3125l39.11747-32.44689v64.88844Z"/><path class="cls-3" d="M226.136,111.98145c9.15519-7.45287,17.23367-14.43012,25.82392-20.70646,1.86738-1.36437,6.42008-1.38459,8.27931-.02725,8.59026,6.27139,16.6662,13.24775,25.86291,20.73371Z"/><polygon class="cls-3" points="144.876 241.133 160.492 254.083 165.33 230.054 144.024 230.054 144.876 241.133"/><rect class="cls-4" x="174.70419" y="174.65898" width="161.92458" height="51.13408" rx="15"/><path class="cls-5" d="M203.54638,185.2393h3.84837v6.10712l-.16021,3.16675a7.57428,7.57428,0,0,1,5.25157-2.48554c3.51422,0,5.051,2.3786,5.051,6.52117v10.28966h-3.84838v-9.79488c0-2.69943-.77525-3.71521-2.55254-3.71521-1.44314,0-2.39192.70826-3.74143,2.04487v11.46522h-3.84837Z"/><path class="cls-5" d="M222.76411,203.306v-7.817h-2.33824v-2.8867l2.53881-.17352.45442-4.47673h3.1938v4.47673h4.18252V195.489H226.6129v7.81035c0,1.93126.7482,2.88,2.32491,2.88a5.14491,5.14491,0,0,0,1.71072-.37451l.65457,2.833a10.63683,10.63683,0,0,1-3.354.60131C224.1673,209.23919,222.76411,206.84727,222.76411,203.306Z"/><path class="cls-5" d="M234.15734,203.306v-7.817H231.8191v-2.8867l2.53881-.17352.45441-4.47673h3.1938v4.47673h4.18253V195.489h-4.18253v7.81035c0,1.93126.74821,2.88,2.32492,2.88a5.14479,5.14479,0,0,0,1.71071-.37451l.65458,2.833a10.63683,10.63683,0,0,1-3.354.60131C235.56053,209.23919,234.15734,206.84727,234.15734,203.306Z"/><path class="cls-5" d="M245.64419,192.42878h3.15344l.2942,1.75066h.107a7.93523,7.93523,0,0,1,4.944-2.15181c4.10263,0,6.4546,3.28743,6.4546,8.35215,0,5.61235-3.354,8.85941-7.00223,8.85941a6.5534,6.5534,0,0,1-4.22289-1.80392l.12027,2.72606V215.333h-3.84838Zm10.99749,7.99095c0-3.2737-1.069-5.21162-3.5679-5.21162a5.197,5.197,0,0,0-3.58121,1.84429v7.64348a5.11555,5.11555,0,0,0,3.28742,1.36324C254.97134,206.05912,256.64168,204.13452,256.64168,200.41973Z"/><path class="cls-5" d="M262.72384,206.95422l1.791-2.44518a7.24187,7.24187,0,0,0,4.53,1.83055c1.791,0,2.63244-.84183,2.63244-1.96455,0-1.37614-1.77688-1.99076-3.52795-2.65907-2.1514-.80854-4.60989-2.04445-4.60989-4.78383,0-2.84633,2.2987-4.90451,5.97313-4.90451a8.84077,8.84077,0,0,1,5.45214,1.96455l-1.76356,2.36528a6.13153,6.13153,0,0,0-3.59537-1.42982c-1.65037,0-2.43186.78857-2.43186,1.81724,0,1.29625,1.657,1.79061,3.43474,2.4456,2.218.82851,4.7031,1.89755,4.7031,4.95736,0,2.81969-2.23129,5.09135-6.37345,5.09135A10.26024,10.26024,0,0,1,262.72384,206.95422Z"/><path class="cls-5" d="M278.42027,195.22143a2.48775,2.48775,0,1,1,2.48513,2.59249A2.497,2.497,0,0,1,278.42027,195.22143Zm0,11.42568a2.48773,2.48773,0,1,1,2.48513,2.59208A2.49711,2.49711,0,0,1,278.42027,206.64711Z"/><path class="cls-5" d="M293.68809,185.119h2.60581l-7.80328,29.06461h-2.6058Z"/><path class="cls-5" d="M305.18077,185.119h2.60581l-7.80327,29.06461H297.3775Z"/></g></g></svg>
