<svg  xmlns="http://www.w3.org/2000/svg" width="227" height="170" viewBox="0 0 512 512"><defs><style>.cls-1{fill:#f0f5f7;}.cls-2{fill:#0089fe;}.cls-3{fill:#1b4379;}</style></defs><g id="Layer_3" data-name="Layer 3"><circle class="cls-1" cx="256" cy="256" r="253.34868"/><polygon class="cls-2" points="177.553 245.089 161.785 248.635 160.229 232.348 151.119 232.348 149.563 248.664 133.795 245.089 131 253.65 145.759 260.108 137.456 274.319 144.777 279.652 155.732 267.055 166.57 279.652 173.892 274.319 165.504 260.108 180.35 253.65 177.553 245.089"/><polygon class="cls-2" points="244.437 245.089 228.668 248.635 227.112 232.348 218.002 232.348 216.447 248.664 200.678 245.089 197.883 253.65 212.642 260.108 204.34 274.319 211.661 279.652 222.616 267.055 233.454 279.652 240.775 274.319 232.388 260.108 247.233 253.65 244.437 245.089"/><polygon class="cls-2" points="311.32 245.089 295.552 248.635 293.996 232.348 284.886 232.348 283.33 248.664 267.562 245.089 264.767 253.65 279.526 260.108 271.223 274.319 278.544 279.652 289.499 267.055 300.337 279.652 307.659 274.319 299.271 260.108 314.117 253.65 311.32 245.089"/><polygon class="cls-2" points="381 253.65 378.204 245.089 362.435 248.635 360.879 232.348 351.769 232.348 350.214 248.664 334.445 245.089 331.65 253.65 346.409 260.108 338.107 274.319 345.428 279.652 356.383 267.055 367.221 279.652 374.542 274.319 366.155 260.108 381 253.65"/><path class="cls-3" d="M251.92346,56.00079A199.99228,199.99228,0,0,0,73.27148,167.1599l.00013.00007H90.135a185.43808,185.43808,0,0,1,165.35571-96.1363c58.527.92438,112.63953,28.877,148.01233,77.92408a178.937,178.937,0,0,1,31.4961,76.14972c9.46972,58.80755-8.3949,115.98486-47.91919,157.83276A184.99509,184.99509,0,0,1,67.5376,259.90844L77.515,270.22558a5.646,5.646,0,0,0,8.17347,0l.4458-.46088a6.121,6.121,0,0,0,0-8.45172l-21.5481-22.28143-.44555-.46088a5.646,5.646,0,0,0-8.17359,0L33.97339,261.313a6.121,6.121,0,0,0,0,8.45172l.44556.46088a5.64608,5.64608,0,0,0,8.17358,0l9.94726-10.28589C54.64038,368.5769,143.35034,456,252.49,456c108.22827,0,196.37805-85.96612,199.89124-193.34C456.07312,149.821,364.82227,55.68768,251.92346,56.00079Z"/></g></svg>
