<svg  xmlns="http://www.w3.org/2000/svg" width="77" height="70" viewBox="0 0 440 512"><defs><style>.cls-1{fill:#0089fe;}</style></defs><g id="Layer_11" data-name="Layer 11"><path class="cls-1" d="M219.99993,25.96675C319.157,87.94721,385.24017,103.72607,417.187,107.48657c3.99129,71.91645-3.10486,136.1527-21.14523,191.16987-15.47923,47.20634-39.04814,87.83019-70.0522,120.7429a277.90738,277.90738,0,0,1-75.433,56.84348,214.59713,214.59713,0,0,1-30.55661,12.85323,214.59145,214.59145,0,0,1-30.55647-12.85323,277.9052,277.9052,0,0,1-75.433-56.84334c-31.00406-32.91285-54.573-73.5367-70.0522-120.743C25.91787,243.63927,18.82172,179.403,22.813,107.48657c31.94682-3.7605,98.02987-19.53923,197.18692-81.51982M220.00007,0V0Zm-.00014,0V.00013C93.7426,81.43812,22.08144,86.58973,5.976,86.58973c-2.33166,0-3.497-.10782-3.497-.10782C-27.23558,452.45157,219.98853,511.99731,219.99993,512h.00014c.0114-.00269,247.23551-59.54843,217.52092-425.51809,0,0-1.16763.10782-3.497.10782-16.09877,0-87.75781-5.14591-214.02389-86.5896L219.99993,0Zm.00014,92.35755c36.96558,22.86158,71.65586,39.56716,103.2715,49.71919a234.75157,234.75157,0,0,0,37.36213,9.00444c2.34757,50.42482-2.84275,95.51394-15.47657,134.26308-11.123,34.11523-28.04994,63.46966-50.3107,87.24782-30.2286,32.28933-62.56056,45.7552-74.8465,49.99568-12.28567-4.24041-44.61723-17.70614-74.8457-49.99494-22.26089-23.77809-39.188-53.13259-50.311-87.24789C82.20918,246.59565,77.01873,201.5062,79.36643,151.08111a234.77838,234.77838,0,0,0,37.36664-9.006c31.61485-10.15231,66.3034-26.85708,103.267-49.71752m0-25.92855h-.00014c-93.49515,60.30576-146.56109,64.12064-158.48734,64.12064-1.72657,0-2.58953-.07989-2.58953-.07989C36.919,401.4748,219.99145,445.56912,219.99993,445.57107h.00014c.00848-.002,183.081-44.09627,161.07687-315.10132,0,0-.86455.07989-2.58953.07989-11.92134,0-64.9857-3.81066-158.48734-64.12064Zm54.92509,138.87833a10.63584,10.63584,0,0,1,7.59292,3.18532l2.62412,2.65789a10.97424,10.97424,0,0,1,0,15.38032l-65.78474,66.62773.00079.00074-10.21717,10.34808a10.64233,10.64233,0,0,1-15.18583,0L154.8578,263.909a10.97438,10.97438,0,0,1,.00013-15.38033l2.62413-2.65788a10.64233,10.64233,0,0,1,15.18583,0l21.2867,21.55943a10.642,10.642,0,0,0,15.18569,0l58.192-58.93754a10.6358,10.6358,0,0,1,7.59291-3.18532m0-11a21.32075,21.32075,0,0,0-15.27253,6.40711L201.5475,259.56389l-21.19986-21.47128a21.40617,21.40617,0,0,0-30.54534,0l-2.62439,2.65809a22.09959,22.09959,0,0,0,0,30.93641l39.09759,39.59852a21.40632,21.40632,0,0,0,30.54533,0L227.038,300.93755l7.67975-7.77822-.0008-.00074L292.822,234.309a22.074,22.074,0,0,0,0-30.93669l-2.62387-2.65761a21.32129,21.32129,0,0,0-15.27293-6.40738Z"/></g></svg>
