<svg xmlns="http://www.w3.org/2000/svg" xmlns:xlink="http://www.w3.org/1999/xlink" width="77" height="70" viewBox="0 0 504.19345 512"><defs><style>.cls-1{fill:none;}.cls-2{clip-path:url(#clip-path);}.cls-3{fill:#5086ae;}.cls-4{fill:#0089fe;}</style><clipPath id="clip-path"><circle class="cls-1" cx="252.09668" cy="-288" r="256"/></clipPath></defs><g id="Layer_6" data-name="Layer 6"><g class="cls-2"><path class="cls-3" d="M418.815-357.13341c-.42211,1.2791-.93579,2.53606-1.25127,3.84093a26.97485,26.97485,0,0,1-12.8923,17.50158c-7.59556,4.5282-15.18351,9.06907-23.17675,13.8446,1.14043.69409,1.88836,1.18619,2.66937,1.61864a21.77232,21.77232,0,0,1,10.26914,12.07584c1.20082,3.35327,2.38848,6.71228,3.51248,10.09183,4.15224,12.48422-1.17929,23.87617-13.39032,28.68143-.38392.15109-.75258.341-1.51154.688,1.48707,1.23586,3.06583,2.07767,3.96189,3.38689a56.72474,56.72474,0,0,1,5.70914,9.64791c1.50245,3.54758,2.25955,7.42176,3.22814,11.1826,2.83561,11.01033-2.2726,21.65237-12.74224,26.11-2.70181,1.15036-1.90942,1.6043-.21792,2.92333,10.42455,8.12895,13.89036,25.52709,7.13117,35.7026-4.8987,7.37468-12.42891,10.17034-20.72081,11.04263-2.76461.29082-3.27787,1.04557-3.26062,3.59682.09381,13.85937.17521,27.72327-.07906,41.57936a28.72873,28.72873,0,0,1-29.0344,28.38335c-14.18464.0378-28.37.07258-42.55366-.05077a5.31391,5.31391,0,0,0-5.33765,3.01287C277.06718-72.06735,260.3579-57.314,237.85207-49.73242a96.42763,96.42763,0,0,1-15.75,3.61366,5.02177,5.02177,0,0,0-4.32924,3.053Q202.06988-12.32062,186.191,18.33449a42.907,42.907,0,0,1-3.23341,4.67062h-2.599c-2.589-1.98944-3.04228-4.15626-1.44824-7.23028,11.43688-22.05521,22.6874-44.20715,34.16905-66.23876a6.15594,6.15594,0,0,1,4.318-2.578,79.94465,79.94465,0,0,0,45.48169-19.35519A89.65227,89.65227,0,0,0,281.0502-93.44567a17.581,17.581,0,0,0,.8076-1.79895c-1.54231,0-2.68768,0-3.833,0q-46.1277-.00066-92.25538-.01217c-14.53685-.01718-25.88833-8.98565-29.0299-22.98194a34.21269,34.21269,0,0,1-.54084-7.41653q-.04406-72.772-.02215-145.54408,0-2.194,0-4.388l-1.02512-.14457c-.933,3.41969-1.89861,6.83087-2.7908,10.26117-1.14058,4.38526-2.19405,8.79317-3.33766,13.1776-.89227,3.42086-2.61948,4.83048-5.01945,4.22037-2.43009-.61772-3.165-2.5895-2.27266-6.13307,5.40187-21.45035,10.907-42.87539,16.17509-64.35857,3.74742-15.28195,5.98331-30.79024,4.80116-46.57142a50.40242,50.40242,0,0,0-2.709-13.25022c-2.3118-6.38975-9.56517-9.8175-17.68176-9.17408-.076.189-.27017.46217-.20489.55726,3.89645,5.67659,3.70948,11.4111.68585,17.44286-1.88127,3.75286-3.1792,7.79448-4.82608,11.66947a13.29759,13.29759,0,0,1-15.55011,8.07294c-1.70528-.379-2.758-.23632-3.04247,1.62666-4.00683,26.23915-13.99585,50.69137-22.41571,75.62767-6.78426,20.09229-9.1057,40.9726-8.22735,62.04026.86409,20.72566,2.74665,41.41272,4.38322,62.1008.91955,11.62429-.81564,22.43128-6.76547,32.73832C74.30823-94.8179,62.74125-73.67578,50.97694-52.6476q-.23761.42466-.47966.84693c-1.85577,3.23045-3.86674,4.22344-6.11786,3.02163-2.18723-1.16771-2.36815-3.55289-.53066-6.81348q18.54173-32.90136,37.09461-65.79642c5.24062-9.255,5.33212-19.209,4.285-29.33738-2.43637-23.56583-4.98208-47.12321-4.19548-70.87895.76084-22.97727,4.71686-45.377,13.28-66.74172,8.43472-21.04427,14.06392-42.80812,18.57649-64.95343a181.49308,181.49308,0,0,1,6.56677-24.67377c4.30938-12.09389,13.51652-18.09764,25.22554-17.35608a33.80373,33.80373,0,0,1,8.20971,1.7025c2.40533.78246,3.12583.50845,3.09668-2.21812-.13193-12.34384.15819-24.69455-.10851-37.034-.38715-17.912,11.79544-29.07921,24.39414-30.924.26592-.03894,4.05821.07035,5.07043.071q75.91382.04609,151.82763.00011c1.00817-.00061,4.3396-.09228,4.71043-.01774,14.56162,2.92708,23.98266,13.75291,24.2031,28.6111.26461,17.83784.09058,35.68219.1063,53.52372.001,1.12883.00014,2.25767.00014,3.922,3.81687-2.21014,7.03268-4.14142,10.31143-5.95916,17.12544-9.4944,37.09828-.426,41.29715,18.71933.28763,1.31156.67413,2.60143,1.01467,3.90138Zm-62.39425,88.64965c-7.40594-4.33343-10.80951-10.85135-13.1828-18.2865-4.09977-12.84392.94924-25.46258,13.05175-31.28016a3.18272,3.18272,0,0,0,2.12871-3.40487q-.075-45.79692.01114-91.59393c.005-2.19162-.70535-2.6719-2.76509-2.67032q-94.67023.073-189.34054-.01209c-2.42777-.00251-2.83136.89359-2.79832,3.02416q.16617,10.71588.00464,21.4357a13.63147,13.63147,0,0,0,1.91983,6.96695,36.74083,36.74083,0,0,1,3.73629,10.25656c3.00279,15.54889,1.17774,31.00518-1.56511,46.38363-1.19153,6.68063-3.83266,13.29937-3.87214,19.95775-.321,54.13171-.16986,108.26621-.22375,162.39977-.00213,2.14313.62926,2.71943,2.75214,2.71764q94.67027-.08028,189.34055.00922c2.37553.0025,2.85024-.77583,2.81207-2.95807q-.19029-10.87752-.00047-21.76009a3.97568,3.97568,0,0,0-2.5064-4.21168,25.16921,25.16921,0,0,1-7.30584-39.204c1.8834-2.164,4.33376-3.83441,6.79708-5.97125-11.16993-5.21684-14.88025-15.14171-15.77064-26.19449C338.67017-254.96692,344.93852-263.14707,356.42075-268.48376ZM261.33559-134.39135q-46.28547,0-92.57091.00006c-.75789,0-1.521.05812-2.27263-.01008-1.79028-.16239-2.55381.54286-2.48558,2.40365.1031,2.8115-.005,5.63.03195,8.44483a20.67637,20.67637,0,0,0,20.54151,20.46582q76.33032.08019,152.66067-.0253c8.35157-.01619,14.89254-3.88994,18.456-11.5413a29.37583,29.37583,0,0,0,2.53148-10.89125c.38222-8.83618.14513-8.84643-8.54414-8.84643Zm-.4187-289.093q46.44834,0,92.89667-.00061a7.6539,7.6539,0,0,0,2.57465-.07664c.74369-.282,1.86716-1.10546,1.83978-1.64092-.2911-5.69236.08281-11.61217-1.40442-17.00666-2.51981-9.14-10.81958-14.23353-21.64277-14.2471q-74.54457-.09346-149.08934-.00092c-9.94974.012-18.14013,5.25611-20.76919,14.14347-1.40086,4.73556-.83833,10.03508-1.32686,15.064-.28316,2.91491.61883,3.85009,3.70029,3.83822C198.76907-423.53111,229.84307-423.48433,260.91689-423.4843Zm105.274,101.2616a7.33818,7.33818,0,0,0,1.306-.38629c11.4928-6.8538,23.11988-13.49611,34.42133-20.65272,9.0256-5.71545,11.22944-17.43472,5.65608-26.9005a19.742,19.742,0,0,0-26.25173-7.31788c-4.56971,2.4301-9.013,5.10861-13.41606,7.83218a3.8024,3.8024,0,0,0-1.64374,2.66848C366.16119-352.167,366.1909-337.3536,366.1909-322.2227Zm-19.10782,79.94977a84.15585,84.15585,0,0,0,3.3492,10.80794,14.99257,14.99257,0,0,0,11.55092,8.98045c7.73271,1.43068,14.81209-.994,21.30855-4.70759a10.91182,10.91182,0,0,0,5.61508-11.30761,103.775,103.775,0,0,0-4.62615-18.05216c-1.43293-3.99948-5.14541-6.17212-9.41122-7.18374-5.65067-1.34-10.63305,1.159-15.72931,2.66169C351.59771-258.85,347.06714-252.33276,347.08308-242.27293Zm44.68268-50.84915c-1.57888-4.00952-3.62178-10.62969-6.82335-16.63169-1.30358-2.44382-4.9528-4.59637-7.82938-5.06228-8.92378-1.44537-16.70841,1.90885-23.25378,7.88087a13.88257,13.88257,0,0,0-3.53684,6.04071c-2.61,8.56279.46516,15.93219,5.694,22.507,2.71677,3.41606,6.63982,4.96126,11.07025,5.351,5.77641.50818,10.7394-2.0347,15.83238-3.97243C388.66178-279.1938,391.84464-284.29623,391.76576-293.12208ZM367.58983-176.23836c10.77526-.77076,19.29412-6.05032,18.46829-15.76891-.99044-11.65532-5.7204-20.67327-16.4454-20.39652-10.41533.26873-19.99175,7.14033-19.70007,18.82842A17.50241,17.50241,0,0,0,367.58983-176.23836ZM126.70507-354.4131c2.71143-.05542,5.376-2.10871,6.88862-5.73373q2.9926-7.1721,5.873-14.39078a9.67324,9.67324,0,0,0-2.47888-10.68008c-.57807-.50117-2.25092-.69619-2.655-.28381-2.38393,2.433-5.36773,4.74637-6.60259,7.73858-2.49318,6.04126-4.10063,12.46223-5.867,18.78428C120.75248-355.00295,121.32308-354.439,126.70507-354.4131Z"/></g></g><g id="Layer_10" data-name="Layer 10"><path class="cls-4" d="M474.05078,490.83911C474.05078,502.52588,432.365,512,380.94312,512s-93.10767-9.47412-93.10767-21.16089,41.68567-21.16077,93.10767-21.16077S474.05078,479.15234,474.05078,490.83911ZM75.97437,135.05212,227.93921,47.31519,436.735,167.86365l19.13879-33.14923L227.93628,3.11456l-.00305.005L123.13281,63.6261V0H72.3468V92.94739L0,134.717l19.13867,33.14923,26.606-15.361v233.2265h217.6543V355.502H75.97437ZM482.584,445.488,292.05273,411.89215a3.02286,3.02286,0,0,0-3.502,2.45215l-1.67139,9.47894a3.02286,3.02286,0,0,0,2.452,3.502L479.86279,460.921a3.0229,3.0229,0,0,0,3.502-2.45209l1.67138-9.479A3.023,3.023,0,0,0,482.584,445.488Zm16.61231-59.39612-87.74048-15.471,8.67529-19.241c10.64038-.3023,18.16614-2.90216,18.93286-7.25012.63648-3.60962-3.52258-7.67932-10.613-11.20264l30.988-68.72906a45.86038,45.86038,0,0,0,5.7732-12.80414l.06006-.13373-.02515-.004c.37842-1.38129.70386-2.78882.95752-4.22736a46.14272,46.14272,0,1,0-91.52246-10.207l-.19507-.03113.13818,1.51361a45.79907,45.79907,0,0,0,.89087,9.75433l6.98352,76.46332c-8.46252.7815-14.2196,3.23651-14.88488,7.00934-.8042,4.56085,6.03735,9.85816,16.79052,13.85669l1.89942,20.798-89.54785-15.78968a6.04585,6.04585,0,0,0-7.00391,4.90424l-6.21533,35.24823a6.04612,6.04612,0,0,0,4.90429,7.004l202.43946,35.69549a6.04582,6.04582,0,0,0,7.0039-4.90417l6.21534-35.24829A6.046,6.046,0,0,0,499.19629,386.09186ZM209.429,178.007c0-11.56659,7.73486-18.07355,20.6925-18.07355,11.34448,0,18.60657,4.336,27.33972,12.10785l14.0022-15.0907c-8.8667-8.94214-19.3761-15.89355-34.4104-17.74774V116.55853H218.25476v23.00952c-21.53894,3.63623-35.21692,18.52131-35.21692,39.70386,0,42.3335,64.45728,38.224,64.45728,68.0437,0,12.152-7.4043,19.3385-22.87744,19.3385-12.81543,0-24.11353-5.60388-35.22-14.09942l-12.24683,17.71179c10.738,9.35663,26.64636,15.76642,41.10388,17.27631V310.029H237.053V286.86456c23.52637-4.04748,36.83313-19.865,36.83313-41.35809C273.88611,199.69293,209.429,205.11444,209.429,178.007Z"/></g></svg>
