<svg  xmlns="http://www.w3.org/2000/svg" width="148" height="133" viewBox="0 0 512 512"><defs><style>.cls-1{fill:#f0f5f7;}.cls-2{fill:#fff;}.cls-3{fill:#0089fe;}.cls-4{fill:#1b4379;}.cls-5{fill:#62be00;}</style></defs><g id="Layer_2" data-name="Layer 2"><circle class="cls-1" cx="253.34868" cy="256" r="253.34868"/><rect class="cls-2" x="219.17606" y="286.59735" width="69.52359" height="41.24281"/><rect class="cls-3" x="214.92773" y="278.81348" width="4.96191" height="26.17285"/><polygon class="cls-4" points="223.89 274.814 210.927 274.814 210.927 308.986 223.89 308.986 223.89 274.814 223.89 274.814"/><rect class="cls-3" x="286.80762" y="278.81348" width="4.96191" height="26.17285"/><polygon class="cls-4" points="295.77 274.814 282.808 274.814 282.808 308.986 295.77 308.986 295.77 274.814 295.77 274.814"/><path class="cls-2" d="M253.34863,294.96973c-22.29883,0-38.03711-17.66211-40.96582-21.20313a2.00967,2.00967,0,0,1-.32226-.53808c-.22168-.543-.59082-1.35645-1.06543-2.39942-2.375-5.21-7.9375-17.41015-8.88867-28.72656a10.35982,10.35982,0,0,0-3.76856-7.05762c-3.67773-3.02637-9.917-12.91455-7.21387-28.68115a1.9907,1.9907,0,0,1,.59082-1.1665,1.69083,1.69083,0,0,1,.2461-.17139,10.40254,10.40254,0,0,0,5.291-8.94336V163.458c0-3.88477,3.14356-13.05567,11.57715-21.12891,7.33887-7.02392,21.01465-15.39648,44.49512-15.39648h.04883c19.498,0,35.17383,5.30859,45.332,15.35107,8.49512,8.39844,10.74023,17.52295,10.74023,21.17432v32.63135a10.397,10.397,0,0,0,5.291,8.93652,1.68384,1.68384,0,0,1,.24707.17236,1.98961,1.98961,0,0,1,.58984,1.16553c2.70313,15.76562-3.53515,25.6543-7.21191,28.68066a10.36013,10.36013,0,0,0-3.77051,7.05713c-.95117,11.31739-6.51367,23.51758-8.88867,28.72754-.47461,1.043-.84375,1.85645-1.06543,2.39844a2.0032,2.0032,0,0,1-.32031.53711C291.38574,277.30762,275.64746,294.96973,253.34863,294.96973Z"/><path class="cls-4" d="M253.34869,130.93254l.02436.00005c18.42248,0,33.12567,4.90887,42.52014,14.196,7.79724,7.70822,9.55212,16.02412,9.55212,18.32954v32.6311a14.36524,14.36524,0,0,0,6.32154,11.79161c2.11908,13.95894-3.53779,22.09163-5.94782,24.07511a14.37686,14.37686,0,0,0-5.21362,9.81119c-.89325,10.62355-6.25312,22.3806-8.54193,27.40107-.43109.94568-.75916,1.66522-1.01349,2.26746-3.14807,3.746-17.61658,19.53454-37.7013,19.53454-20.085,0-34.55346-15.78881-37.70141-19.53466-.25427-.60215-.58228-1.3216-1.01337-2.26719-2.28882-5.0205-7.64868-16.77758-8.542-27.40106a14.376,14.376,0,0,0-5.21369-9.8114c-2.40991-1.9834-8.06677-10.116-5.94769-24.07512a14.37285,14.37285,0,0,0,6.32147-11.79843V163.4581c0-2.72078,2.52832-10.75905,10.34345-18.23956,6.80871-6.5172,19.57526-14.28595,41.72882-14.28595l.02441-.00005m-58.28216,76.107h0m58.28216-84.1079-.02441.00093c-45.93188,0-60.07227,30.50942-60.07227,40.52552v32.62422a6.35163,6.35163,0,0,1-3.28436,5.47545,5.69437,5.69437,0,0,0-.8258.57753,5.93,5.93,0,0,0-1.96027,3.55247c-3.12012,18.19695,4.63953,29.17493,8.61291,32.44509a6.29409,6.29409,0,0,1,2.32557,4.30453c1.18756,14.12334,8.852,28.90636,10.23651,32.30071a6.0308,6.0308,0,0,0,.94433,1.57825c3.589,4.33844,20.15528,22.65383,44.04779,22.65383s40.45874-18.31539,44.04779-22.65383a6.02873,6.02873,0,0,0,.94428-1.57825c1.38446-3.39435,9.049-18.17737,10.23651-32.30071a6.29455,6.29455,0,0,1,2.32556-4.30453c3.97345-3.27016,11.7331-14.24814,8.613-32.44509a5.93017,5.93017,0,0,0-1.96033-3.55247,5.6878,5.6878,0,0,0-.8258-.57753,6.34084,6.34084,0,0,1-3.28437-5.46857V163.4581c0-10.0161-11.78363-40.52552-60.07226-40.52552l-.02436-.00093Zm60.09662,40.51964v0Z"/><path class="cls-3" d="M253.34863,414.02539a158.21974,158.21974,0,0,1-100.81836-36.34082c-2.80371-2.665-5.59179-5.48535-8.30468-8.39844V340.56152c4.791-5.19336,27.65429-28.23437,62.47168-35.8457h14.92089c3.09571,4.65039,11.83789,14.751,29.374,14.751.72168,0,1.47558-.02246,2.35644-.07129.88086.04883,1.63477.07129,2.35645.07129,17.53613,0,26.27832-10.10059,29.374-14.751H300c34.91309,7.63086,57.69238,30.64453,62.47168,35.8418V369.2832c-3.21387,3.4375-6.5918,6.73828-10.05957,9.8291A158.39737,158.39737,0,0,1,253.34863,414.02539Z"/><path class="cls-4" d="M299.563,308.71622c31.39453,6.99667,52.69672,26.9837,58.90875,33.4331v25.54325c-2.78479,2.91732-5.68335,5.7225-8.64624,8.3666a153.81788,153.81788,0,0,1-194.63757-1.3667c-2.34442-2.23233-4.67755-4.57479-6.96247-6.98983V342.15021c6.2251-6.46262,27.5235-26.43936,58.90882-33.434h12.45685c4.39257,5.71243,14.0802,14.7511,31.40075,14.7511.73859,0,1.49738-.02121,2.35669-.06626.85932.04505,1.61817.06626,2.35675.06626,17.32062,0,27.00824-9.03867,31.40082-14.7511H299.563m.86432-8H282.8078s-7.07019,14.7511-27.10242,14.7511c-.7962,0-1.57959-.03232-2.35669-.0788-.77716.04648-1.56048.0788-2.35675.0788-20.03222,0-27.10241-14.7511-27.10241-14.7511H206.27c-41.29877,8.85925-66.0445,38.31839-66.0445,38.31839v31.81585c3.2403,3.53489,6.45636,6.79789,9.64649,9.82651a162.009,162.009,0,0,0,205.12793,1.48673,158.51158,158.51158,0,0,0,11.47186-11.31324V339.03461s-24.74566-29.45914-66.04443-38.31839Z"/><path class="cls-2" d="M253.34868,93.97468A162.02532,162.02532,0,1,1,91.32336,256,162.0253,162.0253,0,0,1,253.34868,93.97468m0-7.07019a169.09553,169.09553,0,1,0,119.56857,49.52693A167.9885,167.9885,0,0,0,253.34868,86.90449Z"/><circle class="cls-5" cx="420.67664" cy="395.04718" r="91.32336"/><polygon class="cls-2" points="486.97 361.219 470.572 344.82 403.01 412.382 369.428 378.801 353.03 395.199 403.011 445.18 419.409 428.781 419.408 428.78 486.97 361.219"/></g></svg>
