<svg id="Layer_1" data-name="Layer 1" xmlns="http://www.w3.org/2000/svg" width="512" height="512" viewBox="0 0 512 512"><defs><style>.cls-1{fill:#f0f5f7;}.cls-2{fill:#fff;}.cls-3{fill:#0089fe;}.cls-4{fill:#1b4379;}.cls-5{fill:#f1be0d;}</style></defs><circle class="cls-1" cx="253.34868" cy="256" r="253.34868"/><rect class="cls-2" x="219.17606" y="286.59735" width="69.52359" height="41.24281"/><rect class="cls-3" x="214.92773" y="278.81348" width="4.96191" height="26.17285"/><polygon class="cls-4" points="223.89 274.814 210.928 274.814 210.928 308.986 223.89 308.986 223.89 274.814 223.89 274.814"/><rect class="cls-3" x="286.80762" y="278.81348" width="4.96191" height="26.17285"/><polygon class="cls-4" points="295.77 274.814 282.808 274.814 282.808 308.986 295.77 308.986 295.77 274.814 295.77 274.814"/><path class="cls-2" d="M253.34863,294.96973c-22.29834,0-38.03711-17.66211-40.96582-21.20313a2.05988,2.05988,0,0,1-.32324-.54c-.22021-.541-.58984-1.35644-1.06592-2.40039-2.375-5.209-7.936-17.40918-8.88769-28.72363a10.35361,10.35361,0,0,0-3.76953-7.05811c-3.67676-3.02588-9.91553-12.91455-7.21241-28.68066a1.98581,1.98581,0,0,1,.59034-1.165,1.6598,1.6598,0,0,1,.24609-.17285,10.402,10.402,0,0,0,5.2915-8.94336V163.458c0-3.88477,3.14307-13.05567,11.57764-21.12891,7.334-7.02,20.99805-15.38721,44.45508-15.39648.00928.00049.05127,0,.08838,0,19.498,0,35.17383,5.30859,45.332,15.35107,8.49512,8.39844,10.74023,17.52295,10.74023,21.17432v32.63135a10.397,10.397,0,0,0,5.291,8.93652,1.68384,1.68384,0,0,1,.24707.17236,1.98961,1.98961,0,0,1,.58984,1.16553c2.70313,15.76562-3.53515,25.6543-7.21191,28.68066a10.36013,10.36013,0,0,0-3.77051,7.05713c-.95117,11.31739-6.51367,23.51758-8.88867,28.72754-.47461,1.043-.84375,1.85645-1.06543,2.39844a2.0032,2.0032,0,0,1-.32031.53711C291.38574,277.30762,275.64746,294.96973,253.34863,294.96973Z"/><path class="cls-4" d="M253.34869,130.93254l.02437.00005c18.42247,0,33.12569,4.90889,42.52013,14.196,7.79727,7.70819,9.55215,16.02409,9.55215,18.32951v32.6311a14.365,14.365,0,0,0,6.32148,11.79158c2.119,13.9589-3.53782,22.09169-5.9477,24.07506a14.37681,14.37681,0,0,0-5.21371,9.81127c-.89322,10.62352-6.25312,22.38056-8.5419,27.401-.43116.94577-.75922,1.66532-1.01346,2.26743-3.148,3.746-17.6164,19.5346-37.70136,19.5346-20.0848,0-34.55342-15.78872-37.70135-19.53454-.25429-.60217-.58231-1.32166-1.01344-2.26734-2.28878-5.0205-7.64869-16.77755-8.542-27.40115a14.37645,14.37645,0,0,0-5.21368-9.81128c-2.40993-1.9834-8.06678-10.11626-5.94773-24.07507a14.3732,14.3732,0,0,0,6.32147-11.79848V163.4581c0-2.72078,2.52832-10.75905,10.34346-18.23956,6.80874-6.5172,19.57525-14.28595,41.72884-14.28595l.02438-.00005M195.0665,207.03981h0m58.28219-84.10816-.02438.00093c-45.93191,0-60.0723,30.50942-60.0723,40.52552v32.62422a6.35172,6.35172,0,0,1-3.28434,5.47545,5.68933,5.68933,0,0,0-.82579.57753,5.93036,5.93036,0,0,0-1.96032,3.55247c-3.12011,18.19695,4.63953,29.17493,8.61293,32.44509a6.29418,6.29418,0,0,1,2.32558,4.30453c1.18752,14.12334,8.852,28.90636,10.23653,32.30071a6.0287,6.0287,0,0,0,.94427,1.57825c3.589,4.33844,20.15534,22.65383,44.04782,22.65383s40.45877-18.31539,44.04776-22.65383a6.02883,6.02883,0,0,0,.94431-1.57825c1.38446-3.39435,9.049-18.17737,10.23651-32.30071a6.29435,6.29435,0,0,1,2.32559-4.30453c3.97339-3.27016,11.733-14.24814,8.61292-32.44509a5.93013,5.93013,0,0,0-1.9603-3.55247,5.68944,5.68944,0,0,0-.8258-.57753,6.34081,6.34081,0,0,1-3.28434-5.46857V163.4581c0-10.0161-11.78366-40.52552-60.07228-40.52552l-.02437-.00093Zm60.09665,40.51964v0Z"/><path class="cls-3" d="M253.34863,414.02539a158.22525,158.22525,0,0,1-100.81836-36.34082c-2.80664-2.668-5.59521-5.48828-8.30468-8.39844V340.56152c4.7915-5.19336,27.6538-28.23437,62.47265-35.8457h14.91992c3.09522,4.65039,11.83838,14.751,29.374,14.751.72217,0,1.47656-.02246,2.35644-.07129.88086.04883,1.63477.07129,2.35694.07129,17.53564,0,26.27783-10.10059,29.37353-14.751H300c34.91309,7.63086,57.69238,30.64453,62.47168,35.8418V369.2832c-3.21387,3.4375-6.5918,6.73828-10.05957,9.8291A158.39737,158.39737,0,0,1,253.34863,414.02539Z"/><path class="cls-4" d="M299.563,308.71622c31.3945,6.99667,52.69675,26.9837,58.90875,33.4331V367.6925c-2.78485,2.91745-5.6835,5.72272-8.64621,8.36667a153.818,153.818,0,0,1-194.63766-1.3667c-2.34465-2.23251-4.67762-4.57486-6.96236-6.98983V342.13577c6.18413-6.45718,27.35017-26.388,58.90857-33.41955h12.457c4.39259,5.71243,14.08022,14.7511,31.40082,14.7511.73862,0,1.49745-.02121,2.35673-.06626.85933.04505,1.61815.06626,2.35672.06626,17.32062,0,27.00821-9.03867,31.40079-14.7511H299.563m.86432-8H282.8078s-7.07013,14.7511-27.10239,14.7511c-.79625,0-1.5796-.03232-2.35675-.0788-.7771.04648-1.56045.0788-2.3567.0788-20.03224,0-27.10245-14.7511-27.10245-14.7511H206.27c-41.29881,8.85925-66.04445,38.31839-66.04445,38.31839v31.81585c3.24025,3.53489,6.4563,6.79789,9.64639,9.82651A162.00913,162.00913,0,0,0,355,382.1637a158.51742,158.51742,0,0,0,11.47183-11.31324V339.03461s-24.7457-29.45914-66.04443-38.31839Z"/><path class="cls-2" d="M253.34868,93.97468A162.02532,162.02532,0,1,1,91.32336,256,162.0253,162.0253,0,0,1,253.34868,93.97468m0-7.07019a169.09553,169.09553,0,1,0,119.56857,49.52693A167.9885,167.9885,0,0,0,253.34868,86.90449Z"/><circle class="cls-5" cx="420.67664" cy="395.04718" r="91.32336"/><path class="cls-2" d="M418.29017,413.92216V421.124a2.11005,2.11005,0,0,0,4.19321,0v-.4878q0-13.06064,5.49633-37.8181,4.342-20.14841,4.34173-28.73736,0-19.03342-11.57285-19.03354-11.71687,0-11.71675,19.28279,0,7.21855,4.48546,28.86176Q418.28283,405.9562,418.29017,413.92216Z"/><path class="cls-2" d="M429.57726,433.57544a12.53555,12.53555,0,1,0,3.69909,8.88867A12.14008,12.14008,0,0,0,429.57726,433.57544Z"/></svg>