<?xml version="1.0" standalone="no"?>
<!DOCTYPE svg PUBLIC "-//W3C//DTD SVG 1.0//EN" "http://www.w3.org/TR/2001/REC-SVG-20010904/DTD/svg10.dtd">
<svg xmlns="http://www.w3.org/2000/svg" xmlns:xlink="http://www.w3.org/1999/xlink" id="body_1" width="30" height="40">

<g transform="matrix(0.078125 0 0 0.078125 0 0)">
    <path transform="matrix(1 0 0 1 0 0)"  d="M192.0216 505.5C 186.273 505.502 180.8883 502.6867 177.6095 497.9648C 151.6896 460.3887 129.8712 429.3057 110.6202 401.8809C 24.43567 279.1026 6.50012 253.5513 6.50012 191.9991C 6.500381 89.55088 89.55099 6.500259 191.9991 6.5L191.9991 6.5L192.0002 6.5C 294.2853 6.50049 377.5002 89.71485 377.5002 191.999C 377.5002 253.5503 359.5656 279.1006 273.383 401.876C 254.132 429.3008 232.3127 460.3857 206.382 497.9775C 203.1128 502.6819 197.7503 505.4909 192.0216 505.5zM192.0001 85.49951C 148.925 85.4996 110.0914 111.4475 93.60732 151.2438C 77.12328 191.0401 86.23505 236.8475 116.6938 267.3062C 147.1526 297.7648 192.9601 306.8763 232.7563 290.3921C 272.5525 273.9079 298.5002 235.0741 298.5001 191.999C 298.4336 133.2083 250.7908 85.56574 192.0001 85.49954z" stroke="none" fill="#35B427" fill-rule="nonzero" />
    <path transform="matrix(1 0 0 1 0 0)"  d="M192.0011 0L192.0011 13C 290.8595 13.00031 370.9999 93.14084 371.0001 191.9992C 371.0001 223.5551 366.3204 243.2817 352.4552 270.1749C 337.4225 299.3321 311.3145 336.5253 268.0606 398.1447C 248.8028 425.5794 226.9752 456.6747 201.0484 494.2606C 198.9954 497.2244 195.621 498.9949 192.0155 499C 188.4101 499.0051 185.0307 497.2441 182.9693 494.2861C 157.025 456.675 135.1979 425.58 115.9401 398.1455C 72.68616 336.5257 46.57777 299.3323 31.54507 270.1749C 17.67984 243.2815 13.00015 223.5546 13.00015 191.9982C 13.00092 93.13946 93.14236 12.99925 192.0011 13L192.0011 13L192.0011 0zM192.0001 304.9987C 254.408 304.9984 304.9994 254.4067 304.9992 191.9988C 304.999 129.5909 254.4073 78.99947 191.9995 78.99958C 129.5916 78.99968 79.00007 129.5913 79.00009 191.9992C 79.0707 254.378 129.6213 304.9283 192.0001 304.9987L192.0001 304.9987L192.0011 0L192.0001 0C 85.96152 -0.0002 9.155273E-05 85.9603 9.155273E-05 191.9982L9.155273E-05 191.9982L9.155273E-05 191.9992C 9.155273E-05 269.4114 26.97031 291.0295 172.2682 501.6677C 176.754 508.138 184.1269 511.998 192.0001 511.998C 199.8733 511.998 207.2462 508.138 211.732 501.6677C 357.0299 291.0295 384.0001 269.4114 384.0001 191.9992C 384.0001 85.9612 298.0392 0.0003 192.0011 0zM192.0001 291.9987C 136.7719 291.9984 92.00082 247.227 92.001 191.9988C 92.00118 136.7706 136.7726 91.99947 192.0007 91.99958C 247.2289 91.99969 292.0001 136.771 292.0001 191.9992C 292 218.5208 281.4643 243.9561 262.7107 262.7096C 243.957 281.4632 218.5217 291.9987 192.0001 291.9987z" stroke="none" fill="#FFFFFF" fill-rule="nonzero" />
    <path transform="matrix(1 0 0 1 0 0)"  d="M309.4997 194C 309.4998 161.5534 298.0281 133.8584 275.0848 110.9152C 252.1416 87.97192 224.4467 76.50029 192 76.50029C 159.5533 76.50029 131.8584 87.97192 108.9151 110.9152C 85.97188 133.8584 74.50024 161.5534 74.50024 194C 74.50024 226.4467 85.97188 254.1416 108.9151 277.0849C 131.8584 300.0281 159.5533 311.4998 192 311.4998C 224.4467 311.4998 252.1416 300.0281 275.0848 277.0849C 298.0281 254.1416 309.4998 226.4467 309.4997 194" stroke="none" fill="#FFFFFF" fill-rule="nonzero" />
</g>
</svg>