<?xml version="1.0" standalone="no"?>
<!DOCTYPE svg PUBLIC "-//W3C//DTD SVG 1.0//EN" "http://www.w3.org/TR/2001/REC-SVG-20010904/DTD/svg10.dtd">
<svg xmlns="http://www.w3.org/2000/svg" xmlns:xlink="http://www.w3.org/1999/xlink" id="body_1" width="30" height="40">

<g transform="matrix(0.078125 0 0 0.078125 0 0)">
    <path transform="matrix(1 0 0 1 0 0)"  d="M192.0215 505.5C 186.2729 505.502 180.8883 502.6867 177.6094 497.9648C 151.6895 460.3887 129.8712 429.3057 110.6202 401.8809C 24.43562 279.1026 6.50007 253.5513 6.50007 191.9991C 6.50032 89.55088 89.55091 6.500259 191.9991 6.5L191.9991 6.5L192.0001 6.5C 294.2852 6.50049 377.5001 89.71485 377.5001 191.999C 377.5001 253.5503 359.5655 279.1006 273.3829 401.876C 254.1319 429.3008 232.3126 460.3857 206.3819 497.9775C 203.1127 502.6819 197.7502 505.4909 192.0215 505.5zM192.0001 85.49951C 148.9249 85.4996 110.0913 111.4475 93.60726 151.2438C 77.12321 191.0401 86.23499 236.8475 116.6938 267.3062C 147.1526 297.7648 192.96 306.8763 232.7562 290.3921C 272.5524 273.9079 298.5002 235.0741 298.5001 191.999C 298.4336 133.2084 250.7907 85.56574 192.0001 85.49954z" stroke="none" fill="#35B427" fill-rule="nonzero" />
    <path transform="matrix(1 0 0 1 0 0)"  d="M192.0008 0L192.0008 13C 290.8593 13.00003 371 93.14066 371.0001 191.9992C 371.0001 223.5551 366.3204 243.2817 352.4551 270.1749C 337.4224 299.3321 311.3145 336.5253 268.0606 398.1447C 248.8026 425.5794 226.9752 456.6747 201.0482 494.2612C 198.9949 497.2248 195.6205 498.9951 192.0151 499C 188.4097 499.005 185.0305 497.244 182.9691 494.2861C 157.0252 456.675 135.1978 425.58 115.9402 398.1455C 72.68585 336.5257 46.57795 299.3323 31.54525 270.1749C 17.67978 243.2815 13.00009 223.5546 13.00009 191.9982C 13.00035 144.5246 31.85945 98.99544 65.42862 65.42674C 98.99779 31.85806 144.5272 12.99959 192.0008 13L192.0008 13L192.0008 0zM192.0001 304.9987C 254.4079 304.9984 304.9993 254.4067 304.9992 191.9988C 304.999 129.5909 254.4073 78.99947 191.9994 78.99958C 129.5916 78.99968 79.00004 129.5913 79.00006 191.9992C 79.07076 254.378 129.6213 304.9283 192.0001 304.9987L192.0001 304.9987L192.0008 0L192.0001 0C 85.96149 -0.0002 0.00031 85.9603 7E-05 191.9982L7E-05 191.9982L7E-05 191.9992C 7E-05 269.4114 26.97028 291.0295 172.2681 501.6677C 176.7539 508.138 184.1269 511.998 192.0001 511.998C 199.8732 511.998 207.2462 508.138 211.732 501.6677C 357.0298 291.0295 384.0001 269.4114 384.0001 191.9992C 384.0003 85.9612 298.0394 0.0003 192.0008 0zM192.0001 291.9987C 136.7719 291.9984 92.00079 247.227 92.00097 191.9988C 92.00115 136.7706 136.7726 91.99947 192.0007 91.99958C 247.2289 91.99969 292.0001 136.771 292.0001 191.9992C 292 218.5208 281.4643 243.9561 262.7106 262.7096C 243.957 281.4631 218.5216 291.9987 192.0001 291.9987z" stroke="none" fill="#FFFFFF" fill-rule="nonzero" />
    <path transform="matrix(1 0 0 1 0 0)"  d="M329.5003 194C 329.5003 156.0304 316.076 123.6212 289.2274 96.77264C 262.3788 69.92403 229.9697 56.49973 192 56.49973C 154.0303 56.49973 121.6212 69.92403 94.77259 96.77264C 67.92399 123.6212 54.49968 156.0304 54.49968 194C 54.49968 231.9697 67.92399 264.3788 94.77259 291.2274C 121.6212 318.076 154.0303 331.5003 192 331.5003C 229.9697 331.5003 262.3788 318.076 289.2274 291.2274C 316.076 264.3788 329.5003 231.9697 329.5003 194" stroke="none" fill="#FFFFFF" fill-rule="nonzero" />
    <path transform="matrix(1 0 0 1 0 0)"  d="M189.0164 151.8996L116.9889 211.2226L116.9889 275.2493C 116.9889 276.9071 117.6474 278.497 118.8196 279.6692C 119.9919 280.8414 121.5818 281.5 123.2396 281.5L123.2396 281.5L167.0179 281.3867C 170.4578 281.3695 173.2374 278.576 173.2373 275.136L173.2373 275.136L173.2373 237.7451C 173.2373 236.0874 173.8959 234.4975 175.0681 233.3252C 176.2404 232.153 177.8302 231.4944 179.488 231.4944L179.488 231.4944L204.4908 231.4944C 207.943 231.4945 210.7415 234.293 210.7415 237.7451L210.7415 237.7451L210.7415 275.1087C 210.7363 276.7665 211.3899 278.3584 212.5585 279.5343C 213.7271 280.7102 215.3149 281.3737 216.9726 281.3789L216.9726 281.3789L216.9922 281.3789L260.7549 281.5C 262.4127 281.5 264.0026 280.8414 265.1748 279.6692C 266.347 278.497 267.0056 276.9071 267.0056 275.2493L267.0056 275.2493L267.0056 211.1797L194.9937 151.8997C 193.2493 150.4936 190.7608 150.4936 189.0164 151.8997L189.0164 151.8997L189.0164 151.8996zM302.7908 192.2205L270.131 165.2995L270.131 111.188C 270.131 108.5989 268.0321 106.5 265.443 106.5L265.443 106.5L243.5655 106.5C 242.3222 106.5 241.1297 106.9939 240.2506 107.8731C 239.3714 108.7523 238.8775 109.9447 238.8775 111.188L238.8775 111.188L238.8775 139.5545L203.9009 110.7779C 196.9786 105.0815 186.9925 105.0815 180.0701 110.7779L180.0701 110.7779L81.18018 192.2205C 80.22182 193.0126 79.61738 194.153 79.49982 195.3908C 79.38227 196.6286 79.76124 197.8623 80.55335 198.8207L80.55335 198.8207L80.55511 198.8228L90.51717 210.9336C 91.30692 211.8939 92.44582 212.5011 93.6833 212.6217C 94.92078 212.7423 96.15548 212.3663 97.11578 211.5766L97.11578 211.5766L97.12337 211.5703L189.0164 135.8822C 190.7608 134.4761 193.2493 134.4761 194.9937 135.8822L194.9937 135.8822L286.8907 211.5703C 287.8486 212.363 289.0821 212.7427 290.3199 212.6259C 291.5578 212.509 292.6985 211.9053 293.4912 210.9474L293.4912 210.9474L293.493 210.9452L303.455 198.8345C 304.2445 197.874 304.6201 196.6392 304.4991 195.4017C 304.3781 194.1643 303.7705 193.0256 302.81 192.2361L302.81 192.2361L302.7909 192.2205z" stroke="none" fill="#35B427" fill-rule="nonzero" />
</g>
</svg>