<?xml version="1.0" standalone="no"?>
<!DOCTYPE svg PUBLIC "-//W3C//DTD SVG 1.0//EN" "http://www.w3.org/TR/2001/REC-SVG-20010904/DTD/svg10.dtd">
<svg xmlns="http://www.w3.org/2000/svg" xmlns:xlink="http://www.w3.org/1999/xlink" id="body_1" width="30" height="40">

<g transform="matrix(0.078125 0 0 0.078125 0 0)">
    <path transform="matrix(1 0 0 1 0 0)"  d="M192.0215 505.5C 186.2729 505.502 180.8882 502.6867 177.6094 497.9648C 151.6895 460.3887 129.8711 429.3057 110.6202 401.8809C 24.43559 279.1026 6.5 253.5513 6.5 191.9991C 6.500244 89.55085 89.55085 6.500244 191.9991 6.5L191.9991 6.5L192 6.5C 294.2852 6.50049 377.5 89.71485 377.5 191.999C 377.5 253.5503 359.5654 279.1006 273.3828 401.876C 254.1318 429.3008 232.3125 460.3857 206.3818 497.9775C 203.1126 502.6818 197.7502 505.4909 192.0215 505.5zM192 85.49954C 148.9249 85.49963 110.0912 111.4475 93.6072 151.2438C 77.12315 191.0401 86.23492 236.8475 116.6937 267.3062C 147.1525 297.7648 192.96 306.8764 232.7562 290.3922C 272.5524 273.9079 298.5001 235.0742 298.5 191.9991C 298.4335 133.2084 250.7907 85.56574 192 85.49954z" stroke="none" fill="#D9222F" fill-rule="nonzero" />
    <path transform="matrix(1 0 0 1 0 0)"  d="M192.001 0L192.001 13C 290.8594 13.00011 371 93.14075 371 191.9992C 371 223.5551 366.3203 243.2817 352.4551 270.1749C 337.4224 299.3321 311.3145 336.5253 268.0605 398.1447C 248.8025 425.5794 226.9751 456.6747 201.0481 494.2612C 198.9948 497.2248 195.6204 498.9951 192.0151 499C 188.4097 499.005 185.0304 497.244 182.969 494.2861C 157.0252 456.675 135.1978 425.58 115.9402 398.1455C 72.68584 336.5257 46.57793 299.3323 31.54523 270.1749C 17.67973 243.2815 13 223.5546 13 191.9982C 13.00024 144.5245 31.85939 98.99534 65.42863 65.42664C 98.99786 31.85794 144.5273 12.99951 192.001 13L192.001 13L192.001 0zM192 304.9987C 254.4079 304.9984 304.9993 254.4067 304.9991 191.9988C 304.9989 129.5909 254.4073 78.99947 191.9994 78.99958C 129.5915 78.99968 78.99998 129.5913 79 191.9992C 79.0707 254.378 129.6212 304.9283 192 304.9987L192 304.9987L192.001 0L192 0C 85.96146 -0.0002 0.00028 85.9603 0 191.9982L0 191.9982L0 191.9992C 0 269.4114 26.97025 291.0295 172.2681 501.6677C 176.7539 508.138 184.1268 511.9979 192 511.9979C 199.8732 511.9979 207.2462 508.138 211.732 501.6677C 357.0298 291.0295 384 269.4114 384 191.9992C 384.0003 85.9612 298.0393 0.0003 192.001 0zM192 291.9987C 136.7718 291.9984 92.00073 247.227 92.00091 191.9988C 92.00109 136.7706 136.7725 91.99947 192.0007 91.99958C 247.2288 91.99969 292 136.771 292 191.9992C 291.9999 218.5208 281.4642 243.9561 262.7106 262.7096C 243.957 281.4631 218.5216 291.9987 192 291.9987z" stroke="none" fill="#FFFFFF" fill-rule="nonzero" />
    <path transform="matrix(1 0 0 1 0 0)"  d="M329.5003 194C 329.5003 156.0304 316.076 123.6212 289.2274 96.77264C 262.3788 69.92403 229.9697 56.49973 192 56.49973C 154.0303 56.49973 121.6212 69.92403 94.77259 96.77264C 67.92399 123.6212 54.49968 156.0304 54.49968 194C 54.49968 231.9697 67.92399 264.3788 94.77259 291.2274C 121.6212 318.076 154.0303 331.5003 192 331.5003C 229.9697 331.5003 262.3788 318.076 289.2274 291.2274C 316.076 264.3788 329.5003 231.9697 329.5003 194" stroke="none" fill="#FFFFFF" fill-rule="nonzero" />
    <path transform="matrix(1 0 0 1 0 0)"  d="M189.0164 151.8996L116.9888 211.2226L116.9888 275.2493C 116.9888 276.9071 117.6474 278.497 118.8196 279.6692C 119.9919 280.8414 121.5817 281.5 123.2395 281.5L123.2395 281.5L167.0179 281.3867C 170.4578 281.3695 173.2374 278.576 173.2373 275.136L173.2373 275.136L173.2373 237.7451C 173.2373 236.0874 173.8959 234.4975 175.0681 233.3252C 176.2403 232.153 177.8302 231.4944 179.488 231.4944L179.488 231.4944L204.4908 231.4944C 207.9429 231.4945 210.7415 234.293 210.7415 237.7451L210.7415 237.7451L210.7415 275.1087C 210.7363 276.7665 211.3899 278.3584 212.5585 279.5343C 213.727 280.7102 215.3148 281.3737 216.9726 281.3789L216.9726 281.3789L216.9922 281.3789L260.7549 281.5C 262.4127 281.5 264.0026 280.8414 265.1748 279.6692C 266.347 278.497 267.0056 276.9071 267.0056 275.2493L267.0056 275.2493L267.0056 211.1797L194.9937 151.8997C 193.2493 150.4936 190.7608 150.4936 189.0164 151.8997L189.0164 151.8997L189.0164 151.8996zM302.7908 192.2205L270.1309 165.2995L270.1309 111.188C 270.1309 108.5989 268.032 106.5 265.4429 106.5L265.4429 106.5L243.5655 106.5C 242.3221 106.5 241.1297 106.9939 240.2505 107.8731C 239.3714 108.7523 238.8775 109.9447 238.8775 111.188L238.8775 111.188L238.8775 139.5545L203.9009 110.7779C 196.9785 105.0815 186.9925 105.0815 180.0701 110.7779L180.0701 110.7779L81.18015 192.2205C 80.22179 193.0126 79.61735 194.153 79.49979 195.3908C 79.38224 196.6286 79.76121 197.8623 80.55332 198.8207L80.55332 198.8207L80.55508 198.8228L90.51708 210.9336C 91.30685 211.8939 92.44574 212.5011 93.68322 212.6217C 94.9207 212.7423 96.1554 212.3663 97.11569 211.5766L97.11569 211.5766L97.12329 211.5703L189.0164 135.8822C 190.7607 134.4761 193.2492 134.4761 194.9936 135.8822L194.9936 135.8822L286.8906 211.5703C 287.8484 212.363 289.082 212.7427 290.3199 212.6259C 291.5577 212.5091 292.6985 211.9053 293.4911 210.9474L293.4911 210.9474L293.4929 210.9452L303.4549 198.8345C 304.2444 197.874 304.62 196.6392 304.499 195.4017C 304.3781 194.1643 303.7705 193.0256 302.8099 192.2361L302.8099 192.2361L302.7908 192.2205z" stroke="none" fill="#D9222F" fill-rule="nonzero" />
</g>
</svg>