<?xml version="1.0" standalone="no"?>
<!DOCTYPE svg PUBLIC "-//W3C//DTD SVG 1.0//EN" "http://www.w3.org/TR/2001/REC-SVG-20010904/DTD/svg10.dtd">
<svg xmlns="http://www.w3.org/2000/svg" xmlns:xlink="http://www.w3.org/1999/xlink" id="body_1" width="20" height="27">

<g transform="matrix(0.05208334 0 0 0.05273438 0 0)">
    <path transform="matrix(1 0 0 1 0 0)"  d="M192.0215 505.5C 186.2729 505.502 180.8882 502.6867 177.6094 497.9648C 151.6895 460.3887 129.8711 429.3057 110.6201 401.8809C 24.43556 279.1026 6.5 253.5513 6.5 191.9991C 6.500244 89.5509 89.55083 6.500275 191.999 6.5L191.999 6.5L192 6.5C 294.2852 6.50049 377.5 89.71485 377.5 191.999C 377.5 253.5503 359.5654 279.1006 273.3828 401.876C 254.1318 429.3008 232.3125 460.3857 206.3818 497.9775C 203.1126 502.6818 197.7502 505.4909 192.0215 505.5zM192 85.49954C 148.9249 85.49963 110.0912 111.4475 93.6072 151.2438C 77.12315 191.0401 86.23492 236.8475 116.6937 267.3062C 147.1525 297.7648 192.96 306.8764 232.7562 290.3922C 272.5524 273.9079 298.5001 235.0742 298.5 191.9991C 298.4335 133.2084 250.7907 85.56574 192 85.49954z" stroke="none" fill="#10BA19" fill-rule="nonzero" />
    <path transform="matrix(1 0 0 1 0 0)"  d="M192.001 0L192.001 13C 290.8594 13.00011 371 93.14075 371 191.9992C 371 223.5551 366.3203 243.2817 352.4551 270.1749C 337.4224 299.3321 311.3145 336.5253 268.0605 398.1447C 248.8026 425.5794 226.9751 456.6747 201.0481 494.2612C 198.9948 497.2248 195.6204 498.9951 192.0151 499C 188.4097 499.005 185.0304 497.244 182.969 494.2861C 157.0252 456.675 135.1978 425.58 115.9402 398.1455C 72.68581 336.5257 46.5779 299.3323 31.5452 270.1749C 17.6797 243.2815 13 223.5546 13 191.9982C 13.00037 144.5245 31.85954 98.99545 65.42876 65.42676C 98.99796 31.85808 144.5273 12.99962 192.001 13L192.001 13L192.001 0zM192 304.9987C 254.4079 304.9984 304.9993 254.4067 304.9991 191.9988C 304.9989 129.5909 254.4073 78.99947 191.9994 78.99958C 129.5915 78.99968 78.99998 129.5913 79 191.9992C 79.0707 254.378 129.6212 304.9283 192 304.9987L192 304.9987L192.001 0L192 0C 85.96169 -0.0002 0.00026 85.9603 0 191.9982L0 191.9982L0 191.9992C 0 269.4114 26.97021 291.0295 172.2681 501.6677C 176.7539 508.138 184.1268 511.998 192 511.998C 199.8732 511.998 207.2461 508.138 211.7319 501.6677C 357.0298 291.0295 384 269.4114 384 191.9992C 384.0003 85.9612 298.0393 0.0003 192.001 0zM192 291.9987C 136.7718 291.9984 92.00073 247.227 92.00091 191.9988C 92.00109 136.7706 136.7725 91.99947 192.0007 91.99958C 247.2288 91.99969 292 136.771 292 191.9992C 291.9999 218.5208 281.4642 243.9561 262.7106 262.7096C 243.957 281.4631 218.5216 291.9987 192 291.9987z" stroke="none" fill="#FFFFFF" fill-rule="nonzero" />
    <path transform="matrix(1 0 0 1 0 0)"  d="M329.5003 194C 329.5003 156.0304 316.076 123.6212 289.2274 96.77264C 262.3788 69.92403 229.9697 56.49973 192 56.49973C 154.0303 56.49973 121.6212 69.92403 94.77259 96.77264C 67.92399 123.6212 54.49968 156.0304 54.49968 194C 54.49968 231.9697 67.92399 264.3788 94.77259 291.2274C 121.6212 318.076 154.0303 331.5003 192 331.5003C 229.9697 331.5003 262.3788 318.076 289.2274 291.2274C 316.076 264.3788 329.5003 231.9697 329.5003 194" stroke="none" fill="#FFFFFF" fill-rule="nonzero" />
    <path transform="matrix(1 0 0 1 0 0)"  d="M279.5 125.25L279.5 262.75C 279.5001 273.1052 271.1056 281.4999 260.7503 281.5L260.7503 281.5L123.25 281.5C 118.2772 281.5001 113.5081 279.5247 109.9918 276.0084C 106.4755 272.4922 104.5 267.7231 104.5 262.7503L104.5 262.7503L104.5 125.25C 104.4999 120.2772 106.4753 115.5081 109.9916 111.9918C 113.5078 108.4755 118.2769 106.5 123.2497 106.5L123.2497 106.5L260.75 106.5C 265.7227 106.5 270.4919 108.4753 274.0082 111.9916C 277.5245 115.5078 279.5 120.2769 279.5 125.2497L279.5 125.2497L279.5 125.25zM235.75 144L223.25 144C 219.7984 143.9999 217.0002 146.7979 217 150.2495L217 150.2495L217 181.5L167 181.5L167 150.25C 167.0001 146.7984 164.2021 144.0001 160.7505 144L160.7505 144L148.25 144C 146.5925 143.9999 145.0028 144.6583 143.8307 145.8303C 142.6586 147.0023 142.0001 148.592 142 150.2495L142 150.2495L142 237.75C 141.9999 239.4075 142.6583 240.9972 143.8303 242.1693C 145.0023 243.3414 146.592 243.9999 148.2495 244L148.2495 244L160.75 244C 164.2016 244.0001 166.9998 241.2021 167 237.7505L167 237.7505L167 206.5L217 206.5L217 237.75C 216.9999 241.2016 219.7979 243.9998 223.2495 244L223.2495 244L235.75 244C 237.4075 244.0001 238.9972 243.3417 240.1693 242.1697C 241.3414 240.9977 241.9999 239.408 242 237.7505L242 237.7505L242 150.25C 242.0001 146.7984 239.2021 144.0002 235.7505 144z" stroke="none" fill="#10BA19" fill-rule="nonzero" />
</g>
</svg>