<?xml version="1.0" standalone="no"?>
<!DOCTYPE svg PUBLIC "-//W3C//DTD SVG 1.0//EN" "http://www.w3.org/TR/2001/REC-SVG-20010904/DTD/svg10.dtd">
<svg xmlns="http://www.w3.org/2000/svg" xmlns:xlink="http://www.w3.org/1999/xlink" id="body_1" width="20" height="27">

<g transform="matrix(0.05208334 0 0 0.05273438 0 0)">
    <path transform="matrix(1 0 0 1 0 0)"  d="M192.0215 505.5C 186.2729 505.502 180.8882 502.6867 177.6094 497.9648C 151.6895 460.3887 129.8711 429.3057 110.6201 401.8809C 24.43557 279.1026 6.5 253.5513 6.5 191.9991C 6.500244 89.55085 89.55085 6.500244 191.9991 6.5L191.9991 6.5L192 6.5C 294.2852 6.50049 377.5 89.71485 377.5 191.999C 377.5 253.5503 359.5654 279.1006 273.3828 401.876C 254.1318 429.3008 232.3125 460.3857 206.3818 497.9775C 203.1126 502.6818 197.7502 505.4909 192.0215 505.5zM192 85.49954C 148.9249 85.49963 110.0912 111.4475 93.6072 151.2438C 77.12315 191.0401 86.23492 236.8475 116.6937 267.3062C 147.1525 297.7648 192.96 306.8764 232.7562 290.3922C 272.5524 273.9079 298.5001 235.0742 298.5 191.9991C 298.4335 133.2084 250.7907 85.56574 192 85.49954z" stroke="none" fill="#0089FE" fill-rule="nonzero" />
    <path transform="matrix(1 0 0 1 0 0)"  d="M192.0009 0L192.0009 13C 290.8593 13.00012 370.9999 93.14073 371 191.9992C 371 223.555 366.3204 243.2815 352.4551 270.1746C 337.4226 299.3316 311.3151 336.5245 268.0614 398.1433C 248.8034 425.5784 226.9757 456.674 201.0485 494.2609C 198.9953 497.2246 195.6208 498.995 192.0154 499C 188.4099 499.005 185.0306 497.2441 182.9691 494.2861C 157.0251 456.675 135.1978 425.58 115.94 398.1454C 72.68581 336.5257 46.5779 299.3323 31.54519 270.1749C 17.67959 243.2814 13 223.5546 13 191.9982C 13.00031 144.5246 31.85947 98.99542 65.42866 65.42674C 98.99786 31.85805 144.5273 12.99959 192.0009 13L192.0009 13L192.0009 0zM192 304.9987C 254.4079 304.9984 304.9993 254.4067 304.9991 191.9988C 304.9989 129.5909 254.4073 78.99947 191.9994 78.99958C 129.5915 78.99968 78.99998 129.5913 79 191.9992C 79.07066 254.378 129.6212 304.9283 192 304.9987L192 304.9987L192.0009 0L192 0C 85.96157 -0.0002 0.00027 85.9603 0 191.9982L0 191.9982L0 191.9992C 0 269.4114 26.97022 291.0295 172.2681 501.6677C 176.7539 508.138 184.1269 511.9979 192.0001 511.9979C 199.8732 511.9979 207.2462 508.138 211.7321 501.6677C 357.0297 291.0295 384 269.4114 384 191.9992C 384.0003 85.9612 298.0393 0.0003 192.0009 0zM192 291.9987C 136.7718 291.9984 92.00073 247.227 92.00091 191.9988C 92.00109 136.7706 136.7725 91.99947 192.0007 91.99958C 247.2288 91.99969 292 136.771 292 191.9992C 291.9999 218.5208 281.4642 243.9561 262.7106 262.7096C 243.957 281.4632 218.5216 291.9987 192 291.9987z" stroke="none" fill="#FFFFFF" fill-rule="nonzero" />
    <path transform="matrix(1 0 0 1 0 0)"  d="M329.5003 194C 329.5003 156.0304 316.076 123.6212 289.2274 96.77264C 262.3788 69.92403 229.9697 56.49973 192 56.49973C 154.0303 56.49973 121.6212 69.92403 94.77259 96.77264C 67.92399 123.6212 54.49968 156.0304 54.49968 194C 54.49968 231.9697 67.92399 264.3788 94.77259 291.2274C 121.6212 318.076 154.0303 331.5003 192 331.5003C 229.9697 331.5003 262.3788 318.076 289.2274 291.2274C 316.076 264.3788 329.5003 231.9697 329.5003 194" stroke="none" fill="#FFFFFF" fill-rule="nonzero" />
    <path transform="matrix(1 0 0 1 0 0)"  d="M279.5 125.25L279.5 262.75C 279.5001 267.7228 277.5247 272.4919 274.0084 276.0082C 270.4922 279.5245 265.7231 281.5 260.7503 281.5L260.7503 281.5L123.25 281.5C 118.2772 281.5001 113.5081 279.5247 109.9918 276.0084C 106.4755 272.4922 104.5 267.7231 104.5 262.7503L104.5 262.7503L104.5 125.25C 104.5 120.2772 106.4753 115.5081 109.9916 111.9918C 113.5078 108.4755 118.2769 106.5 123.2497 106.5L123.2497 106.5L260.75 106.5C 265.7228 106.5 270.4919 108.4753 274.0082 111.9916C 277.5245 115.5078 279.5 120.2769 279.5 125.2497L279.5 125.2497L279.5 125.25zM235.75 144L223.25 144C 219.7984 143.9999 217.0002 146.7979 217 150.2495L217 150.2495L217 181.5L167 181.5L167 150.25C 167.0001 148.5925 166.3417 147.0028 165.1697 145.8307C 163.9977 144.6586 162.408 144.0001 160.7505 144L160.7505 144L148.25 144C 144.7984 143.9999 142.0001 146.7979 142 150.2495L142 150.2495L142 237.75C 141.9999 241.2016 144.7979 243.9998 148.2495 244L148.2495 244L160.75 244C 162.4075 244.0001 163.9972 243.3417 165.1693 242.1697C 166.3414 240.9977 166.9999 239.408 167 237.7505L167 237.7505L167 206.5L217 206.5L217 237.75C 216.9999 241.2016 219.7979 243.9998 223.2495 244L223.2495 244L235.75 244C 239.2016 244.0001 241.9998 241.2021 242 237.7505L242 237.7505L242 150.25C 242.0001 146.7984 239.2021 144.0002 235.7505 144z" stroke="none" fill="#0089FE" fill-rule="nonzero" />
</g>
</svg>