<?xml version="1.0" standalone="no"?>
<!DOCTYPE svg PUBLIC "-//W3C//DTD SVG 1.0//EN" "http://www.w3.org/TR/2001/REC-SVG-20010904/DTD/svg10.dtd">
<svg xmlns="http://www.w3.org/2000/svg" xmlns:xlink="http://www.w3.org/1999/xlink" id="body_1" width="20" height="27">

<g transform="matrix(0.05208334 0 0 0.05273438 0 0)">
    <path transform="matrix(1 0 0 1 0 0)"  d="M192.0216 505.5C 186.2729 505.502 180.8883 502.6867 177.6095 497.9648C 151.6895 460.3887 129.8712 429.3057 110.6202 401.8809C 24.43564 279.1026 6.50009 253.5513 6.50009 191.9991C 6.500351 89.55088 89.55096 6.500259 191.9991 6.5L191.9991 6.5L192.0001 6.5C 294.2853 6.50049 377.5001 89.71485 377.5001 191.999C 377.5001 253.5503 359.5656 279.1006 273.3829 401.876C 254.1319 429.3008 232.3126 460.3857 206.3819 497.9775C 203.1127 502.6819 197.7503 505.4909 192.0216 505.5zM192.0001 85.49951C 148.925 85.4996 110.0913 111.4475 93.60729 151.2438C 77.12325 191.0401 86.23502 236.8475 116.6938 267.3062C 147.1526 297.7648 192.9601 306.8763 232.7563 290.3921C 272.5524 273.9079 298.5002 235.0741 298.5001 191.999C 298.4336 133.2083 250.7908 85.56574 192.0001 85.49954z" stroke="none" fill="#AE7C37" fill-rule="nonzero" />
    <path transform="matrix(1 0 0 1 0 0)"  d="M192.0008 0L192.0008 13C 290.8593 13.00003 371 93.14066 371.0001 191.9992C 371.0001 223.5549 366.3206 243.2814 352.4552 270.1745C 337.4227 299.3314 311.3153 336.5242 268.0619 398.1428C 248.8036 425.578 226.9757 456.6738 201.0482 494.2612C 198.9949 497.2248 195.6205 498.9951 192.0152 499C 188.4098 499.005 185.0305 497.244 182.9691 494.2861C 157.0252 456.675 135.1978 425.58 115.9403 398.1455C 72.68588 336.5257 46.57796 299.3323 31.54528 270.1749C 17.6798 243.2815 13.00011 223.5546 13.00011 191.9982C 13.00037 144.5246 31.85948 98.99544 65.42864 65.42674C 98.99782 31.85806 144.5272 12.99959 192.0008 13L192.0008 13L192.0008 0zM192.0001 304.9987C 254.408 304.9984 304.9994 254.4067 304.9992 191.9988C 304.999 129.5909 254.4073 78.99947 191.9995 78.99958C 129.5916 78.99968 79.00007 129.5913 79.00009 191.9992C 79.07079 254.378 129.6213 304.9283 192.0001 304.9987L192.0001 304.9987L192.0008 0L192.0001 0C 85.96152 -0.0002 0.00034 85.9603 9E-05 191.9982L9E-05 191.9982L9E-05 191.9992C 9E-05 269.4114 26.97031 291.0295 172.2682 501.6677C 176.754 508.138 184.1269 511.998 192.0001 511.998C 199.8733 511.998 207.2462 508.138 211.732 501.6677C 357.0296 291.0295 384.0001 269.4114 384.0001 191.9992C 384.0003 85.9612 298.0394 0.0003 192.0008 0zM192.0001 291.9987C 136.7719 291.9984 92.00082 247.227 92.001 191.9988C 92.00118 136.7706 136.7726 91.99947 192.0007 91.99958C 247.2289 91.99969 292.0001 136.771 292.0001 191.9992C 292 218.5208 281.4643 243.9561 262.7107 262.7096C 243.957 281.4632 218.5217 291.9987 192.0001 291.9987z" stroke="none" fill="#FFFFFF" fill-rule="nonzero" />
    <path transform="matrix(1 0 0 1 0 0)"  d="M329.5003 194C 329.5003 156.0304 316.076 123.6212 289.2274 96.77264C 262.3788 69.92403 229.9697 56.49973 192 56.49973C 154.0303 56.49973 121.6212 69.92403 94.77259 96.77264C 67.92399 123.6212 54.49968 156.0304 54.49968 194C 54.49968 231.9697 67.92399 264.3788 94.77259 291.2274C 121.6212 318.076 154.0303 331.5003 192 331.5003C 229.9697 331.5003 262.3788 318.076 289.2274 291.2274C 316.076 264.3788 329.5003 231.9697 329.5003 194" stroke="none" fill="#FFFFFF" fill-rule="nonzero" />
    <path transform="matrix(1 0 0 1 0 0)"  d="M201.3005 281.5C 227.6881 281.5233 252.6713 269.6141 269.2692 249.1004C 270.3514 247.7625 270.484 245.8916 269.6014 244.4144C 268.7187 242.9372 267.0083 242.1675 265.3174 242.4866C 232.3699 248.7954 199.6972 230.3319 188.1038 198.8529C 176.5103 167.3739 189.4029 132.1292 218.5719 115.561C 220.066 114.7067 220.8685 113.011 220.5818 111.3139C 220.295 109.6168 218.9799 108.2789 217.2881 107.9629C 184.6623 101.9018 151.4153 114.817 131.4367 141.3129C 111.4582 167.8088 108.1861 203.3259 122.9874 233.026C 137.7888 262.726 168.1166 281.4982 201.3005 281.5z" stroke="none" fill="#AE7C37" fill-rule="nonzero" />
</g>
</svg>