<?xml version="1.0" standalone="no"?>
<!DOCTYPE svg PUBLIC "-//W3C//DTD SVG 1.0//EN" "http://www.w3.org/TR/2001/REC-SVG-20010904/DTD/svg10.dtd">
<svg xmlns="http://www.w3.org/2000/svg" xmlns:xlink="http://www.w3.org/1999/xlink" id="body_1" width="20" height="27">

<g transform="matrix(0.05208334 0 0 0.05273438 0 0)">
    <path transform="matrix(1 0 0 1 0 0)"  d="M192.0215 505.5C 186.2729 505.502 180.8882 502.6867 177.6094 497.9648C 151.6875 460.3857 129.8682 429.3008 110.6172 401.876C 24.43456 279.1006 6.5 253.5503 6.5 191.9991C 6.500244 89.5509 89.55083 6.500275 191.999 6.5L191.999 6.5L192 6.5C 294.2852 6.50049 377.5 89.71485 377.5 191.999C 377.5 253.5503 359.5654 279.1006 273.3828 401.876C 254.1318 429.3008 232.3125 460.3857 206.3818 497.9775C 203.1126 502.6819 197.7502 505.4909 192.0215 505.5zM192 85.49954C 148.9249 85.49963 110.0912 111.4475 93.6072 151.2438C 77.12315 191.0401 86.23492 236.8475 116.6937 267.3062C 147.1525 297.7648 192.96 306.8764 232.7562 290.3922C 272.5524 273.9079 298.5001 235.0742 298.5 191.9991C 298.4335 133.2084 250.7907 85.56574 192 85.49954z" stroke="none" fill="#10BA19" fill-rule="nonzero" />
    <path transform="matrix(1 0 0 1 0 0)"  d="M192.001 0L192.001 13C 290.8594 13.00011 371 93.14075 371 191.9992C 371 223.5551 366.3204 243.2817 352.4551 270.1749C 337.4224 299.3321 311.3146 336.5252 268.0607 398.1446C 248.8027 425.5794 226.9753 456.6746 201.0485 494.2609C 198.9953 497.2246 195.6208 498.995 192.0154 499C 188.4099 499.005 185.0306 497.2441 182.9691 494.2861C 157.025 456.675 135.1978 425.58 115.9399 398.1454C 72.68578 336.5257 46.57787 299.3323 31.54516 270.1749C 17.67956 243.2814 13 223.5546 13 191.9982C 13.00031 144.5245 31.85947 98.99541 65.4287 65.42671C 98.99791 31.85802 144.5273 12.99957 192.001 13L192.001 13L192.001 0zM192 304.9987C 254.4079 304.9984 304.9993 254.4067 304.9991 191.9988C 304.9989 129.5909 254.4073 78.99947 191.9994 78.99958C 129.5915 78.99968 78.99998 129.5913 79 191.9992C 79.07066 254.378 129.6212 304.9283 192 304.9987L192 304.9987L192.001 0L192 0C 85.96154 -0.0002 0.00024 85.9603 0 191.9982L0 191.9982L0 191.9992C 0 269.4114 26.97022 291.0295 172.2681 501.6677C 176.7539 508.138 184.1268 511.998 192.0001 511.998C 199.8733 511.998 207.2462 508.138 211.7321 501.6677C 357.0298 291.0295 384 269.4114 384 191.9992C 384.0002 85.9612 298.0393 0.0003 192.001 0zM192 291.9987C 136.7718 291.9984 92.00073 247.227 92.00091 191.9988C 92.00109 136.7706 136.7725 91.99947 192.0007 91.99958C 247.2288 91.99969 292 136.771 292 191.9992C 291.9999 218.5208 281.4642 243.9561 262.7106 262.7096C 243.957 281.4632 218.5216 291.9987 192 291.9987z" stroke="none" fill="#FFFFFF" fill-rule="nonzero" />
    <path transform="matrix(1 0 0 1 0 0)"  d="M329.5003 194C 329.5003 156.0304 316.076 123.6212 289.2274 96.77264C 262.3788 69.92403 229.9697 56.49973 192 56.49973C 154.0303 56.49973 121.6212 69.92403 94.77259 96.77264C 67.92399 123.6212 54.49968 156.0304 54.49968 194C 54.49968 231.9697 67.92399 264.3788 94.77259 291.2274C 121.6212 318.076 154.0303 331.5003 192 331.5003C 229.9697 331.5003 262.3788 318.076 289.2274 291.2274C 316.076 264.3788 329.5003 231.9697 329.5003 194" stroke="none" fill="#FFFFFF" fill-rule="nonzero" />
    <path transform="matrix(1 0 0 1 0 0)"  d="M201.3005 281.5C 227.6881 281.5233 252.6713 269.6141 269.2692 249.1004C 270.3514 247.7625 270.484 245.8916 269.6014 244.4144C 268.7187 242.9372 267.0083 242.1675 265.3174 242.4866C 232.3699 248.7954 199.6972 230.3319 188.1038 198.8529C 176.5103 167.3739 189.4029 132.1292 218.5719 115.561C 220.066 114.7067 220.8685 113.011 220.5818 111.3139C 220.295 109.6168 218.9799 108.2789 217.2881 107.9629C 184.6623 101.9018 151.4153 114.817 131.4367 141.3129C 111.4582 167.8088 108.1861 203.3259 122.9874 233.026C 137.7888 262.726 168.1166 281.4982 201.3005 281.5z" stroke="none" fill="#10BA19" fill-rule="nonzero" />
</g>
</svg>