<?xml version="1.0" standalone="no"?>
<!DOCTYPE svg PUBLIC "-//W3C//DTD SVG 1.0//EN" "http://www.w3.org/TR/2001/REC-SVG-20010904/DTD/svg10.dtd">
<svg xmlns="http://www.w3.org/2000/svg" xmlns:xlink="http://www.w3.org/1999/xlink" id="body_1" width="20" height="27">

<g transform="matrix(0.05208334 0 0 0.05273438 0 0)">
    <path transform="matrix(1 0 0 1 0 0)"  d="M192.0215 505.5C 186.2731 505.5022 180.8886 502.6868 177.6103 497.9648C 151.6894 460.3867 129.8691 429.3018 110.6181 401.877C 24.43454 279.1006 6.5 253.5503 6.5 191.9991C 6.500244 89.5509 89.55083 6.500275 191.999 6.5L191.999 6.5L192 6.5C 294.2852 6.50049 377.5 89.71485 377.5 191.999C 377.5 253.5503 359.5654 279.1006 273.3828 401.876C 254.1318 429.3008 232.3125 460.3857 206.3818 497.9775C 203.1126 502.6819 197.7502 505.4909 192.0215 505.5zM192 85.49954C 148.9249 85.49963 110.0912 111.4475 93.6072 151.2438C 77.12315 191.0401 86.23492 236.8475 116.6937 267.3062C 147.1525 297.7648 192.96 306.8764 232.7562 290.3922C 272.5524 273.9079 298.5001 235.0742 298.5 191.9991C 298.4335 133.2084 250.7907 85.56574 192 85.49954z" stroke="none" fill="#E527B2" fill-rule="nonzero" />
    <path transform="matrix(1 0 0 1 0 0)"  d="M192.001 0L192.001 13C 290.8594 13.00011 371 93.14075 371 191.9992C 371 223.5551 366.3204 243.2817 352.455 270.1749C 337.4224 299.332 311.3146 336.5252 268.0608 398.1445C 248.8028 425.5793 226.9754 456.6746 201.0487 494.2606C 198.9955 497.2245 195.6211 498.9949 192.0155 499C 188.41 499.0051 185.0306 497.2441 182.9691 494.2861C 157.025 456.675 135.1977 425.58 115.9399 398.1454C 72.68582 336.5257 46.57779 299.3323 31.5451 270.1749C 17.6796 243.2814 13 223.5546 13 191.9982C 13.00037 144.5246 31.85954 98.99545 65.42876 65.42676C 98.99796 31.85808 144.5274 12.99962 192.001 13L192.001 13L192.001 0zM192 304.9987C 254.4079 304.9984 304.9993 254.4067 304.9991 191.9988C 304.9989 129.5909 254.4073 78.99947 191.9994 78.99958C 129.5915 78.99968 78.99998 129.5913 79 191.9992C 79.07069 254.378 129.6212 304.9283 192 304.9987L192 304.9987L192.001 0L192 0C 85.96158 -0.0002 0.00031 85.9603 0 191.9982L0 191.9982L0 191.9992C 0 269.4114 26.97018 291.0295 172.268 501.6677C 176.7539 508.138 184.1268 511.998 192.0001 511.998C 199.8733 511.998 207.2463 508.138 211.7321 501.6677C 357.0298 291.0295 384 269.4114 384 191.9992C 384.0002 85.9612 298.0393 0.0003 192.001 0zM192 291.9987C 136.7718 291.9984 92.00073 247.227 92.00091 191.9988C 92.00109 136.7706 136.7725 91.99947 192.0007 91.99958C 247.2288 91.99969 292 136.771 292 191.9992C 291.9998 247.2275 247.2283 291.9988 192 291.9987z" stroke="none" fill="#FFFFFF" fill-rule="nonzero" />
    <path transform="matrix(1 0 0 1 0 0)"  d="M329.5003 194C 329.5003 156.0304 316.076 123.6212 289.2274 96.77264C 262.3788 69.92403 229.9697 56.49973 192 56.49973C 154.0303 56.49973 121.6212 69.92403 94.77259 96.77264C 67.92399 123.6212 54.49968 156.0304 54.49968 194C 54.49968 231.9697 67.92399 264.3788 94.77259 291.2274C 121.6212 318.076 154.0303 331.5003 192 331.5003C 229.9697 331.5003 262.3788 318.076 289.2274 291.2274C 316.076 264.3788 329.5003 231.9697 329.5003 194" stroke="none" fill="#FFFFFF" fill-rule="nonzero" />
    <path transform="matrix(1 0 0 1 0 0)"  d="M295.9267 157.1915L200.0422 126.5056C 194.8114 124.8335 189.1893 124.8335 183.9584 126.5056L183.9584 126.5056L88.07056 157.1915C 84.46799 158.2747 82.00166 161.5917 82.00166 165.3536C 82.00166 169.1155 84.46799 172.4324 88.07056 173.5156L88.07056 173.5156L104.7868 178.8651C 101.0146 183.6725 98.8629 189.5516 98.6407 195.6583C 95.31055 197.582 93.18917 201.0691 93.01179 204.9109C 92.8344 208.7526 94.62544 212.4203 97.76415 214.6428L97.76415 214.6428L88.98835 255.7771C 88.5972 257.4376 88.97408 259.186 90.01462 260.5379C 91.05515 261.8898 92.64882 262.7017 94.35414 262.7486L94.35414 262.7486L113.6416 262.7486C 115.3475 262.7025 116.9421 261.8911 117.9834 260.5391C 119.0247 259.1871 119.402 257.4381 119.0109 255.7771L119.0109 255.7771L110.2352 214.6428C 113.33 212.4564 115.118 208.8604 114.9934 205.0733C 114.8688 201.2861 112.8483 197.8155 109.6165 195.8373C 109.8384 190.5939 112.4616 185.7445 116.7285 182.6891L116.7285 182.6891L183.9549 204.2051C 189.1861 205.8752 194.8075 205.8752 200.0387 204.2051L200.0387 204.2051L295.9266 173.5192C 299.5306 172.4364 301.9982 169.1185 301.9982 165.3553C 301.9982 161.5921 299.5306 158.2742 295.9266 157.1914L295.9266 157.1914L295.9267 157.1915zM203.27 215.1584C 195.9375 217.5031 188.0563 217.5031 180.7238 215.1584L180.7238 215.1584L130.874 199.2066L125.9997 239.8325C 125.9997 252.4901 155.548 262.7485 191.9989 262.7485C 228.4498 262.7485 257.9978 252.4901 257.9978 239.8325L257.9978 239.8325L253.1235 199.2031z" stroke="none" fill="#E527B2" fill-rule="nonzero" />
</g>
</svg>