<svg width="1591" height="867" xmlns="http://www.w3.org/2000/svg"><path fill="#fff" d="M-1-1h1593v869H-1z"/><path d="M1663.834 909.612L-41.11 908.89-40 422.223l648.89 30 105.555-41.111 126.667 1.11 122.222-34.444 126.667 14.445c.5.721 126.055-64.834 126.055-64.834s128.89 4.444 128.39 3.723c.5.721 118.277 28.499 118.277 28.499s173.334-108.889 172.834-109.61" stroke-opacity="null" stroke-width="1.5" stroke="#000" fill="#ff0"/><ellipse ry="4.524" rx="4.524" cy="453.024" cx="609.151" fill="red"/><ellipse ry="4.524" rx="4.524" cy="411.595" cx="715.341" fill="red"/><ellipse ry="4.524" rx="4.524" cy="412.071" cx="841.055" fill="red"/><ellipse ry="4.524" rx="4.524" cy="378.262" cx="964.389" fill="red"/><ellipse ry="4.524" rx="4.524" cy="391.595" cx="1090.103" fill="red"/><ellipse ry="4.524" rx="4.524" cy="327.706" cx="1216.769" fill="red"/><ellipse ry="4.524" rx="4.524" cy="332.151" cx="1346.213" fill="red"/><ellipse ry="4.524" rx="4.524" cy="358.262" cx="1463.435" fill="red"/><ellipse ry="4.524" rx="4.524" cy="278.818" cx="1589.546" fill="red"/><path d="M1644.875 897.875L-40 897.5l1.25-446.25c-1.25.373 496.125 24.125 496.125 24.125s255-106.25 253.875-106.625c1.125.375 129.875-2.125 128.75-2.5 1.125.375 112.375-32.125 111.25-32.5 1.125.375 144.875 21.625 144.875 21.625s128.75-73.75 127.625-74.125c1.125.375 133.625 9.125 133.625 9.125l108.75 35s178.75-125 177.625-125.375" opacity=".5" fill="red"/></svg>