<svg style="background-color:#ffffff00" xmlns="http://www.w3.org/2000/svg" width="500" height="550"><path d="M429.688 156.875l31.25 312.5c0 13.031-4.563 24.078-13.672 33.203-9.125 9.11-20.188 13.672-33.204 13.672H85.938c-13.03 0-24.093-4.563-33.203-13.672-9.125-9.125-13.672-20.172-13.672-33.203l31.25-312.5c0-13.016 4.547-24.078 13.672-33.203 9.11-9.11 20.172-13.672 33.204-13.672h46.874v-7.813c0-23.75 8.375-44.015 25.141-60.78C205.97 24.64 226.234 16.25 250 16.25c23.75 0 44.016 8.39 60.781 25.156 16.766 16.766 25.156 37.032 25.156 60.782V110h46.875c13.016 0 24.079 4.563 33.204 13.672 9.109 9.125 13.671 20.187 13.671 33.203zM187.5 102.187V110h125v-7.813c0-17.25-6.11-31.968-18.313-44.187C281.97 45.797 267.25 39.687 250 39.687c-17.25 0-31.984 6.11-44.188 18.313-12.218 12.219-18.312 26.938-18.312 44.188zM414.063 485c4.218 0 7.89-1.547 10.984-4.64 3.094-3.094 4.64-6.75 4.64-10.985l-31.25-312.5c0-4.219-1.546-7.89-4.64-10.984-3.094-3.094-6.766-4.641-10.985-4.641h-46.875v24.172c4.563 1.969 8.297 5.14 11.235 9.531 2.922 4.406 4.39 9.36 4.39 14.89 0 7.5-2.687 13.923-8.062 19.298-5.375 5.375-11.797 8.047-19.281 8.047-7.5 0-13.922-2.672-19.297-8.047s-8.047-11.797-8.047-19.297c0-5.531 1.453-10.485 4.39-14.89 2.938-4.392 6.673-7.563 11.235-9.532V141.25h-125v24.172c4.563 1.969 8.297 5.14 11.234 9.531 2.922 4.406 4.391 9.36 4.391 14.89 0 7.5-2.688 13.923-8.063 19.298-5.375 5.375-11.796 8.047-19.28 8.047-7.5 0-13.923-2.672-19.298-8.047-5.375-5.375-8.047-11.797-8.047-19.297 0-5.531 1.454-10.485 4.391-14.89 2.938-4.392 6.672-7.563 11.234-9.532V141.25h-46.875c-4.234 0-7.89 1.547-10.984 4.64-3.094 3.094-4.64 6.766-4.64 10.985l-31.25 312.5c0 4.234 1.546 7.89 4.64 10.984 3.094 3.094 6.75 4.641 10.984 4.641h328.125z"/></svg>