<svg style="fill:#dbdbdb" id="Layer_1" data-name="Layer 1" xmlns="http://www.w3.org/2000/svg" width="168.7839" height="224.68" viewBox="0 0 168.7839 224.68"><path d="M155.43,38.808c-.00129-.004.00117-.01493-.00052-.01817-.46093-.88571-1.70937-2.71261-2.71347-4.14153-.25333-.37948-.72123-1.05927-1.41136-1.97819l-.00251-.00346-.00013-.00005A83.83928,83.83928,0,0,0,84.27718.01986S22.52664-2.89971,3.21269,62.067a.32435.32435,0,0,0-.02188.03811c-.10971.35988-.19723.665-.27068.93173-.011.03824-.0231.07476-.03409.11308l.00294-.00082c-.2272.83769-.28192,1.19674-.28192,1.19674l.00008.00031C.98836,69.8876-6.4405,100.23841,14.42878,131.31862L84.27718,224.68l70.44038-93.36134S185.88641,87.837,155.43,38.808Z"/></svg>
